<?xml version="1.0" encoding="UTF-8"?>
<svg id="Layer_1" data-name="Layer 1" xmlns="http://www.w3.org/2000/svg" version="1.1" viewBox="0 0 5669.3 2606.6">
  <defs>
    <style>
      .cls-1 {
        fill: #000;
      }

      .cls-1, .cls-2, .cls-3 {
        stroke-width: 0px;
      }

      .cls-2 {
        fill: none;
      }

      .cls-3 {
        fill: #f05a22;
      }
    </style>
  </defs>
  <path id="Path_1" data-name="Path 1" class="cls-1" d="M3305.8,1206c-23.9,55.4-58.5,105.5-101.7,147.6-44.3,42.9-96.4,76.8-153.4,100.1-61.4,24.9-127.2,37.4-193.5,36.7-65.7.6-130.8-11.6-191.8-35.9-56.8-22.6-108.6-56-152.5-98.5-42.9-41.8-77.2-91.7-100.9-146.7-24.7-57.1-37.2-118.7-36.7-180.9v-3.3c-.5-62.2,12-123.8,36.7-180.9,23.9-55.4,58.5-105.5,101.7-147.6,44.3-42.9,96.4-76.8,153.4-100.1,61.4-24.9,127.2-37.4,193.5-36.7,65.6-.5,130.8,11.7,191.7,36.1,56.8,22.5,108.6,56,152.5,98.4,42.9,41.8,77.2,91.7,100.9,146.7,24.6,57.1,37.1,118.7,36.7,180.9v3.3c.5,62.2-12,123.8-36.7,180.9M3092.4,1025.1c.2-32.1-5.5-64.1-16.7-94.2-21.9-58.8-66.3-106.5-123.4-132.6-29.8-13.5-62.3-20.4-95.1-20-33.5-.6-66.8,5.9-97.5,19.1-27.6,12.3-52.3,30.2-72.5,52.6-20.2,22.6-35.8,49-45.9,77.6-10.7,30.2-16,62.1-15.8,94.2v3.3c-.2,32.2,5.4,64.1,16.7,94.2,22,58.5,66,106.1,122.6,132.6,30.1,13.7,62.9,20.6,95.9,20,33.5.7,66.8-5.9,97.5-19.1,27.6-12.2,52.3-30.2,72.5-52.6,20.2-22.6,35.8-49,45.9-77.6,10.7-30.2,16.1-62.1,15.8-94.2v-3.3Z"/>
  <path id="Path_2" data-name="Path 2" class="cls-1" d="M4053.5,1480.3c-15.2,0-27.5-12.3-27.5-27.5h0v-469.9c3.5-48.5-10.7-96.7-40-135.6-29-31.5-70.7-48.3-113.4-45.8-43.4-2.2-85.7,14.5-115.9,45.8-30.9,38.1-46.1,86.6-42.5,135.6v469.9c0,15.2-12.3,27.5-27.5,27.5h-198.4c-15.2,0-27.5-12.3-27.5-27.5h0v-838.8c0-15.2,12.3-27.5,27.5-27.5h198.4c15.2,0,27.5,12.3,27.5,27.5h0v27.4c0,15.1,12.3,27.3,27.4,27.2,7.4,0,14.5-3.1,19.6-8.4l.5-.5c17.4-17.5,36.6-33,57.4-46.2,21.8-13.8,45.4-24.5,70-31.9,28.2-8.2,57.4-12.2,86.7-11.8,84.1-5.1,166.2,27.2,224.3,88.4,56.1,68.3,84.3,155.2,79.2,243.5v551.1c0,15.2-12.3,27.5-27.5,27.5h-198.3Z"/>
  <path id="Path_3" data-name="Path 3" class="cls-1" d="M2343.8,1401.3l-89.2-90.1c-20-20-52-21.5-73.8-3.5-31,25.5-64.4,48-99.8,66.9-52.6,25.9-110.7,38.5-169.3,36.7-93.3,1.1-182.5-38.5-244.3-108.4-30.1-34.3-53.5-73.9-69.2-116.7-16.8-45.4-25.3-93.4-25-141.8v-3.3c-.3-48.1,8.1-95.9,25-140.9,15.9-42.7,39.7-82,70-115.9,30.1-33.3,66.8-59.9,107.7-78.1,42.7-19.1,89.1-28.8,135.9-28.4,55.1-.8,109.6,11.2,159.3,35,35,17.5,68.2,38.6,99,62.9,23,18.2,56.2,15.2,75.5-6.8l93.4-107.7c19.8-22.6,17.6-57.1-5-76.9,0,0,0,0,0,0-15-12.8-30.6-24.9-46.8-36.5-31.7-22.6-65.8-41.6-101.7-56.7-39.5-16.4-80.6-28.7-122.6-36.7-49.2-9.3-99.2-13.7-149.2-13.3-84.6-1.1-168.6,15.1-246.8,47.5-72.1,30-137.4,74.2-192,130.1-53.6,55.3-96,120.4-125.1,191.7-30.3,74.4-45.6,154-45,234.3v3.3c-.5,80.6,14.7,160.5,45,235.1,20.3,49.8,47.2,96.7,80.1,139.2l-56.7,176.9c-6.3,19.8,4.6,41,24.4,47.4,9.5,3,19.9,2.2,28.7-2.4l160.6-83.2c25,15.3,51.1,28.9,78,40.5,75.5,31.5,156.7,47.4,238.5,46.7,51.5.4,102.9-4.4,153.4-14.3,43.5-8.8,85.8-22.8,125.9-41.7,37.7-17.9,73.2-40,105.9-65.8,18.5-14.7,36.6-30.4,54.4-47.2,21.8-21,22.4-55.6,1.5-77.4-.2-.2-.4-.4-.6-.6"/>
  <g id="Group_4" data-name="Group 4">
    <g id="Group_16" data-name="Group 16">
      <path id="Rectangle_2" data-name="Rectangle 2" class="cls-3" d="M1790.4,902.4h260.4c29.9,0,54.2,24.3,54.2,54.2h0c0,29.9-24.3,54.2-54.2,54.2h-260.4c-29.9,0-54.2-24.3-54.2-54.2h0c0-29.9,24.3-54.2,54.2-54.2Z"/>
    </g>
  </g>
  <g id="Group_6" data-name="Group 6">
    <g id="Group_17" data-name="Group 17">
      <path id="Rectangle_4" data-name="Rectangle 4" class="cls-3" d="M1790.4,1058.5h143.1c29.9,0,54.2,24.3,54.2,54.2h0c0,29.9-24.3,54.2-54.2,54.2h-143.1c-29.9,0-54.2-24.3-54.2-54.2h0c0-29.9,24.3-54.2,54.2-54.2Z"/>
    </g>
  </g>
  <g id="Group_8" data-name="Group 8">
    <g id="Group_18" data-name="Group 18">
      <path id="Rectangle_6" data-name="Rectangle 6" class="cls-3" d="M940,987.2h148.2c40.1,0,72.7,32.5,72.7,72.7h0c0,40.1-32.5,72.7-72.7,72.7h-148.2c-40.1,0-72.7-32.5-72.7-72.7h0c0-40.1,32.5-72.7,72.7-72.7Z"/>
    </g>
  </g>
  <g id="Group_9" data-name="Group 9">
    <path id="Path_4" data-name="Path 4" class="cls-1" d="M616.5,1480.3h-26.3c-62.7,0-113.6-50.8-113.6-113.6h0v-554.6c0-62.7,50.8-113.6,113.6-113.6h26.3c62.6,0,113.4,50.7,113.5,113.4v554.6c.1,62.7-50.7,113.6-113.4,113.7,0,0,0,0-.1,0"/>
    <path id="Path_5" data-name="Path 5" class="cls-1" d="M724.3,503.9c0,66.8-54.2,121-121,121-66.8,0-121-54.2-121-121,0-66.8,54.2-121,121-121,0,0,0,0,0,0,66.8,0,121,54.2,121,121h0"/>
  </g>
  <g>
    <path class="cls-2" d="M4576.5,606.6c-2.1,0-4.2.2-6.3.3h493.3l-487-.3Z"/>
    <polygon class="cls-2" points="4956.7 846.3 4902.5 749 4846.8 749 4931.4 897.9 4931.4 994 4981.5 994 4981.5 897.5 5065.8 749 5010.5 749 4956.7 846.3"/>
    <path class="cls-2" d="M4704.6,788.9c29.8,0,57.3,16.1,71.7,42.2l38.7-27.4c-22.7-39.4-65.1-63.2-110.5-62.2-.8,0-1.6,0-2.4,0-72.2-.4-131.1,57.8-131.5,129.9l.2-.3c0,.3,0,.5,0,.8.4,71.7,58.9,129.5,130.6,129.1h2.7c45.6,1.4,88.3-22.5,110.9-62.2l-38.7-27.4c-14.4,26.1-41.9,42.3-71.7,42.2-45.5,0-82.4-36.9-82.4-82.4s36.9-82.4,82.4-82.4Z"/>
    <path class="cls-2" d="M5224.2,763.4v212.3c0-1.5.2-3,.2-4.5v-203.3c0-1.5-.2-3-.2-4.5Z"/>
    <path class="cls-3" d="M5063.5,606.9h-493.3c-85.9,3.6-154.5,74-154.7,160.7v461.4s100.4-96.8,195.6-96.8h452.4c87.3-.2,158.1-69.8,160.8-156.5v-212.3c-2.6-86.7-73.5-156.2-160.8-156.5ZM4704.6,953.8c29.8,0,57.3-16.1,71.7-42.2l38.7,27.4c-22.6,39.7-65.3,63.6-110.9,62.2h-2.7c-71.7.4-130.2-57.4-130.6-129.1,0-.3,0-.5,0-.8l-.2.3c.4-72.2,59.3-130.4,131.5-129.9.8,0,1.6,0,2.4,0,45.4-1,87.8,22.8,110.5,62.2l-38.7,27.4c-14.4-26.1-41.9-42.3-71.7-42.2-45.5,0-82.4,36.9-82.4,82.4s36.9,82.4,82.4,82.4ZM4981.5,897.5v96.5h-50.1v-96.1l-84.6-148.8h55.7l54.2,97.3,53.8-97.3h55.3l-84.3,148.5Z"/>
  </g>
  <g id="Group_14" data-name="Group 14">
    <g id="Group_26" data-name="Group 26">
      <rect id="Rectangle_10" data-name="Rectangle 10" class="cls-3" x="444.8" y="1981.7" width="61.8" height="237"/>
      <path id="Path_7" data-name="Path 7" class="cls-3" d="M652,2138.2c11.1,18.7,31.1,30.2,52.8,30.5,16.2,0,24.4-5.7,24.4-17.1s-5.4-13.7-24.1-21.9l-24.4-10.8c-39.1-17.1-59.9-39.5-59.9-71.4,1.7-40.6,36-72.2,76.6-70.6,2.1,0,4.2.3,6.3.5,34.2-1.8,66.2,17,81.3,47.8l-41.3,31.6c-7.3-15.1-22.4-24.8-39.1-25.1-12.8,0-21.2,5-21.2,15.1s5,13.3,20.5,19.4l27.3,11.5c41.3,17.1,60.7,38.1,60.7,71.4-1.5,42.7-37.3,76-80,74.5-2.3,0-4.6-.3-6.9-.6-39,1.6-75.6-18.9-94.4-53.1l41.4-31.8Z"/>
      <path id="Path_8" data-name="Path 8" class="cls-3" d="M898.6,1981.7h61.8v181.4h98v55.6h-159.8v-237Z"/>
      <path id="Path_9" data-name="Path 9" class="cls-3" d="M1299.6,2198.9h-85.1l-8.6,19.7h-66.4l107.7-241.3h19.7l107.7,241.3h-66.4l-8.7-19.7ZM1257.3,2094.4l-20.8,54.9h41.3l-20.5-54.9Z"/>
      <path id="Path_10" data-name="Path 10" class="cls-3" d="M1680.9,1981.7v241.3h-19.8l-128.4-124.6v120.3h-61.8v-241.3h19.8l128.4,122.8v-118.5h61.8Z"/>
      <path id="Path_11" data-name="Path 11" class="cls-3" d="M1800.1,1981.7h82.6c65.2-5.9,122.8,42.1,128.8,107.3.3,3.5.5,7,.5,10.5-.2,66.2-53.9,119.7-120.1,119.6-3.1,0-6.1-.1-9.1-.4h-82.6v-237ZM1882.4,2163c33.8,2.8,63.5-22.4,66.3-56.3.2-2.4.3-4.8.2-7.3,1.5-32.8-23.8-60.6-56.6-62.1-3.3-.2-6.6,0-9.9.4h-20.5v125.3h20.5Z"/>
      <path id="Path_12" data-name="Path 12" class="cls-3" d="M2371.7,1971.6c45.3-1.1,87.3,23.5,108.4,63.5l-47.1,32c-11.6-23.5-35.5-38.5-61.8-38.8-34.5-1.2-63.5,25.8-64.7,60.3,0,2.1,0,4.1,0,6.2-.7,17.7,5.8,34.9,18,47.8,12.5,12.1,29.3,18.5,46.7,18,26.3-.2,50.1-15.2,61.8-38.8l47.1,32c-21.2,40.1-63.4,64.8-108.8,63.5-67.8,2.4-124.8-50.5-127.2-118.4-2.4-67.8,50.5-124.8,118.4-127.2,3.1-.1,6.1-.1,9.2,0"/>
      <path id="Path_13" data-name="Path 13" class="cls-3" d="M2700.5,1971.6c67.8,2.5,120.7,59.6,118.2,127.4-2.5,67.8-59.6,120.7-127.4,118.2-66-2.5-118.3-56.7-118.3-122.8,1.1-69,58-124,126.9-122.8.2,0,.3,0,.5,0M2700.9,2028.3c-34.4-1.3-63.4,25.6-64.7,60,0,2,0,4,0,6-.7,17.8,5.8,35.1,18,48.1,26.6,25,68.4,23.6,93.4-3,25-26.6,23.6-68.4-3-93.4-11.9-11.1-27.4-17.5-43.7-17.9"/>
      <path id="Path_14" data-name="Path 14" class="cls-3" d="M3145.8,1975.8v241.3h-19.8l-128.4-124.6v120.3h-61.8v-241.3h19.7l128.4,122.8v-118.5h61.8Z"/>
      <path id="Path_15" data-name="Path 15" class="cls-3" d="M3265,1975.8h160.8v55.6h-99.1v45.2h80.4v55.6h-80.4v80.4h-61.8v-237Z"/>
      <path id="Path_16" data-name="Path 16" class="cls-3" d="M3531.4,1975.8h164.4v55.6h-102.7v32.7h73.2v51.7h-73.2v41.3h107v55.6h-168.7v-237Z"/>
      <path id="Path_17" data-name="Path 17" class="cls-3" d="M3951.1,2212.8l-53.5-73.6h-25.7v73.6h-61.8v-237h93c45.7-4.7,86.5,28.6,91.1,74.2.2,2.4.4,4.7.4,7.1.5,27.6-13.7,53.3-37.3,67.5l62.4,88-68.7.2ZM3872.1,2085.3h31.6c14.6,1,27.3-9.9,28.3-24.5,0-1.1,0-2.3,0-3.5.9-14.4-10.2-26.8-24.6-27.7-1.2,0-2.5,0-3.7,0h-31.6v55.6Z"/>
      <path id="Path_18" data-name="Path 18" class="cls-3" d="M4116.3,1975.8h164.4v55.6h-102.7v32.7h73.2v51.7h-73.2v41.3h107v55.6h-168.7v-237Z"/>
      <path id="Path_19" data-name="Path 19" class="cls-3" d="M4605.3,1975.8v241.3h-19.6l-128.4-124.6v120.3h-62.1v-241.3h19.8l128.4,122.8v-118.5h61.9Z"/>
      <path id="Path_20" data-name="Path 20" class="cls-3" d="M4840.4,1971.6c45.3-1.1,87.3,23.5,108.4,63.5l-47.1,32c-11.6-23.5-35.5-38.5-61.8-38.8-34.5-1.3-63.5,25.7-64.7,60.2,0,2.1,0,4.2,0,6.2-.7,17.7,5.8,34.9,18,47.8,12.5,12.1,29.3,18.5,46.7,18,26.3-.3,50.1-15.2,61.8-38.8l47.1,32c-21.2,40.2-63.4,64.8-108.8,63.5-67.8,2.4-124.8-50.6-127.2-118.4-2.4-67.8,50.6-124.8,118.4-127.2,3.1-.1,6.1-.1,9.2,0"/>
      <path id="Path_21" data-name="Path 21" class="cls-3" d="M5055.8,1975.8h164.4v55.6h-102.7v32.7h73.2v51.7h-73.2v41.3h107v55.6h-168.7v-237Z"/>
    </g>
  </g>
</svg>