<svg width="201" height="43" viewBox="0 0 201 43" fill="none" xmlns="http://www.w3.org/2000/svg">
<g clip-path="url(#clip0_10_409)">
<path d="M73.8639 10.347C75.1269 10.347 76.2039 10.441 77.1859 10.629C78.1689 10.818 79.1049 11.147 80.0409 11.57V14.864C78.2159 13.97 76.3909 13.547 74.5659 13.547C73.2559 13.547 72.2259 13.782 71.4779 14.299C70.7289 14.769 70.4009 15.476 70.4009 16.369C70.4009 17.029 70.5889 17.546 70.9159 17.969C71.2439 18.393 71.7119 18.722 72.2259 19.004C72.7879 19.287 73.7699 19.71 75.1739 20.322C76.6239 20.933 77.7479 21.498 78.5899 22.11C79.4319 22.674 80.0399 23.38 80.5089 24.18C80.9289 24.98 81.1639 25.92 81.1639 27.05C81.1639 28.98 80.4619 30.485 79.0579 31.567C77.6539 32.649 75.5949 33.167 72.8809 33.167C71.5239 33.073 70.2609 32.978 68.9979 32.743C67.7339 32.508 66.7049 32.179 65.9089 31.803V28.415C66.9389 28.932 68.0149 29.309 69.1849 29.544C70.3079 29.779 71.4309 29.92 72.5539 29.92C73.9579 29.92 74.9869 29.638 75.7359 29.12C76.4839 28.603 76.8119 27.897 76.8119 26.956C76.8119 26.297 76.6249 25.78 76.2969 25.356C75.9699 24.933 75.4549 24.556 74.8469 24.227C74.1919 23.897 73.2089 23.474 71.8989 22.957C69.8869 22.11 68.3889 21.216 67.4999 20.181C66.6109 19.146 66.1429 17.875 66.1429 16.37C66.1429 15.193 66.4709 14.111 67.1259 13.217C67.7809 12.323 68.6699 11.57 69.8399 11.1C71.0099 10.582 72.3199 10.347 73.8639 10.347ZM96.0439 10.771V24.18C96.0439 25.92 96.5119 27.238 97.4939 28.132C98.4769 29.026 99.7399 29.497 101.378 29.497C103.016 29.497 104.279 29.027 105.262 28.132C106.245 27.238 106.712 25.921 106.712 24.18V10.77H110.643V24.133C110.643 26.862 109.848 29.073 108.303 30.673C106.759 32.273 104.42 33.12 101.378 33.12C98.3369 33.073 96.0439 32.273 94.4529 30.673C92.9089 29.073 92.1129 26.862 92.1129 24.133V10.77H96.0429L96.0439 10.771ZM133.384 10.3C134.929 10.3 136.332 10.488 137.549 10.818C138.766 11.147 139.889 11.664 140.871 12.418V16.181C139.935 15.381 138.906 14.817 137.736 14.441C136.566 14.064 135.209 13.923 133.712 13.923C132.215 13.923 130.858 14.253 129.641 14.863C128.424 15.523 127.489 16.417 126.787 17.593C126.085 18.769 125.71 20.133 125.71 21.686C125.71 23.286 126.038 24.65 126.693 25.826C127.348 27.003 128.284 27.897 129.453 28.556C130.623 29.214 131.981 29.496 133.478 29.496C135.069 29.496 136.379 29.214 137.408 28.696V23.804H133.758V20.65H141.386V30.86C139.468 32.366 136.754 33.119 133.338 33.119C131.092 33.072 129.033 32.601 127.301 31.707C125.523 30.767 124.166 29.449 123.184 27.755C122.201 26.014 121.734 24.038 121.734 21.732C121.734 19.427 122.201 17.451 123.184 15.71C124.166 13.969 125.524 12.652 127.301 11.71C129.08 10.77 131.091 10.299 133.384 10.299V10.3ZM164.548 10.77L173.205 32.65H169.181L167.169 27.615H157.951L155.985 32.649H151.961L160.711 10.771L164.548 10.77ZM193.466 10.77C195.853 10.77 197.725 11.382 199.035 12.558C200.345 13.735 201 15.476 201 17.734C201 19.334 200.626 20.698 199.83 21.827C199.035 22.957 197.912 23.757 196.461 24.227L200.86 32.649H196.835L192.625 24.65H188.319V32.65H184.389V10.77H193.466ZM162.583 15.005L159.073 24.275H166.093L162.583 15.005ZM192.718 14.017H188.319V21.31H192.764C194.028 21.31 195.104 21.028 195.853 20.416C196.648 19.804 197.023 18.91 197.023 17.687C197.023 15.24 195.572 14.017 192.718 14.017Z" fill="#0E0E0E"/>
<path d="M38.493 16.273L45.423 17.907L31.938 31.3L38.493 16.273ZM6.416 17.86L13.486 16.227L20.183 31.627L6.416 17.86ZM17.139 15.34L25.943 13.287L34.887 15.387L26.037 35.687L17.139 15.34ZM16.624 5.26L23.554 10.067L8.196 13.66L16.626 5.26H16.624ZM28.284 10.067L35.215 5.26L43.691 13.707L28.284 10.067ZM25.943 7.22L16.203 0.5L0 16.647L25.943 42.5L51.886 16.647L35.683 0.5L25.943 7.22Z" fill="#2969FF"/>
</g>
<defs>
<clipPath id="clip0_10_409">
<rect width="201" height="42" fill="white" transform="translate(0 0.5)"/>
</clipPath>
</defs>
</svg>
