<svg width="62" height="84" viewBox="0 0 62 84" fill="none" xmlns="http://www.w3.org/2000/svg">
<path d="M61.5683 3.62167V79.6766C61.5683 81.6776 59.9476 83.2983 57.9466 83.2983H3.62167C1.6207 83.2983 0 81.6776 0 79.6766V3.62167C0 1.6207 1.6207 0 3.62167 0H57.9466C59.9476 0 61.5683 1.6207 61.5683 3.62167Z" fill="#5C5C5C"/>
<path d="M57.9461 3.6217H3.62109V79.6767H57.9461V3.6217Z" fill="white"/>
<path d="M55.2799 45.373H8.19824V48.9947H55.2799V45.373Z" fill="#D3D3D3"/>
<path d="M55.2799 56.2382H8.19824V59.8598H55.2799V56.2382Z" fill="#D3D3D3"/>
<path d="M46.2257 65.2921H8.19824V68.9138H46.2257V65.2921Z" fill="#D3D3D3"/>
<path d="M8.3291 3.51367V35.2038C8.32915 35.6987 8.47053 36.1833 8.73661 36.6006C9.00269 37.0179 9.38241 37.3505 9.8311 37.5594L29.8118 46.8592C30.1553 47.0191 30.5296 47.1019 30.9085 47.1019C31.2873 47.1019 31.6616 47.0191 32.0051 46.8592L51.9858 37.5594C52.4344 37.3504 52.814 37.0178 53.0799 36.6005C53.3459 36.1832 53.4872 35.6986 53.4871 35.2038V3.51367H8.3291Z" fill="#D5FF40"/>
<path d="M25.3913 18.8234C25.1236 18.6854 24.8484 18.5624 24.5669 18.4551C23.686 18.969 22.6844 19.2399 21.6646 19.2399C20.6447 19.2399 19.6431 18.969 18.7623 18.4551C17.225 19.0412 15.9019 20.0801 14.9679 21.4344C14.0338 22.7887 13.5329 24.3946 13.5312 26.0398V28.2181C13.5312 28.5627 13.6681 28.8931 13.9118 29.1368C14.1555 29.3805 14.486 29.5174 14.8306 29.5174H23.0928C23.3157 28.1035 23.9076 26.7734 24.8087 25.6613C25.7097 24.5492 26.8882 23.6945 28.2251 23.1833C27.4447 22.7288 26.7817 22.0977 26.2895 21.3405C25.7974 20.5833 25.4897 19.7212 25.3913 18.8234Z" fill="#3E3E3E"/>
<path d="M27.4229 13.7615C27.4281 13.6621 27.4379 13.5666 27.4379 13.4626C27.4389 12.1469 26.9912 10.8702 26.1687 9.84333C25.3462 8.81643 24.198 8.10077 22.9139 7.81453C21.6297 7.52828 20.2863 7.68858 19.1055 8.26894C17.9247 8.84929 16.9772 9.81501 16.4194 11.0066C15.8616 12.1982 15.7269 13.5444 16.0375 14.8229C16.3481 16.1014 17.0854 17.2357 18.1277 18.0386C19.1701 18.8414 20.4551 19.2648 21.7705 19.2387C23.0859 19.2127 24.3531 18.7387 25.3629 17.8952C25.4027 17.1014 25.6063 16.3244 25.9608 15.613C26.3153 14.9016 26.8131 14.2712 27.4229 13.7615Z" fill="white"/>
<path d="M43.4902 18.4539C42.6093 18.9678 41.6077 19.2386 40.5879 19.2386C39.568 19.2386 38.5664 18.9678 37.6855 18.4539C37.4041 18.5612 37.1289 18.6842 36.8611 18.8222C36.763 19.7207 36.4553 20.5836 35.9627 21.3414C35.4702 22.0992 34.8066 22.7308 34.0254 23.1853C35.3623 23.6965 36.5408 24.5513 37.4418 25.6634C38.3429 26.7755 38.9348 28.1055 39.1577 29.5194H47.4219C47.7665 29.5194 48.097 29.3825 48.3406 29.1388C48.5843 28.8952 48.7212 28.5647 48.7212 28.2201V26.0399C48.7198 24.3945 48.219 22.7883 47.2849 21.4337C46.3509 20.0791 45.0276 19.04 43.4902 18.4539Z" fill="#3E3E3E"/>
<path d="M40.5902 7.68518C39.8315 7.68518 39.0803 7.83462 38.3794 8.12497C37.6785 8.41532 37.0416 8.84088 36.5052 9.37737C35.9688 9.91386 35.5433 10.5508 35.253 11.2517C34.9627 11.9526 34.8134 12.7039 34.8135 13.4625C34.8135 13.5632 34.8232 13.662 34.8284 13.7614C35.4383 14.2711 35.936 14.9015 36.2905 15.6129C36.6449 16.3243 36.8483 17.1013 36.8878 17.8951C37.6001 18.4902 38.4453 18.9049 39.3519 19.1041C40.2584 19.3032 41.1996 19.281 42.0958 19.0393C42.9919 18.7976 43.8166 18.3435 44.5001 17.7155C45.1835 17.0875 45.7056 16.304 46.022 15.4315C46.3385 14.5589 46.44 13.623 46.3181 12.7029C46.1961 11.7827 45.8543 10.9056 45.3214 10.1456C44.7886 9.3856 44.0804 8.7652 43.257 8.33692C42.4335 7.90864 41.5184 7.68508 40.5902 7.68518Z" fill="white"/>
<path d="M34.024 23.1859C33.1444 23.7007 32.1437 23.972 31.1246 23.972C30.1054 23.972 29.1047 23.7007 28.2251 23.1859C26.6873 23.7723 25.3638 24.8118 24.4298 26.1669C23.4957 27.522 22.9951 29.1287 22.9941 30.7745V32.9528C22.9941 33.2974 23.131 33.6279 23.3747 33.8715C23.6184 34.1152 23.9488 34.2521 24.2934 34.2521H37.9557C38.3003 34.2521 38.6307 34.1152 38.8744 33.8715C39.1181 33.6279 39.255 33.2974 39.255 32.9528V30.7745C39.254 29.1287 38.7534 27.522 37.8193 26.1669C36.8853 24.8118 35.5617 23.7723 34.024 23.1859Z" fill="#F0FFBA"/>
<path d="M31.126 23.9718C34.3168 23.9718 36.9034 21.3852 36.9034 18.1945C36.9034 15.0037 34.3168 12.4171 31.126 12.4171C27.9352 12.4171 25.3486 15.0037 25.3486 18.1945C25.3486 21.3852 27.9352 23.9718 31.126 23.9718Z" fill="white"/>
<path d="M14.8301 30.1691H22.3661C22.3525 30.3698 22.3434 30.5712 22.3434 30.7752V32.9522C22.3434 33.4691 22.5487 33.9648 22.9142 34.3303C23.2797 34.6958 23.7755 34.9011 24.2923 34.9011H37.9546C38.4715 34.9011 38.9672 34.6958 39.3327 34.3303C39.6982 33.9648 39.9035 33.4691 39.9035 32.9522V30.7752C39.9035 30.5712 39.8944 30.3698 39.8808 30.1691H47.4168C47.9337 30.1691 48.4294 29.9637 48.7949 29.5982C49.1604 29.2327 49.3657 28.737 49.3657 28.2201V26.0431C49.364 24.4632 48.936 22.913 48.1268 21.556C47.3177 20.199 46.1573 19.0856 44.7681 18.333C45.5577 17.6569 46.1713 16.7992 46.5563 15.8336C46.9412 14.868 47.086 13.8234 46.9782 12.7895C46.8703 11.7556 46.5131 10.7633 45.9371 9.89795C45.3611 9.03259 44.5837 8.31999 43.6716 7.82139C42.7595 7.32278 41.7399 7.05307 40.7006 7.03544C39.6612 7.01781 38.6331 7.25277 37.7046 7.72015C36.7761 8.18752 35.9749 8.87334 35.3699 9.71866C34.765 10.564 34.3743 11.5436 34.2314 12.5732C33.2805 12.0449 32.2106 11.7676 31.1228 11.7676C30.035 11.7676 28.9651 12.0449 28.0142 12.5732C27.8723 11.5426 27.4822 10.5619 26.8774 9.71552C26.2726 8.8691 25.4712 8.18228 24.5422 7.71415C23.6131 7.24602 22.5843 7.0106 21.5442 7.02813C20.504 7.04567 19.4837 7.31564 18.571 7.81481C17.6582 8.31399 16.8805 9.02742 16.3045 9.89375C15.7286 10.7601 15.3717 11.7534 15.2647 12.7881C15.1576 13.8229 15.3035 14.8682 15.6899 15.8341C16.0763 16.8 16.6915 17.6576 17.4827 18.333C16.0933 19.0854 14.9326 20.1988 14.1232 21.5558C13.3138 22.9128 12.8856 24.4631 12.8838 26.0431V28.2201C12.8838 28.7365 13.0888 29.2319 13.4537 29.5973C13.8186 29.9627 14.3137 30.1684 14.8301 30.1691ZM38.6075 32.9522C38.6075 33.1245 38.539 33.2897 38.4172 33.4115C38.2953 33.5334 38.1301 33.6018 37.9578 33.6018H24.2943C24.122 33.6018 23.9568 33.5334 23.8349 33.4115C23.7131 33.2897 23.6446 33.1245 23.6446 32.9522V30.7752C23.647 29.3108 24.0792 27.8793 24.8876 26.6583C25.696 25.4373 26.845 24.4804 28.1922 23.9064C29.0984 24.3759 30.1041 24.621 31.1248 24.621C32.1454 24.621 33.1511 24.3759 34.0573 23.9064C35.4045 24.4804 36.5536 25.4372 37.362 26.6582C38.1704 27.8793 38.6026 29.3108 38.6049 30.7752L38.6075 32.9522ZM48.0703 26.0431V28.2201C48.0703 28.3924 48.0019 28.5576 47.88 28.6795C47.7582 28.8013 47.5929 28.8698 47.4207 28.8698H39.695C39.4192 27.6454 38.885 26.4942 38.1282 25.4931C37.3713 24.492 36.4093 23.6642 35.3066 23.0651C36.4439 22.0891 37.2039 20.746 37.455 19.2685C37.5199 19.2367 37.5888 19.2036 37.6583 19.173C38.5642 19.643 39.5697 19.8883 40.5902 19.8883C41.6107 19.8883 42.6162 19.643 43.5221 19.173C44.8696 19.747 46.0189 20.7041 46.8274 21.9253C47.636 23.1466 48.0681 24.5784 48.0703 26.0431ZM35.4625 13.4619C35.459 12.3026 35.8473 11.1762 36.5643 10.2653C37.2813 9.35433 38.2851 8.71235 39.4128 8.44345C40.5404 8.17455 41.7259 8.2945 42.7768 8.78385C43.8277 9.27319 44.6826 10.1032 45.2026 11.1393C45.7226 12.1754 45.8773 13.3568 45.6417 14.4919C45.4061 15.627 44.7939 16.6492 43.9044 17.3927C43.0149 18.1362 41.9004 18.5574 40.7415 18.588C39.5826 18.6186 38.4474 18.2568 37.5199 17.5612C37.3622 15.99 36.6295 14.5324 35.4625 13.4684V13.4619ZM36.2531 18.1947C36.2531 19.2088 35.9524 20.2002 35.3889 21.0435C34.8255 21.8867 34.0247 22.5439 33.0877 22.932C32.1507 23.3201 31.1197 23.4217 30.125 23.2238C29.1304 23.026 28.2167 22.5376 27.4996 21.8205C26.7824 21.1034 26.2941 20.1897 26.0962 19.195C25.8984 18.2003 25.9999 17.1693 26.388 16.2324C26.7761 15.2954 27.4333 14.4946 28.2766 13.9311C29.1198 13.3677 30.1112 13.0669 31.1254 13.0669C32.485 13.0681 33.7885 13.6088 34.7499 14.5701C35.7113 15.5315 36.2519 16.8351 36.2531 18.1947ZM16.5335 13.4619C16.5487 12.1121 17.0956 10.8226 18.0556 9.87345C19.0155 8.92428 20.311 8.39193 21.6609 8.39193C23.0109 8.39193 24.3064 8.92428 25.2663 9.87345C26.2262 10.8226 26.7731 12.1121 26.7883 13.4619V13.4658C25.6213 14.5298 24.8886 15.9874 24.7309 17.5586C23.97 18.1309 23.0646 18.4796 22.1165 18.5657C21.1683 18.6518 20.215 18.4719 19.3635 18.0461C18.512 17.6202 17.796 16.9654 17.2961 16.1552C16.7962 15.3449 16.5321 14.4114 16.5335 13.4593V13.4619ZM14.1805 26.0431C14.1829 24.5787 14.615 23.1473 15.4234 21.9262C16.2318 20.7052 17.3809 19.7483 18.7281 19.1743C19.6339 19.6443 20.6395 19.8896 21.66 19.8896C22.6804 19.8896 23.686 19.6443 24.5918 19.1743C24.6614 19.2042 24.7276 19.2393 24.7952 19.2698C25.0462 20.7473 25.8063 22.0904 26.9436 23.0664C25.8408 23.6655 24.8788 24.4933 24.122 25.4944C23.3651 26.4955 22.8309 27.6467 22.5552 28.8711H14.8301C14.6579 28.8711 14.4926 28.8026 14.3708 28.6808C14.2489 28.5589 14.1805 28.3937 14.1805 28.2214V26.0431Z" fill="#3A2C60"/>
</svg>
