<svg width="2175" height="663" viewBox="0 0 2175 663" fill="none" xmlns="http://www.w3.org/2000/svg">
<path d="M634.638 317.319C634.638 492.57 492.57 634.638 317.319 634.638C142.069 634.638 0 492.57 0 317.319C0 142.069 142.069 0 317.319 0C492.57 0 634.638 142.069 634.638 317.319Z" fill="white"/>
<path fill-rule="evenodd" clip-rule="evenodd" d="M321.529 608.679C482.063 608.679 612.891 478.069 612.891 317.989C612.891 157.909 482.063 27.2163 321.529 27.2163C160.994 27.2163 30.1665 157.826 30.1665 317.989C30.1665 478.153 161.078 608.679 321.529 608.679Z" fill="#B1D7F5"/>
<path d="M337.053 16.2481C333.025 11.727 327.235 9.13159 321.193 9.13159C255.066 9.29904 192.966 29.3928 139.343 68.1569C73.132 116.633 29.327 187.547 16.1519 268.508C15.1449 274.62 14.3896 280.732 13.8022 286.927C12.0399 305.347 32.8515 316.984 47.621 305.933C52.3204 302.333 55.3415 297.142 55.9289 291.197C58.1107 269.094 62.978 247.577 70.3627 227.149C93.2723 242.889 123.231 243.977 141.945 244.647C140.854 246.489 139.259 248.582 136.742 250.842C124.238 262.313 115.007 275.122 109.72 289.355C104.265 304.175 103.175 320.166 107.287 337.497C112.238 358.428 126.755 371.07 144.462 386.643C155.959 396.689 169.134 408.243 180.379 423.732C191.288 438.803 194.393 456.05 197.246 471.455C201.358 493.893 204.967 513.652 224.352 529.559C236.184 539.271 250.87 543.625 265.555 542.788C273.779 542.369 282.003 540.276 289.807 536.592C290.479 536.341 291.066 536.09 291.738 535.755C299.794 531.652 307.346 525.708 313.808 517.922C325.556 503.605 333.025 483.511 331.598 458.143C330.759 443.156 332.689 424.737 335.962 405.648C339.319 385.889 343.934 365.879 348.298 348.046L348.466 347.209C353.417 327.199 359.543 301.663 354.76 280.648C348.298 252.433 328.41 234.767 280.241 246.656C269.08 249.419 259.094 254.777 249.359 259.968C240.967 264.406 232.911 268.759 229.471 268.592C226.45 268.424 244.828 243.893 252.632 233.595C253.135 233.093 253.639 232.507 254.142 231.921C254.226 231.837 279.318 201.445 286.451 160.421C290.395 137.564 287.374 119.982 277.472 101.73C270.506 88.9205 260.52 76.613 247.177 61.8776C270.926 55.0123 295.766 51.5796 321.277 51.4959C339.403 51.4122 349.137 29.8951 337.053 16.2481ZM244.66 153.22C239.457 183.194 221.331 205.129 221.331 205.213C220.324 206.469 219.484 207.808 218.813 209.148C212.687 220.032 165.861 307.524 227.457 310.538C242.394 311.291 255.485 304.258 269.164 296.974C276.548 293.039 284.101 289.021 290.311 287.514C306.675 283.495 312.549 285.504 313.472 289.774C316.074 301.244 311.29 321.254 307.346 336.994L307.178 337.832C302.563 356.837 297.612 378.019 294.171 398.531C290.479 420.3 288.297 441.817 289.304 460.32C290.059 474.134 286.619 484.348 281.08 491.046C278.646 493.977 275.625 496.321 272.437 497.995L271.262 498.581C268.66 499.754 265.891 500.423 263.122 500.591C258.674 500.842 254.31 499.67 251.037 496.907C243.653 490.795 241.303 478.237 238.702 463.92C235.093 443.993 230.981 421.807 214.533 399.034C200.519 379.61 185.33 366.381 172.239 354.828C160.155 344.278 150.252 335.655 148.49 327.868C146.392 318.994 146.812 310.956 149.497 303.84C152.35 296.137 157.805 288.853 165.441 281.82C174.588 273.448 180.127 264.322 182.98 255.615C185.75 247.494 186.085 239.707 184.994 232.926C183.652 225.055 180.211 218.19 175.596 213.167C171.987 209.232 167.455 206.301 162.42 204.627C157.301 202.952 151.343 202.701 143.539 202.45C127.595 201.864 99.4822 200.859 88.8246 187.045C106.615 155.481 130.867 127.601 160.574 105.079C174.588 94.53 189.442 85.4878 204.799 77.9526L205.135 78.3712C221.834 96.5393 233.834 109.851 240.128 121.573C245.331 131.201 246.842 140.662 244.66 153.22Z" fill="black"/>
<path d="M573.617 291.7C578.988 295.049 583.688 299.151 587.38 303.924C587.632 308.361 587.716 312.798 587.716 317.236C587.632 343.86 583.939 369.145 576.219 394.68C572.61 406.82 580.247 419.379 592.751 421.723C603.324 423.649 613.73 417.37 616.835 407.072C625.73 377.601 630.094 348.13 630.094 317.32C630.094 311.543 629.926 305.849 629.591 300.156C629.926 297.561 629.758 294.882 629.087 292.286C623.716 226.228 597.87 164.942 553.561 114.289C522.092 78.6227 483.909 51.1613 439.937 32.742C424.496 26.1278 407.712 39.6074 410.901 56.101C411.656 59.9523 413.335 63.385 415.852 66.1479C407.88 70.5015 400.663 75.19 394.034 80.1298C378.928 91.5162 367.348 103.991 358.536 116.215C331.431 153.974 329.837 174.068 347.711 186.878C360.299 195.92 378.425 193.408 403.097 190.059C422.901 187.38 448.244 183.864 474.595 185.622C480.972 186.04 489.112 189.055 497.336 192.152C516.553 199.353 536.526 206.888 560.023 199.353C564.051 207.474 567.659 215.762 570.932 224.386C573.701 231.837 576.135 239.373 578.233 246.824C570.177 243.559 561.701 241.047 553.142 239.205C538.624 236.191 524.693 235.019 511.602 235.689C489.532 236.861 469.895 243.224 454.37 255.113C438.258 267.42 426.929 285.17 422.062 308.612C419.88 318.994 419.041 330.464 419.712 343.023C420.552 359.349 423.657 376.177 426.929 393.592C437.839 452.115 450.51 519.931 356.774 576.612C354.592 577.952 352.746 579.543 351.32 581.385C341.417 582.473 331.431 583.059 321.277 583.059C271.262 582.892 224.436 569.747 181.722 543.709C152.77 525.792 127.427 502.852 107.119 475.474C100.993 467.185 89.9999 464.59 80.685 469.111C68.8526 475.055 65.2442 489.958 73.0485 500.591C107.707 547.058 154.029 582.557 207.988 603.906C244.576 618.223 282.004 625.172 321.277 625.34C377.921 625.172 431.209 610.521 479.881 581.636C494.231 573.012 493.392 551.914 478.287 544.546C471.741 541.448 464.273 541.7 458.063 545.383C455.294 547.058 452.608 548.649 449.755 550.156C488.861 495.149 478.119 437.631 468.469 385.973C465.531 369.898 462.594 354.493 461.923 340.846C461.42 331.887 462.007 323.934 463.434 316.985C466.119 304.175 471.909 294.798 480.049 288.518C488.693 281.904 500.273 278.388 513.784 277.634C523.351 277.132 533.84 278.053 544.75 280.314C555.072 282.658 565.058 286.342 573.617 291.7ZM512.274 152.718C500.945 148.448 489.952 144.346 477.28 143.509C446.986 141.583 419.209 145.351 397.558 148.281C388.075 149.537 382.285 155.732 393.027 140.83C399.74 131.536 408.3 122.159 419.377 113.87C430.706 105.331 444.804 97.7118 462.427 92.0185L462.678 91.9348C491.21 109.768 515.966 132.625 535.771 159.5C527.966 158.579 519.994 155.649 512.274 152.718Z" fill="black"/>
<path fill-rule="evenodd" clip-rule="evenodd" d="M172.239 354.911C185.414 366.465 200.519 379.693 214.534 399.117C230.982 421.89 235.01 444.077 238.702 464.003C241.303 478.32 243.653 490.879 251.038 496.99C254.311 499.67 258.674 500.926 263.122 500.674C265.891 500.507 268.577 499.837 271.262 498.665L272.437 498.079C275.626 496.404 278.647 494.144 281.08 491.13C286.619 484.432 290.06 474.218 289.304 460.403C288.297 441.9 290.479 420.383 294.172 398.615C297.612 378.103 302.563 356.92 307.179 337.915L307.347 337.078C311.207 321.338 316.074 301.328 313.473 289.858C312.466 285.504 306.675 283.578 290.311 287.597C284.101 289.104 276.549 293.207 269.164 297.058C255.485 304.342 242.394 311.375 227.457 310.621C165.861 307.523 212.687 220.116 218.813 209.231C219.485 207.892 220.324 206.552 221.331 205.296C221.415 205.213 239.457 183.277 244.66 153.304C246.842 140.662 245.331 131.201 240.129 121.74C233.751 110.019 221.834 96.7066 205.135 78.5385L204.799 78.1199C189.358 85.5713 174.589 94.6135 160.575 105.246C130.868 127.768 106.615 155.648 88.825 187.212C99.4825 201.027 127.595 202.031 143.539 202.617C151.344 202.868 157.302 203.12 162.421 204.794C167.456 206.469 171.987 209.399 175.596 213.334C180.211 218.274 183.652 225.139 184.995 233.093C186.169 239.874 185.75 247.661 182.981 255.782C180.043 264.489 174.505 273.615 165.442 281.988C157.805 289.02 152.351 296.304 149.497 304.007C146.812 311.123 146.392 319.077 148.49 328.036C150.337 335.738 160.155 344.362 172.239 354.911Z" fill="#71A42D"/>
<path fill-rule="evenodd" clip-rule="evenodd" d="M513.784 277.802C500.273 278.472 488.609 282.072 480.049 288.686C471.909 294.882 466.119 304.342 463.433 317.152C462.007 324.101 461.419 332.055 461.923 341.013C462.594 354.744 465.531 370.149 468.468 386.141C478.119 437.798 488.86 495.317 449.755 550.323C452.608 548.816 455.377 547.225 458.063 545.551C464.273 541.783 471.741 541.616 478.287 544.714C483.49 547.309 486.93 551.412 488.776 556.1C535.938 523.029 572.946 476.395 593.841 421.891C593.506 421.807 593.17 421.807 592.75 421.723C580.247 419.463 572.61 406.904 576.303 394.764C584.023 369.228 587.715 343.944 587.799 317.32C587.799 312.799 587.632 308.361 587.464 304.008C583.771 299.235 579.072 295.133 573.701 291.784C565.142 286.342 555.155 282.742 544.834 280.565C533.756 278.221 523.351 277.3 513.784 277.802Z" fill="#9AC95A"/>
<path fill-rule="evenodd" clip-rule="evenodd" d="M397.474 148.28C419.209 145.35 446.902 141.583 477.196 143.508C489.868 144.345 500.945 148.448 512.19 152.718C519.91 155.648 527.798 158.579 535.603 159.416C515.714 132.624 491.042 109.684 462.51 91.8506L462.343 92.018C444.804 97.7113 430.622 105.33 419.293 113.87C408.216 122.159 399.656 131.536 392.943 140.829C382.201 155.816 387.992 149.62 397.474 148.28Z" fill="#7DA990"/>
<path fill-rule="evenodd" clip-rule="evenodd" d="M221.331 205.213C221.415 205.129 239.457 183.194 244.66 153.22C246.842 140.578 245.331 131.117 240.128 121.657C235.849 113.703 228.883 104.912 219.569 94.3625C165.19 116.047 125.916 154.56 115.427 200.022C125.413 201.864 135.819 202.199 143.455 202.534C151.26 202.785 157.218 203.036 162.337 204.711C167.372 206.385 171.903 209.315 175.512 213.25C180.127 218.19 183.568 225.056 184.911 233.009C186.085 239.791 185.666 247.577 182.897 255.698C179.959 264.406 174.421 273.532 165.358 281.904C157.721 288.937 152.267 296.221 149.413 303.923C148.994 305.012 148.658 306.184 148.322 307.356C181.973 342.771 236.436 367.302 299.206 372.075C301.724 360.353 304.409 348.799 307.095 337.999L307.263 337.162C311.123 321.422 315.99 301.412 313.389 289.942C312.382 285.588 306.591 283.662 290.227 287.681C284.017 289.188 276.465 293.291 269.08 297.142C255.401 304.426 242.31 311.459 227.373 310.705C165.777 307.607 212.603 220.2 218.729 209.315C219.401 207.808 220.324 206.469 221.331 205.213ZM419.293 113.87C408.216 122.159 399.656 131.536 392.943 140.829C382.201 155.816 387.991 149.62 397.474 148.281C419.209 145.35 446.902 141.583 477.196 143.508C485.923 144.095 493.812 146.188 501.532 148.867C485.923 130.029 464.608 113.786 439.265 101.479C431.88 105.247 425.251 109.433 419.293 113.87Z" fill="#9AC95A"/>
<path fill-rule="evenodd" clip-rule="evenodd" d="M286.367 160.337C279.234 201.278 254.143 231.753 254.059 231.837C253.555 232.423 253.052 233.009 252.548 233.511C244.744 243.809 226.366 268.341 229.387 268.508C232.828 268.675 240.884 264.406 249.276 259.884C259.01 254.694 268.996 249.335 280.157 246.572C328.326 234.684 348.215 252.349 354.676 280.564C359.459 301.579 353.333 327.115 348.382 347.125L348.215 347.962C346.284 355.665 344.354 363.786 342.508 372.074C370.537 370.065 396.971 364.121 420.635 354.995C420.216 350.976 419.88 347.041 419.628 343.022C418.957 330.464 419.796 318.994 421.978 308.612C426.845 285.169 438.174 267.42 454.286 255.112C469.895 243.223 489.532 236.777 511.518 235.688C517.393 235.353 523.435 235.437 529.644 235.939C530.064 232.088 530.316 228.153 530.316 224.134C530.316 216.432 529.477 208.813 527.882 201.445C517.225 199.687 507.155 195.919 497.336 192.152C489.028 189.054 480.972 186.04 474.595 185.621C448.328 183.947 422.985 187.38 403.097 190.059C378.425 193.408 360.299 195.919 347.711 186.877C329.753 174.067 331.431 153.974 358.536 116.214C366.425 105.163 376.579 94.0274 389.586 83.5619C368.271 78.2873 345.361 75.5244 321.529 75.5244C301.472 75.5244 282.003 77.5338 263.625 81.3014C269.08 88.2504 273.612 94.8646 277.304 101.73C287.29 119.898 290.395 137.48 286.367 160.337ZM141.945 244.647C134.224 244.396 124.574 244.061 114.336 242.554C115.846 251.093 118.28 259.382 121.721 267.42C126 261.559 131.036 256.033 136.742 250.842C139.259 248.582 140.854 246.489 141.945 244.647Z" fill="#8FCEFF"/>
<path d="M852.255 73H851.72L851.423 73.4452L804.096 144.415L804.096 144.415C802.657 146.573 800.234 147.861 797.66 147.861C795.086 147.861 792.662 146.573 791.224 144.415L791.223 144.415L743.853 73.4448L743.556 73H743.021H706.638H705.638V74V256V257H706.638H743.021H744.021V256V131.896L768.525 168.612L768.526 168.613C775.038 178.338 785.952 184.191 797.66 184.191C809.367 184.191 820.281 178.338 826.793 168.613L826.794 168.611L851.255 131.9V256V257H852.255H888.638H889.638V256V74V73H888.638H852.255Z" fill="white" stroke="white" stroke-width="2"/>
<path d="M1902.13 73H1864.04L1787.83 257.921H1825.91L1841.17 220.954H1925L1940.26 257.921H1978.35L1902.13 73ZM1856.39 183.944L1883.07 119.219L1909.74 183.944H1856.39Z" fill="#9AC95A"/>
<path d="M1282.24 100.106C1264.97 83.3385 1241.17 73 1214.9 73H1119.64V257.921H1214.9C1267.48 257.921 1310.16 216.523 1310.16 165.439C1310.12 139.94 1299.47 116.83 1282.24 100.106ZM1214.9 220.954H1157.72V109.967H1214.86C1230.65 109.967 1244.92 116.179 1255.26 126.213C1265.6 136.247 1272 150.105 1272 165.439C1272.04 196.107 1246.45 220.954 1214.9 220.954Z" fill="#9AC95A"/>
<path d="M1414.37 134.944C1414.37 121.174 1425.54 109.967 1439.35 109.967H1562.33V73H1422.41C1397.56 73 1377.41 93.1558 1377.41 118.003V212.918C1377.41 237.765 1397.56 257.921 1422.41 257.921H1562.33V183.944V146.977H1488.35V183.944H1525.32V220.911H1439.31C1425.54 220.911 1414.33 209.747 1414.33 195.933V134.944H1414.37Z" fill="#9AC95A"/>
<path d="M1619.72 73H1586.09V257.921H1619.72V73Z" fill="#9AC95A"/>
<path d="M1360.59 73H1321.37V257.921H1360.59V73Z" fill="#9AC95A"/>
<path d="M1983.95 73V214.786C1983.95 238.634 2003.87 257.921 2028.4 257.921H2174.48V220.954H2036.5C2028.53 220.954 2022.09 214.699 2022.09 206.967V73H1983.95Z" fill="#9AC95A"/>
<path d="M1829.76 73H1753.54H1715.45H1639.23C1639.23 73 1639.23 110.01 1639.23 109.967C1639.23 109.967 1674.95 109.967 1715.45 109.967V257.921H1753.54V109.967C1794.04 109.967 1829.76 109.967 1829.76 109.967V73Z" fill="#9AC95A"/>
<mask id="path-18-outside-1_357_475" maskUnits="userSpaceOnUse" x="708.638" y="234" width="1451" height="429" fill="black">
<rect fill="white" x="708.638" y="234" width="1451" height="429"/>
<path d="M966.071 580.202C966.071 583.793 964.454 587.025 961.221 589.897C957.987 592.77 954.395 594.207 950.443 594.207C949.724 594.207 948.647 593.848 947.21 593.129C945.773 592.052 944.695 591.154 943.976 590.436C928.888 576.072 912.901 561.887 896.015 547.882C879.13 533.877 862.066 519.513 844.821 504.79C827.577 490.066 810.512 474.625 793.627 458.465C777.101 442.305 761.473 424.709 746.744 405.677C751.414 425.068 757.701 445.717 765.605 467.622C773.508 489.169 781.053 509.458 788.238 528.491C795.782 547.523 802.249 564.042 807.638 578.047C813.027 591.693 815.721 600.311 815.721 603.902C815.721 608.212 813.925 611.623 810.332 614.137C807.099 617.01 803.686 618.446 800.094 618.446C797.938 618.446 795.603 616.112 793.088 611.444C790.573 607.134 787.699 601.389 784.466 594.207C781.592 587.025 778.538 579.124 775.305 570.506C772.431 561.528 769.557 552.73 766.683 544.112C763.808 535.134 761.114 526.875 758.599 519.333C756.084 511.433 754.109 504.969 752.671 499.942L738.122 456.311C734.888 446.974 731.655 437.458 728.422 427.762C725.188 417.707 722.135 408.37 719.26 399.752C716.746 391.133 714.59 383.592 712.794 377.128C711.357 370.664 710.638 366.355 710.638 364.2C710.638 360.25 711.177 356.3 712.255 352.35C713.333 348.041 715.309 345.886 718.183 345.886C719.979 345.886 721.236 346.425 721.955 347.502C722.673 348.22 723.392 348.579 724.11 348.579L730.577 345.886C732.373 345.886 735.427 348.22 739.738 352.888C744.409 357.198 749.618 362.943 755.366 370.125C761.473 377.308 767.94 385.387 774.766 394.365C781.592 403.343 788.418 412.141 795.244 420.759C802.429 429.378 809.075 437.458 815.182 444.999C821.649 452.54 827.397 458.465 832.427 462.774C840.33 469.957 848.234 476.779 856.138 483.243C864.041 489.707 871.945 496.351 879.849 503.174C888.112 509.638 896.734 516.64 905.715 524.181C914.697 531.722 924.576 540.341 935.354 550.037C935.713 550.396 936.612 550.575 938.049 550.575C938.767 550.575 939.126 549.678 939.126 547.882C939.126 546.087 939.126 543.932 939.126 541.418C939.126 536.391 937.689 527.413 934.815 514.485C931.941 501.199 927.81 485.937 922.421 468.7C917.391 451.104 911.464 432.43 904.638 412.679C897.812 392.569 890.447 373.357 882.543 355.043C874.999 336.37 866.916 319.492 858.293 304.409C850.03 289.327 841.947 277.656 834.043 269.397C831.888 267.242 830.271 264.01 829.193 259.701C828.475 255.392 828.116 251.801 828.116 248.928C828.116 246.414 829.732 243.721 832.966 240.848C836.558 237.616 839.792 236 842.666 236C846.977 236 851.827 240.309 857.216 248.928C862.604 257.546 868.353 268.858 874.46 282.863C880.567 296.509 886.675 311.951 892.782 329.188C899.249 346.425 905.536 363.841 911.643 381.437C918.828 402.265 925.475 422.914 931.582 443.383C938.049 463.493 943.617 482.346 948.287 499.942C953.317 517.538 957.269 533.338 960.143 547.344C963.376 561.349 965.352 572.301 966.071 580.202Z"/>
<path d="M1159.88 462.236C1160.6 466.904 1160.96 470.675 1160.96 473.548C1161.32 476.42 1161.5 479.293 1161.5 482.166C1161.5 491.144 1160.24 501.737 1157.73 513.947C1155.57 526.156 1151.62 537.827 1145.87 548.959C1140.48 559.733 1133.12 569.069 1123.78 576.97C1114.8 584.511 1103.3 588.281 1089.29 588.281C1076.36 588.281 1064.14 584.69 1052.65 577.508C1041.15 569.967 1030.91 560.451 1021.93 548.959C1012.95 537.109 1005.76 524.002 1000.37 509.638C995.345 494.914 992.83 480.371 992.83 466.006C992.83 445.178 994.087 427.403 996.602 412.679C999.476 397.597 1003.43 384.49 1008.46 373.357C1008.46 372.28 1007.74 371.203 1006.3 370.125C1005.22 369.048 1004.69 367.612 1004.69 365.816C1004.69 364.021 1006.3 361.687 1009.54 358.814C1013.13 355.941 1017.26 353.248 1021.93 350.734C1026.96 347.861 1031.81 345.527 1036.48 343.731C1041.51 341.577 1045.28 340.499 1047.8 340.499C1049.23 340.499 1051.57 341.218 1054.8 342.654C1058.39 344.09 1062.89 344.809 1068.27 344.809C1070.07 344.809 1071.87 344.629 1073.66 344.27C1075.46 343.911 1077.44 343.731 1079.59 343.731C1087.14 343.731 1095.22 347.322 1103.84 354.504C1112.82 361.327 1121.08 370.305 1128.63 381.437C1136.53 392.57 1143.18 405.318 1148.57 419.682C1154.32 433.687 1158.09 447.872 1159.88 462.236ZM1138.33 483.243C1138.33 476.42 1136.89 466.725 1134.02 454.156C1131.14 441.228 1126.83 428.659 1121.08 416.45C1115.34 403.881 1108.33 392.929 1100.07 383.592C1092.16 374.255 1083.18 369.587 1073.12 369.587C1072.41 369.587 1070.97 369.587 1068.81 369.587C1067.02 369.228 1064.86 369.048 1062.35 369.048C1059.83 368.689 1057.5 368.51 1055.34 368.51C1053.19 368.15 1051.93 367.971 1051.57 367.971C1045.82 367.971 1040.79 370.664 1036.48 376.051C1032.53 381.437 1029.11 388.44 1026.24 397.058C1023.73 405.677 1021.75 415.552 1020.31 426.684C1018.88 437.817 1018.16 448.949 1018.16 460.081C1018.16 464.031 1019.24 471.752 1021.39 483.243C1023.55 494.376 1027.32 506.047 1032.71 518.256C1038.46 530.106 1046 540.7 1055.34 550.037C1064.68 559.373 1076.54 564.042 1090.91 564.042C1100.61 564.042 1108.51 561.169 1114.62 555.423C1120.73 549.319 1125.4 541.957 1128.63 533.338C1132.22 524.72 1134.74 515.922 1136.17 506.944C1137.61 497.608 1138.33 489.707 1138.33 483.243Z"/>
<path d="M1462.91 630.297C1463.63 632.451 1464.35 634.426 1465.07 636.222C1465.79 638.017 1466.32 639.992 1466.68 642.147C1467.4 644.302 1467.76 646.277 1467.76 648.072C1467.76 650.586 1466.86 652.561 1465.07 653.997C1463.27 655.793 1461.12 657.229 1458.6 658.307C1456.45 659.384 1454.29 660.102 1452.13 660.461C1449.98 660.821 1448.72 661 1448.36 661C1446.21 661 1442.25 654.357 1436.51 641.07C1430.76 628.142 1424.47 609.828 1417.65 586.127C1411.18 562.426 1404.53 534.236 1397.71 501.558C1390.88 468.879 1385.31 432.969 1381 393.826C1380.28 402.086 1378.85 411.782 1376.69 422.914C1374.89 433.687 1372.02 443.921 1368.07 453.617C1364.12 463.313 1358.91 471.572 1352.44 478.395C1346.33 484.859 1338.43 488.091 1328.73 488.091C1321.9 488.091 1314.18 484.5 1305.56 477.318C1296.93 470.136 1288.49 461.697 1280.23 452.001C1272.33 441.946 1264.96 431.891 1258.13 421.837C1251.67 411.423 1246.82 402.984 1243.58 396.52C1245.02 412.32 1247.36 431.353 1250.59 453.617C1254.18 475.882 1259.57 499.403 1266.76 524.181C1267.48 526.695 1268.19 528.67 1268.91 530.106C1269.99 531.184 1270.89 532.441 1271.61 533.877C1272.68 535.313 1273.4 536.929 1273.76 538.725C1274.48 540.161 1274.84 542.496 1274.84 545.728C1274.84 550.396 1273.04 553.807 1269.45 555.962C1265.86 558.117 1262.45 559.194 1259.21 559.194C1257.42 559.194 1255.08 556.501 1252.21 551.114C1249.33 545.368 1246.28 538.007 1243.05 529.029C1239.81 520.052 1236.58 510.176 1233.35 499.403C1230.11 488.271 1227.06 477.318 1224.18 466.545C1221.67 455.772 1219.51 445.717 1217.72 436.38C1215.92 426.684 1215.02 418.964 1215.02 413.218C1215.02 403.881 1215.38 397.417 1216.1 393.826C1217.18 390.235 1218.62 387.542 1220.41 385.747V352.888C1220.41 347.861 1221.67 344.09 1224.18 341.577C1227.06 338.704 1230.65 337.267 1234.96 337.267C1238.56 337.267 1242.69 340.32 1247.36 346.425C1252.03 352.529 1257.06 360.25 1262.45 369.587C1268.19 378.924 1274.12 388.978 1280.23 399.752C1286.34 410.525 1292.26 420.58 1298.01 429.916C1304.12 439.253 1309.87 446.974 1315.26 453.079C1321 459.183 1326.39 462.236 1331.42 462.236C1336.09 462.236 1340.58 457.927 1344.9 449.308C1349.21 440.33 1353.16 428.66 1356.75 414.295C1360.7 399.931 1364.12 383.592 1366.99 365.278C1369.86 346.963 1372.2 328.29 1374 309.257C1374 307.103 1373.82 304.768 1373.46 302.255C1373.1 299.382 1372.92 296.33 1372.92 293.098C1372.92 288.788 1373.82 284.12 1375.61 279.093C1377.77 274.065 1381.72 271.551 1387.47 271.551C1390.7 271.551 1393.22 272.449 1395.01 274.245C1397.17 276.04 1398.6 278.374 1399.32 281.247C1400.04 283.761 1400.4 286.454 1400.4 289.327C1400.76 291.841 1400.94 293.995 1400.94 295.791C1400.94 298.664 1400.58 303.512 1399.86 310.335C1399.5 316.798 1399.32 326.853 1399.32 340.499C1399.32 352.35 1400.22 366.175 1402.02 381.976C1403.81 397.417 1406.15 413.936 1409.02 431.532C1412.26 448.769 1415.85 466.725 1419.8 485.398C1424.11 503.712 1428.6 521.668 1433.27 539.264C1438.3 556.86 1443.15 573.558 1447.82 589.359C1452.85 604.8 1457.88 618.446 1462.91 630.297Z"/>
<path d="M1650.28 618.372C1650.64 619.808 1650.82 621.065 1650.82 622.142C1650.82 623.579 1650.82 624.656 1650.82 625.374C1650.82 628.965 1649.92 631.479 1648.12 632.915C1646.69 634.352 1643.63 635.07 1638.96 635.07C1634.65 635.07 1631.78 634.352 1630.34 632.915C1628.19 630.761 1625.31 625.195 1621.72 616.217C1618.13 607.239 1614.35 596.646 1610.4 584.436C1606.45 572.227 1602.5 559.119 1598.55 545.114C1594.95 531.109 1591.72 517.822 1588.85 505.254C1584.9 507.049 1579.51 509.024 1572.68 511.179C1565.85 512.974 1558.85 514.77 1551.66 516.565C1543.4 518.361 1534.78 520.336 1525.8 522.491C1522.56 537.932 1520.05 551.219 1518.25 562.351C1516.82 573.124 1515.38 582.102 1513.94 589.284C1512.86 596.107 1511.25 601.135 1509.09 604.367C1507.3 607.958 1504.24 609.753 1499.93 609.753C1497.06 609.753 1494.54 608.137 1492.39 604.905C1490.23 601.673 1489.15 596.825 1489.15 590.361C1489.15 587.129 1490.05 579.588 1491.85 567.738C1493.64 555.887 1495.62 542.78 1497.78 528.416C1499.93 513.693 1502.09 499.149 1504.24 484.785C1506.4 470.421 1507.83 459.109 1508.55 450.849C1508.91 446.54 1509.99 439.538 1511.79 429.842C1513.94 420.146 1516.1 410.271 1518.25 400.216C1520.41 389.802 1522.56 380.465 1524.72 372.206C1526.88 363.946 1528.31 359.278 1529.03 358.2C1534.78 344.914 1538.37 331.268 1539.81 317.263C1541.6 303.257 1542.86 290.509 1543.58 279.018C1544.66 267.168 1546.28 257.651 1548.43 250.469C1550.59 242.928 1555.08 239.157 1561.9 239.157C1563.7 239.157 1565.5 240.594 1567.29 243.467C1569.45 246.339 1571.42 249.751 1573.22 253.701C1575.02 257.651 1576.45 261.601 1577.53 265.552C1578.61 269.143 1579.33 272.015 1579.69 274.17C1580.05 276.325 1580.4 280.634 1580.76 287.098C1581.48 293.562 1582.02 300.744 1582.38 308.644C1583.1 316.185 1583.64 323.726 1584 331.268C1584.72 338.45 1585.25 344.016 1585.61 347.966C1586.69 359.816 1588.31 373.103 1590.46 387.827C1592.98 402.55 1595.49 416.375 1598.01 429.303C1600.52 442.231 1602.86 453.184 1605.01 462.161C1607.17 470.78 1608.79 475.089 1609.86 475.089C1611.3 475.089 1613.1 474.73 1615.25 474.012C1617.77 473.293 1620.1 472.934 1622.26 472.934C1625.13 472.934 1626.57 474.371 1626.57 477.244C1626.57 480.116 1625.85 482.451 1624.41 484.246C1622.98 486.042 1621.36 487.658 1619.56 489.094C1618.13 490.53 1616.69 491.787 1615.25 492.865C1614.17 493.942 1613.64 495.199 1613.64 496.635C1613.64 499.508 1615.25 506.87 1618.49 518.72L1627.11 550.501C1627.83 553.374 1629.44 558.222 1631.96 565.045C1634.47 571.868 1636.99 579.05 1639.5 586.591C1642.38 593.773 1644.89 600.416 1647.05 606.521C1649.2 612.985 1650.28 616.935 1650.28 618.372ZM1530.65 495.019C1532.8 495.019 1536.75 494.481 1542.5 493.403C1548.25 491.967 1554.18 490.351 1560.29 488.555C1566.39 486.76 1571.78 484.964 1576.45 483.169C1581.12 481.373 1583.46 479.937 1583.46 478.86C1583.46 477.782 1582.74 475.089 1581.3 470.78C1580.22 466.111 1578.79 460.366 1576.99 453.543C1575.55 446.361 1573.94 438.281 1572.14 429.303C1570.35 420.326 1568.73 410.809 1567.29 400.754C1566.57 394.29 1565.68 385.492 1564.6 374.36C1563.52 363.228 1562.44 352.275 1561.36 341.502C1560.29 330.37 1559.39 320.854 1558.67 312.953C1557.95 305.053 1557.59 301.103 1557.59 301.103C1557.59 301.103 1557.05 303.796 1555.98 309.183C1554.9 314.21 1553.64 319.956 1552.2 326.42C1551.13 332.524 1550.05 338.45 1548.97 344.195C1548.25 349.582 1547.89 352.634 1547.89 353.353V368.435C1547.89 369.153 1547.35 372.385 1546.28 378.131C1545.56 383.517 1544.48 390.52 1543.04 399.138C1541.6 407.398 1539.99 416.555 1538.19 426.61C1536.75 436.306 1535.32 445.642 1533.88 454.62C1532.44 463.598 1531.19 471.677 1530.11 478.86C1529.39 485.683 1529.03 490.351 1529.03 492.865C1529.03 494.301 1529.57 495.019 1530.65 495.019Z"/>
<path d="M1896.15 439.612C1896.15 451.822 1893.99 463.493 1889.68 474.625C1885.37 485.757 1879.26 496.53 1871.36 506.944C1863.46 517.358 1854.11 527.593 1843.34 537.648C1832.92 547.343 1821.42 556.86 1808.85 566.196C1795.56 576.251 1780.11 585.947 1762.5 595.284C1744.9 604.621 1727.12 612.88 1709.15 620.062C1691.55 627.603 1674.84 633.529 1659.04 637.838C1643.23 642.147 1630.48 644.302 1620.78 644.302C1614.31 644.302 1609.64 643.404 1606.77 641.608C1603.53 640.172 1601.92 636.581 1601.92 630.835C1601.92 626.885 1603.35 622.217 1606.23 616.83C1609.1 611.444 1611.97 608.75 1614.85 608.75C1617.72 608.75 1619.88 609.648 1621.32 611.444C1622.39 613.239 1622.93 615.214 1622.93 617.369C1622.93 618.446 1622.93 619.344 1622.93 620.062C1622.57 620.78 1622.39 621.319 1622.39 621.678V622.755C1636.04 621.319 1654.37 617.01 1677.36 609.828C1699.99 603.005 1727.12 590.975 1758.73 573.738C1772.38 566.197 1785.86 557.398 1799.15 547.344C1812.44 536.929 1824.3 525.977 1834.71 514.485C1845.49 502.635 1854.11 490.425 1860.58 477.857C1867.05 464.929 1870.28 452.36 1870.28 440.151C1870.28 431.532 1865.79 422.734 1856.81 413.757C1848.19 404.42 1837.05 395.801 1823.4 387.901C1810.11 379.642 1795.56 372.639 1779.75 366.894C1763.94 360.789 1749.21 356.659 1735.56 354.504C1735.92 356.3 1736.46 360.789 1737.18 367.971C1737.89 374.794 1738.97 382.874 1740.41 392.21C1741.85 401.547 1743.46 411.602 1745.26 422.375C1747.41 432.789 1749.75 442.485 1752.26 451.463C1755.14 461.518 1756.94 469.059 1757.65 474.086C1758.73 478.755 1759.45 482.705 1759.81 485.937C1760.17 489.528 1760.71 494.196 1761.43 499.942C1762.5 505.328 1763.22 511.074 1763.58 517.179C1764.3 522.924 1764.84 528.491 1765.2 533.877C1765.92 538.905 1766.28 542.855 1766.28 545.728C1766.28 548.959 1765.56 552.371 1764.12 555.962C1763.04 559.553 1761.61 561.349 1759.81 561.349C1755.5 561.349 1752.44 559.912 1750.65 557.039C1749.21 553.807 1747.77 548.6 1746.34 541.418C1745.26 533.877 1743.82 524.181 1742.03 512.331C1740.23 500.48 1736.82 485.937 1731.79 468.7C1724.6 444.64 1719.57 422.016 1716.7 400.829C1713.82 379.283 1712.03 362.225 1711.31 349.657C1711.31 349.657 1710.41 349.657 1708.61 349.657C1707.18 349.297 1705.02 349.118 1702.15 349.118C1699.63 349.118 1696.58 349.118 1692.99 349.118C1689.75 348.759 1686.7 348.579 1683.83 348.579C1677.72 348.579 1672.15 349.836 1667.12 352.35C1662.09 354.504 1657.96 357.018 1654.73 359.891C1651.13 362.764 1648.26 365.457 1646.1 367.971C1643.59 370.125 1641.97 371.203 1641.25 371.203C1638.74 371.203 1635.33 370.664 1631.02 369.587C1626.34 368.15 1624.01 365.637 1624.01 362.046C1624.01 357.377 1626.34 352.709 1631.02 348.041C1635.33 343.013 1640.72 338.704 1647.18 335.113C1653.65 331.163 1660.65 328.11 1668.2 325.956C1675.74 323.442 1682.75 322.185 1689.22 322.185C1699.99 322.185 1712.57 323.621 1726.94 326.494C1741.31 329.367 1756.04 333.317 1771.13 338.345C1786.57 343.372 1801.66 349.477 1816.39 356.659C1831.48 363.841 1844.95 371.741 1856.81 380.36C1868.66 388.978 1878.18 398.315 1885.37 408.37C1892.55 418.425 1896.15 428.839 1896.15 439.612Z"/>
<path d="M2157.64 523.104C2157.64 539.264 2154.76 552.012 2149.02 561.349C2143.27 570.326 2134.83 578.765 2123.69 586.665C2120.81 588.461 2116.86 590.616 2111.83 593.129C2106.8 595.643 2101.23 597.977 2095.13 600.132C2089.02 602.286 2082.55 604.082 2075.73 605.518C2068.9 606.955 2062.61 607.673 2056.87 607.673C2040.7 607.673 2028.48 605.878 2020.22 602.286C2011.96 599.055 2007.83 595.104 2007.83 590.436C2007.83 585.409 2009.26 581.279 2012.14 578.047C2015.01 574.815 2017.53 573.019 2019.68 572.66L2025.61 576.97C2027.41 578.765 2029.92 580.74 2033.16 582.895C2036.39 584.69 2041.6 585.588 2048.78 585.588C2055.61 585.588 2063.87 584.511 2073.57 582.356C2083.27 579.842 2092.43 576.251 2101.06 571.583C2110.04 566.556 2117.58 560.451 2123.69 553.269C2130.15 546.087 2133.39 537.827 2133.39 528.491C2133.39 520.231 2127.1 512.69 2114.53 505.867C2102.31 498.685 2082.91 493.837 2056.33 491.323C2042.68 490.246 2029.2 488.63 2015.91 486.475C2002.62 483.962 1990.58 480.73 1979.81 476.779C1969.39 472.47 1960.94 467.263 1954.48 461.158C1948.01 454.695 1944.78 446.794 1944.78 437.458C1944.78 428.48 1947.29 419.861 1952.32 411.602C1957.35 403.343 1963.46 395.801 1970.64 388.978C1978.19 381.796 1985.91 375.512 1993.82 370.125C2001.72 364.739 2008.37 360.25 2013.76 356.659C2018.07 354.145 2023.99 350.913 2031.54 346.963C2039.44 342.654 2047.71 338.704 2056.33 335.113C2065.31 331.163 2074.11 327.931 2082.73 325.417C2091.71 322.544 2099.26 321.108 2105.37 321.108C2112.55 321.108 2117.4 323.083 2119.92 327.033C2122.43 330.983 2123.69 336.549 2123.69 343.731C2123.69 349.836 2122.97 356.3 2121.53 363.123C2120.1 369.946 2118.48 376.589 2116.68 383.053C2114.89 389.517 2113.09 395.263 2111.29 400.29C2109.86 404.959 2108.78 408.011 2108.06 409.447C2106.62 412.679 2105.01 414.834 2103.21 415.911C2101.41 416.989 2100.16 417.527 2099.44 417.527C2098 417.527 2097.28 416.629 2097.28 414.834C2097.28 413.757 2097.46 411.782 2097.82 408.909C2098.54 405.677 2099.26 401.906 2099.98 397.597C2101.06 393.288 2101.77 388.619 2102.13 383.592C2102.85 378.564 2103.21 373.537 2103.21 368.51C2103.21 360.609 2102.85 354.864 2102.13 351.273C2101.41 347.681 2098.54 345.886 2093.51 345.886C2088.48 345.886 2081.66 347.322 2073.03 350.195C2064.41 352.709 2055.61 355.941 2046.63 359.891C2036.93 364.2 2027.41 369.766 2018.07 376.589C2009.09 383.412 2001 390.415 1993.82 397.597C1986.63 404.779 1980.7 411.782 1976.03 418.605C1971.72 425.068 1969.57 430.275 1969.57 434.226C1969.57 438.535 1972.44 442.665 1978.19 446.615C1984.3 450.206 1991.84 453.438 2000.82 456.311C2010.16 459.183 2020.4 461.697 2031.54 463.852C2042.68 466.006 2053.63 467.622 2064.41 468.7C2073.39 469.777 2083.27 471.213 2094.05 473.009C2104.83 474.804 2114.89 477.677 2124.23 481.627C2133.57 485.578 2141.47 490.964 2147.94 497.787C2154.4 504.251 2157.64 512.69 2157.64 523.104Z"/>
</mask>
<path d="M966.071 580.202C966.071 583.793 964.454 587.025 961.221 589.897C957.987 592.77 954.395 594.207 950.443 594.207C949.724 594.207 948.647 593.848 947.21 593.129C945.773 592.052 944.695 591.154 943.976 590.436C928.888 576.072 912.901 561.887 896.015 547.882C879.13 533.877 862.066 519.513 844.821 504.79C827.577 490.066 810.512 474.625 793.627 458.465C777.101 442.305 761.473 424.709 746.744 405.677C751.414 425.068 757.701 445.717 765.605 467.622C773.508 489.169 781.053 509.458 788.238 528.491C795.782 547.523 802.249 564.042 807.638 578.047C813.027 591.693 815.721 600.311 815.721 603.902C815.721 608.212 813.925 611.623 810.332 614.137C807.099 617.01 803.686 618.446 800.094 618.446C797.938 618.446 795.603 616.112 793.088 611.444C790.573 607.134 787.699 601.389 784.466 594.207C781.592 587.025 778.538 579.124 775.305 570.506C772.431 561.528 769.557 552.73 766.683 544.112C763.808 535.134 761.114 526.875 758.599 519.333C756.084 511.433 754.109 504.969 752.671 499.942L738.122 456.311C734.888 446.974 731.655 437.458 728.422 427.762C725.188 417.707 722.135 408.37 719.26 399.752C716.746 391.133 714.59 383.592 712.794 377.128C711.357 370.664 710.638 366.355 710.638 364.2C710.638 360.25 711.177 356.3 712.255 352.35C713.333 348.041 715.309 345.886 718.183 345.886C719.979 345.886 721.236 346.425 721.955 347.502C722.673 348.22 723.392 348.579 724.11 348.579L730.577 345.886C732.373 345.886 735.427 348.22 739.738 352.888C744.409 357.198 749.618 362.943 755.366 370.125C761.473 377.308 767.94 385.387 774.766 394.365C781.592 403.343 788.418 412.141 795.244 420.759C802.429 429.378 809.075 437.458 815.182 444.999C821.649 452.54 827.397 458.465 832.427 462.774C840.33 469.957 848.234 476.779 856.138 483.243C864.041 489.707 871.945 496.351 879.849 503.174C888.112 509.638 896.734 516.64 905.715 524.181C914.697 531.722 924.576 540.341 935.354 550.037C935.713 550.396 936.612 550.575 938.049 550.575C938.767 550.575 939.126 549.678 939.126 547.882C939.126 546.087 939.126 543.932 939.126 541.418C939.126 536.391 937.689 527.413 934.815 514.485C931.941 501.199 927.81 485.937 922.421 468.7C917.391 451.104 911.464 432.43 904.638 412.679C897.812 392.569 890.447 373.357 882.543 355.043C874.999 336.37 866.916 319.492 858.293 304.409C850.03 289.327 841.947 277.656 834.043 269.397C831.888 267.242 830.271 264.01 829.193 259.701C828.475 255.392 828.116 251.801 828.116 248.928C828.116 246.414 829.732 243.721 832.966 240.848C836.558 237.616 839.792 236 842.666 236C846.977 236 851.827 240.309 857.216 248.928C862.604 257.546 868.353 268.858 874.46 282.863C880.567 296.509 886.675 311.951 892.782 329.188C899.249 346.425 905.536 363.841 911.643 381.437C918.828 402.265 925.475 422.914 931.582 443.383C938.049 463.493 943.617 482.346 948.287 499.942C953.317 517.538 957.269 533.338 960.143 547.344C963.376 561.349 965.352 572.301 966.071 580.202Z" fill="white"/>
<path d="M1159.88 462.236C1160.6 466.904 1160.96 470.675 1160.96 473.548C1161.32 476.42 1161.5 479.293 1161.5 482.166C1161.5 491.144 1160.24 501.737 1157.73 513.947C1155.57 526.156 1151.62 537.827 1145.87 548.959C1140.48 559.733 1133.12 569.069 1123.78 576.97C1114.8 584.511 1103.3 588.281 1089.29 588.281C1076.36 588.281 1064.14 584.69 1052.65 577.508C1041.15 569.967 1030.91 560.451 1021.93 548.959C1012.95 537.109 1005.76 524.002 1000.37 509.638C995.345 494.914 992.83 480.371 992.83 466.006C992.83 445.178 994.087 427.403 996.602 412.679C999.476 397.597 1003.43 384.49 1008.46 373.357C1008.46 372.28 1007.74 371.203 1006.3 370.125C1005.22 369.048 1004.69 367.612 1004.69 365.816C1004.69 364.021 1006.3 361.687 1009.54 358.814C1013.13 355.941 1017.26 353.248 1021.93 350.734C1026.96 347.861 1031.81 345.527 1036.48 343.731C1041.51 341.577 1045.28 340.499 1047.8 340.499C1049.23 340.499 1051.57 341.218 1054.8 342.654C1058.39 344.09 1062.89 344.809 1068.27 344.809C1070.07 344.809 1071.87 344.629 1073.66 344.27C1075.46 343.911 1077.44 343.731 1079.59 343.731C1087.14 343.731 1095.22 347.322 1103.84 354.504C1112.82 361.327 1121.08 370.305 1128.63 381.437C1136.53 392.57 1143.18 405.318 1148.57 419.682C1154.32 433.687 1158.09 447.872 1159.88 462.236ZM1138.33 483.243C1138.33 476.42 1136.89 466.725 1134.02 454.156C1131.14 441.228 1126.83 428.659 1121.08 416.45C1115.34 403.881 1108.33 392.929 1100.07 383.592C1092.16 374.255 1083.18 369.587 1073.12 369.587C1072.41 369.587 1070.97 369.587 1068.81 369.587C1067.02 369.228 1064.86 369.048 1062.35 369.048C1059.83 368.689 1057.5 368.51 1055.34 368.51C1053.19 368.15 1051.93 367.971 1051.57 367.971C1045.82 367.971 1040.79 370.664 1036.48 376.051C1032.53 381.437 1029.11 388.44 1026.24 397.058C1023.73 405.677 1021.75 415.552 1020.31 426.684C1018.88 437.817 1018.16 448.949 1018.16 460.081C1018.16 464.031 1019.24 471.752 1021.39 483.243C1023.55 494.376 1027.32 506.047 1032.71 518.256C1038.46 530.106 1046 540.7 1055.34 550.037C1064.68 559.373 1076.54 564.042 1090.91 564.042C1100.61 564.042 1108.51 561.169 1114.62 555.423C1120.73 549.319 1125.4 541.957 1128.63 533.338C1132.22 524.72 1134.74 515.922 1136.17 506.944C1137.61 497.608 1138.33 489.707 1138.33 483.243Z" fill="white"/>
<path d="M1462.91 630.297C1463.63 632.451 1464.35 634.426 1465.07 636.222C1465.79 638.017 1466.32 639.992 1466.68 642.147C1467.4 644.302 1467.76 646.277 1467.76 648.072C1467.76 650.586 1466.86 652.561 1465.07 653.997C1463.27 655.793 1461.12 657.229 1458.6 658.307C1456.45 659.384 1454.29 660.102 1452.13 660.461C1449.98 660.821 1448.72 661 1448.36 661C1446.21 661 1442.25 654.357 1436.51 641.07C1430.76 628.142 1424.47 609.828 1417.65 586.127C1411.18 562.426 1404.53 534.236 1397.71 501.558C1390.88 468.879 1385.31 432.969 1381 393.826C1380.28 402.086 1378.85 411.782 1376.69 422.914C1374.89 433.687 1372.02 443.921 1368.07 453.617C1364.12 463.313 1358.91 471.572 1352.44 478.395C1346.33 484.859 1338.43 488.091 1328.73 488.091C1321.9 488.091 1314.18 484.5 1305.56 477.318C1296.93 470.136 1288.49 461.697 1280.23 452.001C1272.33 441.946 1264.96 431.891 1258.13 421.837C1251.67 411.423 1246.82 402.984 1243.58 396.52C1245.02 412.32 1247.36 431.353 1250.59 453.617C1254.18 475.882 1259.57 499.403 1266.76 524.181C1267.48 526.695 1268.19 528.67 1268.91 530.106C1269.99 531.184 1270.89 532.441 1271.61 533.877C1272.68 535.313 1273.4 536.929 1273.76 538.725C1274.48 540.161 1274.84 542.496 1274.84 545.728C1274.84 550.396 1273.04 553.807 1269.45 555.962C1265.86 558.117 1262.45 559.194 1259.21 559.194C1257.42 559.194 1255.08 556.501 1252.21 551.114C1249.33 545.368 1246.28 538.007 1243.05 529.029C1239.81 520.052 1236.58 510.176 1233.35 499.403C1230.11 488.271 1227.06 477.318 1224.18 466.545C1221.67 455.772 1219.51 445.717 1217.72 436.38C1215.92 426.684 1215.02 418.964 1215.02 413.218C1215.02 403.881 1215.38 397.417 1216.1 393.826C1217.18 390.235 1218.62 387.542 1220.41 385.747V352.888C1220.41 347.861 1221.67 344.09 1224.18 341.577C1227.06 338.704 1230.65 337.267 1234.96 337.267C1238.56 337.267 1242.69 340.32 1247.36 346.425C1252.03 352.529 1257.06 360.25 1262.45 369.587C1268.19 378.924 1274.12 388.978 1280.23 399.752C1286.34 410.525 1292.26 420.58 1298.01 429.916C1304.12 439.253 1309.87 446.974 1315.26 453.079C1321 459.183 1326.39 462.236 1331.42 462.236C1336.09 462.236 1340.58 457.927 1344.9 449.308C1349.21 440.33 1353.16 428.66 1356.75 414.295C1360.7 399.931 1364.12 383.592 1366.99 365.278C1369.86 346.963 1372.2 328.29 1374 309.257C1374 307.103 1373.82 304.768 1373.46 302.255C1373.1 299.382 1372.92 296.33 1372.92 293.098C1372.92 288.788 1373.82 284.12 1375.61 279.093C1377.77 274.065 1381.72 271.551 1387.47 271.551C1390.7 271.551 1393.22 272.449 1395.01 274.245C1397.17 276.04 1398.6 278.374 1399.32 281.247C1400.04 283.761 1400.4 286.454 1400.4 289.327C1400.76 291.841 1400.94 293.995 1400.94 295.791C1400.94 298.664 1400.58 303.512 1399.86 310.335C1399.5 316.798 1399.32 326.853 1399.32 340.499C1399.32 352.35 1400.22 366.175 1402.02 381.976C1403.81 397.417 1406.15 413.936 1409.02 431.532C1412.26 448.769 1415.85 466.725 1419.8 485.398C1424.11 503.712 1428.6 521.668 1433.27 539.264C1438.3 556.86 1443.15 573.558 1447.82 589.359C1452.85 604.8 1457.88 618.446 1462.91 630.297Z" fill="white"/>
<path d="M1650.28 618.372C1650.64 619.808 1650.82 621.065 1650.82 622.142C1650.82 623.579 1650.82 624.656 1650.82 625.374C1650.82 628.965 1649.92 631.479 1648.12 632.915C1646.69 634.352 1643.63 635.07 1638.96 635.07C1634.65 635.07 1631.78 634.352 1630.34 632.915C1628.19 630.761 1625.31 625.195 1621.72 616.217C1618.13 607.239 1614.35 596.646 1610.4 584.436C1606.45 572.227 1602.5 559.119 1598.55 545.114C1594.95 531.109 1591.72 517.822 1588.85 505.254C1584.9 507.049 1579.51 509.024 1572.68 511.179C1565.85 512.974 1558.85 514.77 1551.66 516.565C1543.4 518.361 1534.78 520.336 1525.8 522.491C1522.56 537.932 1520.05 551.219 1518.25 562.351C1516.82 573.124 1515.38 582.102 1513.94 589.284C1512.86 596.107 1511.25 601.135 1509.09 604.367C1507.3 607.958 1504.24 609.753 1499.93 609.753C1497.06 609.753 1494.54 608.137 1492.39 604.905C1490.23 601.673 1489.15 596.825 1489.15 590.361C1489.15 587.129 1490.05 579.588 1491.85 567.738C1493.64 555.887 1495.62 542.78 1497.78 528.416C1499.93 513.693 1502.09 499.149 1504.24 484.785C1506.4 470.421 1507.83 459.109 1508.55 450.849C1508.91 446.54 1509.99 439.538 1511.79 429.842C1513.94 420.146 1516.1 410.271 1518.25 400.216C1520.41 389.802 1522.56 380.465 1524.72 372.206C1526.88 363.946 1528.31 359.278 1529.03 358.2C1534.78 344.914 1538.37 331.268 1539.81 317.263C1541.6 303.257 1542.86 290.509 1543.58 279.018C1544.66 267.168 1546.28 257.651 1548.43 250.469C1550.59 242.928 1555.08 239.157 1561.9 239.157C1563.7 239.157 1565.5 240.594 1567.29 243.467C1569.45 246.339 1571.42 249.751 1573.22 253.701C1575.02 257.651 1576.45 261.601 1577.53 265.552C1578.61 269.143 1579.33 272.015 1579.69 274.17C1580.05 276.325 1580.4 280.634 1580.76 287.098C1581.48 293.562 1582.02 300.744 1582.38 308.644C1583.1 316.185 1583.64 323.726 1584 331.268C1584.72 338.45 1585.25 344.016 1585.61 347.966C1586.69 359.816 1588.31 373.103 1590.46 387.827C1592.98 402.55 1595.49 416.375 1598.01 429.303C1600.52 442.231 1602.86 453.184 1605.01 462.161C1607.17 470.78 1608.79 475.089 1609.86 475.089C1611.3 475.089 1613.1 474.73 1615.25 474.012C1617.77 473.293 1620.1 472.934 1622.26 472.934C1625.13 472.934 1626.57 474.371 1626.57 477.244C1626.57 480.116 1625.85 482.451 1624.41 484.246C1622.98 486.042 1621.36 487.658 1619.56 489.094C1618.13 490.53 1616.69 491.787 1615.25 492.865C1614.17 493.942 1613.64 495.199 1613.64 496.635C1613.64 499.508 1615.25 506.87 1618.49 518.72L1627.11 550.501C1627.83 553.374 1629.44 558.222 1631.96 565.045C1634.47 571.868 1636.99 579.05 1639.5 586.591C1642.38 593.773 1644.89 600.416 1647.05 606.521C1649.2 612.985 1650.28 616.935 1650.28 618.372ZM1530.65 495.019C1532.8 495.019 1536.75 494.481 1542.5 493.403C1548.25 491.967 1554.18 490.351 1560.29 488.555C1566.39 486.76 1571.78 484.964 1576.45 483.169C1581.12 481.373 1583.46 479.937 1583.46 478.86C1583.46 477.782 1582.74 475.089 1581.3 470.78C1580.22 466.111 1578.79 460.366 1576.99 453.543C1575.55 446.361 1573.94 438.281 1572.14 429.303C1570.35 420.326 1568.73 410.809 1567.29 400.754C1566.57 394.29 1565.68 385.492 1564.6 374.36C1563.52 363.228 1562.44 352.275 1561.36 341.502C1560.29 330.37 1559.39 320.854 1558.67 312.953C1557.95 305.053 1557.59 301.103 1557.59 301.103C1557.59 301.103 1557.05 303.796 1555.98 309.183C1554.9 314.21 1553.64 319.956 1552.2 326.42C1551.13 332.524 1550.05 338.45 1548.97 344.195C1548.25 349.582 1547.89 352.634 1547.89 353.353V368.435C1547.89 369.153 1547.35 372.385 1546.28 378.131C1545.56 383.517 1544.48 390.52 1543.04 399.138C1541.6 407.398 1539.99 416.555 1538.19 426.61C1536.75 436.306 1535.32 445.642 1533.88 454.62C1532.44 463.598 1531.19 471.677 1530.11 478.86C1529.39 485.683 1529.03 490.351 1529.03 492.865C1529.03 494.301 1529.57 495.019 1530.65 495.019Z" fill="white"/>
<path d="M1896.15 439.612C1896.15 451.822 1893.99 463.493 1889.68 474.625C1885.37 485.757 1879.26 496.53 1871.36 506.944C1863.46 517.358 1854.11 527.593 1843.34 537.648C1832.92 547.343 1821.42 556.86 1808.85 566.196C1795.56 576.251 1780.11 585.947 1762.5 595.284C1744.9 604.621 1727.12 612.88 1709.15 620.062C1691.55 627.603 1674.84 633.529 1659.04 637.838C1643.23 642.147 1630.48 644.302 1620.78 644.302C1614.31 644.302 1609.64 643.404 1606.77 641.608C1603.53 640.172 1601.92 636.581 1601.92 630.835C1601.92 626.885 1603.35 622.217 1606.23 616.83C1609.1 611.444 1611.97 608.75 1614.85 608.75C1617.72 608.75 1619.88 609.648 1621.32 611.444C1622.39 613.239 1622.93 615.214 1622.93 617.369C1622.93 618.446 1622.93 619.344 1622.93 620.062C1622.57 620.78 1622.39 621.319 1622.39 621.678V622.755C1636.04 621.319 1654.37 617.01 1677.36 609.828C1699.99 603.005 1727.12 590.975 1758.73 573.738C1772.38 566.197 1785.86 557.398 1799.15 547.344C1812.44 536.929 1824.3 525.977 1834.71 514.485C1845.49 502.635 1854.11 490.425 1860.58 477.857C1867.05 464.929 1870.28 452.36 1870.28 440.151C1870.28 431.532 1865.79 422.734 1856.81 413.757C1848.19 404.42 1837.05 395.801 1823.4 387.901C1810.11 379.642 1795.56 372.639 1779.75 366.894C1763.94 360.789 1749.21 356.659 1735.56 354.504C1735.92 356.3 1736.46 360.789 1737.18 367.971C1737.89 374.794 1738.97 382.874 1740.41 392.21C1741.85 401.547 1743.46 411.602 1745.26 422.375C1747.41 432.789 1749.75 442.485 1752.26 451.463C1755.14 461.518 1756.94 469.059 1757.65 474.086C1758.73 478.755 1759.45 482.705 1759.81 485.937C1760.17 489.528 1760.71 494.196 1761.43 499.942C1762.5 505.328 1763.22 511.074 1763.58 517.179C1764.3 522.924 1764.84 528.491 1765.2 533.877C1765.92 538.905 1766.28 542.855 1766.28 545.728C1766.28 548.959 1765.56 552.371 1764.12 555.962C1763.04 559.553 1761.61 561.349 1759.81 561.349C1755.5 561.349 1752.44 559.912 1750.65 557.039C1749.21 553.807 1747.77 548.6 1746.34 541.418C1745.26 533.877 1743.82 524.181 1742.03 512.331C1740.23 500.48 1736.82 485.937 1731.79 468.7C1724.6 444.64 1719.57 422.016 1716.7 400.829C1713.82 379.283 1712.03 362.225 1711.31 349.657C1711.31 349.657 1710.41 349.657 1708.61 349.657C1707.18 349.297 1705.02 349.118 1702.15 349.118C1699.63 349.118 1696.58 349.118 1692.99 349.118C1689.75 348.759 1686.7 348.579 1683.83 348.579C1677.72 348.579 1672.15 349.836 1667.12 352.35C1662.09 354.504 1657.96 357.018 1654.73 359.891C1651.13 362.764 1648.26 365.457 1646.1 367.971C1643.59 370.125 1641.97 371.203 1641.25 371.203C1638.74 371.203 1635.33 370.664 1631.02 369.587C1626.34 368.15 1624.01 365.637 1624.01 362.046C1624.01 357.377 1626.34 352.709 1631.02 348.041C1635.33 343.013 1640.72 338.704 1647.18 335.113C1653.65 331.163 1660.65 328.11 1668.2 325.956C1675.74 323.442 1682.75 322.185 1689.22 322.185C1699.99 322.185 1712.57 323.621 1726.94 326.494C1741.31 329.367 1756.04 333.317 1771.13 338.345C1786.57 343.372 1801.66 349.477 1816.39 356.659C1831.48 363.841 1844.95 371.741 1856.81 380.36C1868.66 388.978 1878.18 398.315 1885.37 408.37C1892.55 418.425 1896.15 428.839 1896.15 439.612Z" fill="white"/>
<path d="M2157.64 523.104C2157.64 539.264 2154.76 552.012 2149.02 561.349C2143.27 570.326 2134.83 578.765 2123.69 586.665C2120.81 588.461 2116.86 590.616 2111.83 593.129C2106.8 595.643 2101.23 597.977 2095.13 600.132C2089.02 602.286 2082.55 604.082 2075.73 605.518C2068.9 606.955 2062.61 607.673 2056.87 607.673C2040.7 607.673 2028.48 605.878 2020.22 602.286C2011.96 599.055 2007.83 595.104 2007.83 590.436C2007.83 585.409 2009.26 581.279 2012.14 578.047C2015.01 574.815 2017.53 573.019 2019.68 572.66L2025.61 576.97C2027.41 578.765 2029.92 580.74 2033.16 582.895C2036.39 584.69 2041.6 585.588 2048.78 585.588C2055.61 585.588 2063.87 584.511 2073.57 582.356C2083.27 579.842 2092.43 576.251 2101.06 571.583C2110.04 566.556 2117.58 560.451 2123.69 553.269C2130.15 546.087 2133.39 537.827 2133.39 528.491C2133.39 520.231 2127.1 512.69 2114.53 505.867C2102.31 498.685 2082.91 493.837 2056.33 491.323C2042.68 490.246 2029.2 488.63 2015.91 486.475C2002.62 483.962 1990.58 480.73 1979.81 476.779C1969.39 472.47 1960.94 467.263 1954.48 461.158C1948.01 454.695 1944.78 446.794 1944.78 437.458C1944.78 428.48 1947.29 419.861 1952.32 411.602C1957.35 403.343 1963.46 395.801 1970.64 388.978C1978.19 381.796 1985.91 375.512 1993.82 370.125C2001.72 364.739 2008.37 360.25 2013.76 356.659C2018.07 354.145 2023.99 350.913 2031.54 346.963C2039.44 342.654 2047.71 338.704 2056.33 335.113C2065.31 331.163 2074.11 327.931 2082.73 325.417C2091.71 322.544 2099.26 321.108 2105.37 321.108C2112.55 321.108 2117.4 323.083 2119.92 327.033C2122.43 330.983 2123.69 336.549 2123.69 343.731C2123.69 349.836 2122.97 356.3 2121.53 363.123C2120.1 369.946 2118.48 376.589 2116.68 383.053C2114.89 389.517 2113.09 395.263 2111.29 400.29C2109.86 404.959 2108.78 408.011 2108.06 409.447C2106.62 412.679 2105.01 414.834 2103.21 415.911C2101.41 416.989 2100.16 417.527 2099.44 417.527C2098 417.527 2097.28 416.629 2097.28 414.834C2097.28 413.757 2097.46 411.782 2097.82 408.909C2098.54 405.677 2099.26 401.906 2099.98 397.597C2101.06 393.288 2101.77 388.619 2102.13 383.592C2102.85 378.564 2103.21 373.537 2103.21 368.51C2103.21 360.609 2102.85 354.864 2102.13 351.273C2101.41 347.681 2098.54 345.886 2093.51 345.886C2088.48 345.886 2081.66 347.322 2073.03 350.195C2064.41 352.709 2055.61 355.941 2046.63 359.891C2036.93 364.2 2027.41 369.766 2018.07 376.589C2009.09 383.412 2001 390.415 1993.82 397.597C1986.63 404.779 1980.7 411.782 1976.03 418.605C1971.72 425.068 1969.57 430.275 1969.57 434.226C1969.57 438.535 1972.44 442.665 1978.19 446.615C1984.3 450.206 1991.84 453.438 2000.82 456.311C2010.16 459.183 2020.4 461.697 2031.54 463.852C2042.68 466.006 2053.63 467.622 2064.41 468.7C2073.39 469.777 2083.27 471.213 2094.05 473.009C2104.83 474.804 2114.89 477.677 2124.23 481.627C2133.57 485.578 2141.47 490.964 2147.94 497.787C2154.4 504.251 2157.64 512.69 2157.64 523.104Z" fill="white"/>
<path d="M966.071 580.202C966.071 583.793 964.454 587.025 961.221 589.897C957.987 592.77 954.395 594.207 950.443 594.207C949.724 594.207 948.647 593.848 947.21 593.129C945.773 592.052 944.695 591.154 943.976 590.436C928.888 576.072 912.901 561.887 896.015 547.882C879.13 533.877 862.066 519.513 844.821 504.79C827.577 490.066 810.512 474.625 793.627 458.465C777.101 442.305 761.473 424.709 746.744 405.677C751.414 425.068 757.701 445.717 765.605 467.622C773.508 489.169 781.053 509.458 788.238 528.491C795.782 547.523 802.249 564.042 807.638 578.047C813.027 591.693 815.721 600.311 815.721 603.902C815.721 608.212 813.925 611.623 810.332 614.137C807.099 617.01 803.686 618.446 800.094 618.446C797.938 618.446 795.603 616.112 793.088 611.444C790.573 607.134 787.699 601.389 784.466 594.207C781.592 587.025 778.538 579.124 775.305 570.506C772.431 561.528 769.557 552.73 766.683 544.112C763.808 535.134 761.114 526.875 758.599 519.333C756.084 511.433 754.109 504.969 752.671 499.942L738.122 456.311C734.888 446.974 731.655 437.458 728.422 427.762C725.188 417.707 722.135 408.37 719.26 399.752C716.746 391.133 714.59 383.592 712.794 377.128C711.357 370.664 710.638 366.355 710.638 364.2C710.638 360.25 711.177 356.3 712.255 352.35C713.333 348.041 715.309 345.886 718.183 345.886C719.979 345.886 721.236 346.425 721.955 347.502C722.673 348.22 723.392 348.579 724.11 348.579L730.577 345.886C732.373 345.886 735.427 348.22 739.738 352.888C744.409 357.198 749.618 362.943 755.366 370.125C761.473 377.308 767.94 385.387 774.766 394.365C781.592 403.343 788.418 412.141 795.244 420.759C802.429 429.378 809.075 437.458 815.182 444.999C821.649 452.54 827.397 458.465 832.427 462.774C840.33 469.957 848.234 476.779 856.138 483.243C864.041 489.707 871.945 496.351 879.849 503.174C888.112 509.638 896.734 516.64 905.715 524.181C914.697 531.722 924.576 540.341 935.354 550.037C935.713 550.396 936.612 550.575 938.049 550.575C938.767 550.575 939.126 549.678 939.126 547.882C939.126 546.087 939.126 543.932 939.126 541.418C939.126 536.391 937.689 527.413 934.815 514.485C931.941 501.199 927.81 485.937 922.421 468.7C917.391 451.104 911.464 432.43 904.638 412.679C897.812 392.569 890.447 373.357 882.543 355.043C874.999 336.37 866.916 319.492 858.293 304.409C850.03 289.327 841.947 277.656 834.043 269.397C831.888 267.242 830.271 264.01 829.193 259.701C828.475 255.392 828.116 251.801 828.116 248.928C828.116 246.414 829.732 243.721 832.966 240.848C836.558 237.616 839.792 236 842.666 236C846.977 236 851.827 240.309 857.216 248.928C862.604 257.546 868.353 268.858 874.46 282.863C880.567 296.509 886.675 311.951 892.782 329.188C899.249 346.425 905.536 363.841 911.643 381.437C918.828 402.265 925.475 422.914 931.582 443.383C938.049 463.493 943.617 482.346 948.287 499.942C953.317 517.538 957.269 533.338 960.143 547.344C963.376 561.349 965.352 572.301 966.071 580.202Z" stroke="white" stroke-width="4" mask="url(#path-18-outside-1_357_475)"/>
<path d="M1159.88 462.236C1160.6 466.904 1160.96 470.675 1160.96 473.548C1161.32 476.42 1161.5 479.293 1161.5 482.166C1161.5 491.144 1160.24 501.737 1157.73 513.947C1155.57 526.156 1151.62 537.827 1145.87 548.959C1140.48 559.733 1133.12 569.069 1123.78 576.97C1114.8 584.511 1103.3 588.281 1089.29 588.281C1076.36 588.281 1064.14 584.69 1052.65 577.508C1041.15 569.967 1030.91 560.451 1021.93 548.959C1012.95 537.109 1005.76 524.002 1000.37 509.638C995.345 494.914 992.83 480.371 992.83 466.006C992.83 445.178 994.087 427.403 996.602 412.679C999.476 397.597 1003.43 384.49 1008.46 373.357C1008.46 372.28 1007.74 371.203 1006.3 370.125C1005.22 369.048 1004.69 367.612 1004.69 365.816C1004.69 364.021 1006.3 361.687 1009.54 358.814C1013.13 355.941 1017.26 353.248 1021.93 350.734C1026.96 347.861 1031.81 345.527 1036.48 343.731C1041.51 341.577 1045.28 340.499 1047.8 340.499C1049.23 340.499 1051.57 341.218 1054.8 342.654C1058.39 344.09 1062.89 344.809 1068.27 344.809C1070.07 344.809 1071.87 344.629 1073.66 344.27C1075.46 343.911 1077.44 343.731 1079.59 343.731C1087.14 343.731 1095.22 347.322 1103.84 354.504C1112.82 361.327 1121.08 370.305 1128.63 381.437C1136.53 392.57 1143.18 405.318 1148.57 419.682C1154.32 433.687 1158.09 447.872 1159.88 462.236ZM1138.33 483.243C1138.33 476.42 1136.89 466.725 1134.02 454.156C1131.14 441.228 1126.83 428.659 1121.08 416.45C1115.34 403.881 1108.33 392.929 1100.07 383.592C1092.16 374.255 1083.18 369.587 1073.12 369.587C1072.41 369.587 1070.97 369.587 1068.81 369.587C1067.02 369.228 1064.86 369.048 1062.35 369.048C1059.83 368.689 1057.5 368.51 1055.34 368.51C1053.19 368.15 1051.93 367.971 1051.57 367.971C1045.82 367.971 1040.79 370.664 1036.48 376.051C1032.53 381.437 1029.11 388.44 1026.24 397.058C1023.73 405.677 1021.75 415.552 1020.31 426.684C1018.88 437.817 1018.16 448.949 1018.16 460.081C1018.16 464.031 1019.24 471.752 1021.39 483.243C1023.55 494.376 1027.32 506.047 1032.71 518.256C1038.46 530.106 1046 540.7 1055.34 550.037C1064.68 559.373 1076.54 564.042 1090.91 564.042C1100.61 564.042 1108.51 561.169 1114.62 555.423C1120.73 549.319 1125.4 541.957 1128.63 533.338C1132.22 524.72 1134.74 515.922 1136.17 506.944C1137.61 497.608 1138.33 489.707 1138.33 483.243Z" stroke="white" stroke-width="4" mask="url(#path-18-outside-1_357_475)"/>
<path d="M1462.91 630.297C1463.63 632.451 1464.35 634.426 1465.07 636.222C1465.79 638.017 1466.32 639.992 1466.68 642.147C1467.4 644.302 1467.76 646.277 1467.76 648.072C1467.76 650.586 1466.86 652.561 1465.07 653.997C1463.27 655.793 1461.12 657.229 1458.6 658.307C1456.45 659.384 1454.29 660.102 1452.13 660.461C1449.98 660.821 1448.72 661 1448.36 661C1446.21 661 1442.25 654.357 1436.51 641.07C1430.76 628.142 1424.47 609.828 1417.65 586.127C1411.18 562.426 1404.53 534.236 1397.71 501.558C1390.88 468.879 1385.31 432.969 1381 393.826C1380.28 402.086 1378.85 411.782 1376.69 422.914C1374.89 433.687 1372.02 443.921 1368.07 453.617C1364.12 463.313 1358.91 471.572 1352.44 478.395C1346.33 484.859 1338.43 488.091 1328.73 488.091C1321.9 488.091 1314.18 484.5 1305.56 477.318C1296.93 470.136 1288.49 461.697 1280.23 452.001C1272.33 441.946 1264.96 431.891 1258.13 421.837C1251.67 411.423 1246.82 402.984 1243.58 396.52C1245.02 412.32 1247.36 431.353 1250.59 453.617C1254.18 475.882 1259.57 499.403 1266.76 524.181C1267.48 526.695 1268.19 528.67 1268.91 530.106C1269.99 531.184 1270.89 532.441 1271.61 533.877C1272.68 535.313 1273.4 536.929 1273.76 538.725C1274.48 540.161 1274.84 542.496 1274.84 545.728C1274.84 550.396 1273.04 553.807 1269.45 555.962C1265.86 558.117 1262.45 559.194 1259.21 559.194C1257.42 559.194 1255.08 556.501 1252.21 551.114C1249.33 545.368 1246.28 538.007 1243.05 529.029C1239.81 520.052 1236.58 510.176 1233.35 499.403C1230.11 488.271 1227.06 477.318 1224.18 466.545C1221.67 455.772 1219.51 445.717 1217.72 436.38C1215.92 426.684 1215.02 418.964 1215.02 413.218C1215.02 403.881 1215.38 397.417 1216.1 393.826C1217.18 390.235 1218.62 387.542 1220.41 385.747V352.888C1220.41 347.861 1221.67 344.09 1224.18 341.577C1227.06 338.704 1230.65 337.267 1234.96 337.267C1238.56 337.267 1242.69 340.32 1247.36 346.425C1252.03 352.529 1257.06 360.25 1262.45 369.587C1268.19 378.924 1274.12 388.978 1280.23 399.752C1286.34 410.525 1292.26 420.58 1298.01 429.916C1304.12 439.253 1309.87 446.974 1315.26 453.079C1321 459.183 1326.39 462.236 1331.42 462.236C1336.09 462.236 1340.58 457.927 1344.9 449.308C1349.21 440.33 1353.16 428.66 1356.75 414.295C1360.7 399.931 1364.12 383.592 1366.99 365.278C1369.86 346.963 1372.2 328.29 1374 309.257C1374 307.103 1373.82 304.768 1373.46 302.255C1373.1 299.382 1372.92 296.33 1372.92 293.098C1372.92 288.788 1373.82 284.12 1375.61 279.093C1377.77 274.065 1381.72 271.551 1387.47 271.551C1390.7 271.551 1393.22 272.449 1395.01 274.245C1397.17 276.04 1398.6 278.374 1399.32 281.247C1400.04 283.761 1400.4 286.454 1400.4 289.327C1400.76 291.841 1400.94 293.995 1400.94 295.791C1400.94 298.664 1400.58 303.512 1399.86 310.335C1399.5 316.798 1399.32 326.853 1399.32 340.499C1399.32 352.35 1400.22 366.175 1402.02 381.976C1403.81 397.417 1406.15 413.936 1409.02 431.532C1412.26 448.769 1415.85 466.725 1419.8 485.398C1424.11 503.712 1428.6 521.668 1433.27 539.264C1438.3 556.86 1443.15 573.558 1447.82 589.359C1452.85 604.8 1457.88 618.446 1462.91 630.297Z" stroke="white" stroke-width="4" mask="url(#path-18-outside-1_357_475)"/>
<path d="M1650.28 618.372C1650.64 619.808 1650.82 621.065 1650.82 622.142C1650.82 623.579 1650.82 624.656 1650.82 625.374C1650.82 628.965 1649.92 631.479 1648.12 632.915C1646.69 634.352 1643.63 635.07 1638.96 635.07C1634.65 635.07 1631.78 634.352 1630.34 632.915C1628.19 630.761 1625.31 625.195 1621.72 616.217C1618.13 607.239 1614.35 596.646 1610.4 584.436C1606.45 572.227 1602.5 559.119 1598.55 545.114C1594.95 531.109 1591.72 517.822 1588.85 505.254C1584.9 507.049 1579.51 509.024 1572.68 511.179C1565.85 512.974 1558.85 514.77 1551.66 516.565C1543.4 518.361 1534.78 520.336 1525.8 522.491C1522.56 537.932 1520.05 551.219 1518.25 562.351C1516.82 573.124 1515.38 582.102 1513.94 589.284C1512.86 596.107 1511.25 601.135 1509.09 604.367C1507.3 607.958 1504.24 609.753 1499.93 609.753C1497.06 609.753 1494.54 608.137 1492.39 604.905C1490.23 601.673 1489.15 596.825 1489.15 590.361C1489.15 587.129 1490.05 579.588 1491.85 567.738C1493.64 555.887 1495.62 542.78 1497.78 528.416C1499.93 513.693 1502.09 499.149 1504.24 484.785C1506.4 470.421 1507.83 459.109 1508.55 450.849C1508.91 446.54 1509.99 439.538 1511.79 429.842C1513.94 420.146 1516.1 410.271 1518.25 400.216C1520.41 389.802 1522.56 380.465 1524.72 372.206C1526.88 363.946 1528.31 359.278 1529.03 358.2C1534.78 344.914 1538.37 331.268 1539.81 317.263C1541.6 303.257 1542.86 290.509 1543.58 279.018C1544.66 267.168 1546.28 257.651 1548.43 250.469C1550.59 242.928 1555.08 239.157 1561.9 239.157C1563.7 239.157 1565.5 240.594 1567.29 243.467C1569.45 246.339 1571.42 249.751 1573.22 253.701C1575.02 257.651 1576.45 261.601 1577.53 265.552C1578.61 269.143 1579.33 272.015 1579.69 274.17C1580.05 276.325 1580.4 280.634 1580.76 287.098C1581.48 293.562 1582.02 300.744 1582.38 308.644C1583.1 316.185 1583.64 323.726 1584 331.268C1584.72 338.45 1585.25 344.016 1585.61 347.966C1586.69 359.816 1588.31 373.103 1590.46 387.827C1592.98 402.55 1595.49 416.375 1598.01 429.303C1600.52 442.231 1602.86 453.184 1605.01 462.161C1607.17 470.78 1608.79 475.089 1609.86 475.089C1611.3 475.089 1613.1 474.73 1615.25 474.012C1617.77 473.293 1620.1 472.934 1622.26 472.934C1625.13 472.934 1626.57 474.371 1626.57 477.244C1626.57 480.116 1625.85 482.451 1624.41 484.246C1622.98 486.042 1621.36 487.658 1619.56 489.094C1618.13 490.53 1616.69 491.787 1615.25 492.865C1614.17 493.942 1613.64 495.199 1613.64 496.635C1613.64 499.508 1615.25 506.87 1618.49 518.72L1627.11 550.501C1627.83 553.374 1629.44 558.222 1631.96 565.045C1634.47 571.868 1636.99 579.05 1639.5 586.591C1642.38 593.773 1644.89 600.416 1647.05 606.521C1649.2 612.985 1650.28 616.935 1650.28 618.372ZM1530.65 495.019C1532.8 495.019 1536.75 494.481 1542.5 493.403C1548.25 491.967 1554.18 490.351 1560.29 488.555C1566.39 486.76 1571.78 484.964 1576.45 483.169C1581.12 481.373 1583.46 479.937 1583.46 478.86C1583.46 477.782 1582.74 475.089 1581.3 470.78C1580.22 466.111 1578.79 460.366 1576.99 453.543C1575.55 446.361 1573.94 438.281 1572.14 429.303C1570.35 420.326 1568.73 410.809 1567.29 400.754C1566.57 394.29 1565.68 385.492 1564.6 374.36C1563.52 363.228 1562.44 352.275 1561.36 341.502C1560.29 330.37 1559.39 320.854 1558.67 312.953C1557.95 305.053 1557.59 301.103 1557.59 301.103C1557.59 301.103 1557.05 303.796 1555.98 309.183C1554.9 314.21 1553.64 319.956 1552.2 326.42C1551.13 332.524 1550.05 338.45 1548.97 344.195C1548.25 349.582 1547.89 352.634 1547.89 353.353V368.435C1547.89 369.153 1547.35 372.385 1546.28 378.131C1545.56 383.517 1544.48 390.52 1543.04 399.138C1541.6 407.398 1539.99 416.555 1538.19 426.61C1536.75 436.306 1535.32 445.642 1533.88 454.62C1532.44 463.598 1531.19 471.677 1530.11 478.86C1529.39 485.683 1529.03 490.351 1529.03 492.865C1529.03 494.301 1529.57 495.019 1530.65 495.019Z" stroke="white" stroke-width="4" mask="url(#path-18-outside-1_357_475)"/>
<path d="M1896.15 439.612C1896.15 451.822 1893.99 463.493 1889.68 474.625C1885.37 485.757 1879.26 496.53 1871.36 506.944C1863.46 517.358 1854.11 527.593 1843.34 537.648C1832.92 547.343 1821.42 556.86 1808.85 566.196C1795.56 576.251 1780.11 585.947 1762.5 595.284C1744.9 604.621 1727.12 612.88 1709.15 620.062C1691.55 627.603 1674.84 633.529 1659.04 637.838C1643.23 642.147 1630.48 644.302 1620.78 644.302C1614.31 644.302 1609.64 643.404 1606.77 641.608C1603.53 640.172 1601.92 636.581 1601.92 630.835C1601.92 626.885 1603.35 622.217 1606.23 616.83C1609.1 611.444 1611.97 608.75 1614.85 608.75C1617.72 608.75 1619.88 609.648 1621.32 611.444C1622.39 613.239 1622.93 615.214 1622.93 617.369C1622.93 618.446 1622.93 619.344 1622.93 620.062C1622.57 620.78 1622.39 621.319 1622.39 621.678V622.755C1636.04 621.319 1654.37 617.01 1677.36 609.828C1699.99 603.005 1727.12 590.975 1758.73 573.738C1772.38 566.197 1785.86 557.398 1799.15 547.344C1812.44 536.929 1824.3 525.977 1834.71 514.485C1845.49 502.635 1854.11 490.425 1860.58 477.857C1867.05 464.929 1870.28 452.36 1870.28 440.151C1870.28 431.532 1865.79 422.734 1856.81 413.757C1848.19 404.42 1837.05 395.801 1823.4 387.901C1810.11 379.642 1795.56 372.639 1779.75 366.894C1763.94 360.789 1749.21 356.659 1735.56 354.504C1735.92 356.3 1736.46 360.789 1737.18 367.971C1737.89 374.794 1738.97 382.874 1740.41 392.21C1741.85 401.547 1743.46 411.602 1745.26 422.375C1747.41 432.789 1749.75 442.485 1752.26 451.463C1755.14 461.518 1756.94 469.059 1757.65 474.086C1758.73 478.755 1759.45 482.705 1759.81 485.937C1760.17 489.528 1760.71 494.196 1761.43 499.942C1762.5 505.328 1763.22 511.074 1763.58 517.179C1764.3 522.924 1764.84 528.491 1765.2 533.877C1765.92 538.905 1766.28 542.855 1766.28 545.728C1766.28 548.959 1765.56 552.371 1764.12 555.962C1763.04 559.553 1761.61 561.349 1759.81 561.349C1755.5 561.349 1752.44 559.912 1750.65 557.039C1749.21 553.807 1747.77 548.6 1746.34 541.418C1745.26 533.877 1743.82 524.181 1742.03 512.331C1740.23 500.48 1736.82 485.937 1731.79 468.7C1724.6 444.64 1719.57 422.016 1716.7 400.829C1713.82 379.283 1712.03 362.225 1711.31 349.657C1711.31 349.657 1710.41 349.657 1708.61 349.657C1707.18 349.297 1705.02 349.118 1702.15 349.118C1699.63 349.118 1696.58 349.118 1692.99 349.118C1689.75 348.759 1686.7 348.579 1683.83 348.579C1677.72 348.579 1672.15 349.836 1667.12 352.35C1662.09 354.504 1657.96 357.018 1654.73 359.891C1651.13 362.764 1648.26 365.457 1646.1 367.971C1643.59 370.125 1641.97 371.203 1641.25 371.203C1638.74 371.203 1635.33 370.664 1631.02 369.587C1626.34 368.15 1624.01 365.637 1624.01 362.046C1624.01 357.377 1626.34 352.709 1631.02 348.041C1635.33 343.013 1640.72 338.704 1647.18 335.113C1653.65 331.163 1660.65 328.11 1668.2 325.956C1675.74 323.442 1682.75 322.185 1689.22 322.185C1699.99 322.185 1712.57 323.621 1726.94 326.494C1741.31 329.367 1756.04 333.317 1771.13 338.345C1786.57 343.372 1801.66 349.477 1816.39 356.659C1831.48 363.841 1844.95 371.741 1856.81 380.36C1868.66 388.978 1878.18 398.315 1885.37 408.37C1892.55 418.425 1896.15 428.839 1896.15 439.612Z" stroke="white" stroke-width="4" mask="url(#path-18-outside-1_357_475)"/>
<path d="M2157.64 523.104C2157.64 539.264 2154.76 552.012 2149.02 561.349C2143.27 570.326 2134.83 578.765 2123.69 586.665C2120.81 588.461 2116.86 590.616 2111.83 593.129C2106.8 595.643 2101.23 597.977 2095.13 600.132C2089.02 602.286 2082.55 604.082 2075.73 605.518C2068.9 606.955 2062.61 607.673 2056.87 607.673C2040.7 607.673 2028.48 605.878 2020.22 602.286C2011.96 599.055 2007.83 595.104 2007.83 590.436C2007.83 585.409 2009.26 581.279 2012.14 578.047C2015.01 574.815 2017.53 573.019 2019.68 572.66L2025.61 576.97C2027.41 578.765 2029.92 580.74 2033.16 582.895C2036.39 584.69 2041.6 585.588 2048.78 585.588C2055.61 585.588 2063.87 584.511 2073.57 582.356C2083.27 579.842 2092.43 576.251 2101.06 571.583C2110.04 566.556 2117.58 560.451 2123.69 553.269C2130.15 546.087 2133.39 537.827 2133.39 528.491C2133.39 520.231 2127.1 512.69 2114.53 505.867C2102.31 498.685 2082.91 493.837 2056.33 491.323C2042.68 490.246 2029.2 488.63 2015.91 486.475C2002.62 483.962 1990.58 480.73 1979.81 476.779C1969.39 472.47 1960.94 467.263 1954.48 461.158C1948.01 454.695 1944.78 446.794 1944.78 437.458C1944.78 428.48 1947.29 419.861 1952.32 411.602C1957.35 403.343 1963.46 395.801 1970.64 388.978C1978.19 381.796 1985.91 375.512 1993.82 370.125C2001.72 364.739 2008.37 360.25 2013.76 356.659C2018.07 354.145 2023.99 350.913 2031.54 346.963C2039.44 342.654 2047.71 338.704 2056.33 335.113C2065.31 331.163 2074.11 327.931 2082.73 325.417C2091.71 322.544 2099.26 321.108 2105.37 321.108C2112.55 321.108 2117.4 323.083 2119.92 327.033C2122.43 330.983 2123.69 336.549 2123.69 343.731C2123.69 349.836 2122.97 356.3 2121.53 363.123C2120.1 369.946 2118.48 376.589 2116.68 383.053C2114.89 389.517 2113.09 395.263 2111.29 400.29C2109.86 404.959 2108.78 408.011 2108.06 409.447C2106.62 412.679 2105.01 414.834 2103.21 415.911C2101.41 416.989 2100.16 417.527 2099.44 417.527C2098 417.527 2097.28 416.629 2097.28 414.834C2097.28 413.757 2097.46 411.782 2097.82 408.909C2098.54 405.677 2099.26 401.906 2099.98 397.597C2101.06 393.288 2101.77 388.619 2102.13 383.592C2102.85 378.564 2103.21 373.537 2103.21 368.51C2103.21 360.609 2102.85 354.864 2102.13 351.273C2101.41 347.681 2098.54 345.886 2093.51 345.886C2088.48 345.886 2081.66 347.322 2073.03 350.195C2064.41 352.709 2055.61 355.941 2046.63 359.891C2036.93 364.2 2027.41 369.766 2018.07 376.589C2009.09 383.412 2001 390.415 1993.82 397.597C1986.63 404.779 1980.7 411.782 1976.03 418.605C1971.72 425.068 1969.57 430.275 1969.57 434.226C1969.57 438.535 1972.44 442.665 1978.19 446.615C1984.3 450.206 1991.84 453.438 2000.82 456.311C2010.16 459.183 2020.4 461.697 2031.54 463.852C2042.68 466.006 2053.63 467.622 2064.41 468.7C2073.39 469.777 2083.27 471.213 2094.05 473.009C2104.83 474.804 2114.89 477.677 2124.23 481.627C2133.57 485.578 2141.47 490.964 2147.94 497.787C2154.4 504.251 2157.64 512.69 2157.64 523.104Z" stroke="white" stroke-width="4" mask="url(#path-18-outside-1_357_475)"/>
<path d="M1090.35 77.0417L1092.2 74H1088.64H1052.62H1051.5L1050.91 74.9591L1006.14 148.423L946.207 74.738L945.607 74H944.655H908.638H904.434L907.087 77.2618L988.459 177.326L942.948 251.959L941.093 255H944.655H980.63H981.752L982.337 254.042L1013.2 203.482L1028.63 178.203L1028.63 178.202L1090.35 77.0417Z" fill="white" stroke="white" stroke-width="4"/>
</svg>
