<svg width="217" height="78" viewBox="0 0 217 78" fill="none" xmlns="http://www.w3.org/2000/svg">
<path d="M46.7553 63.0743C46.7553 63.7324 46.4594 64.3246 45.8675 64.8511C45.2757 65.3775 44.6181 65.6407 43.8947 65.6407C43.7632 65.6407 43.5659 65.5749 43.3029 65.4433C43.0399 65.2459 42.8426 65.0814 42.7111 64.9498C39.9491 62.3176 37.0228 59.7183 33.9321 57.1519C30.8414 54.5855 27.7178 51.9532 24.5613 49.2552C21.4049 46.5572 18.2813 43.7276 15.1905 40.7664C12.1656 37.8051 9.30503 34.5807 6.60887 31.093C7.46375 34.6465 8.61455 38.4303 10.0613 42.4444C11.508 46.3927 12.8889 50.1107 14.2041 53.5984C15.5851 57.0861 16.7688 60.1131 17.7552 62.6795C18.7416 65.1801 19.2348 66.7594 19.2348 67.4175C19.2348 68.2071 18.906 68.8323 18.2484 69.2929C17.6565 69.8194 17.0318 70.0826 16.3742 70.0826C15.9797 70.0826 15.5522 69.6549 15.0919 68.7994C14.6316 68.0097 14.1055 66.9568 13.5137 65.6407C12.9876 64.3246 12.4286 62.8769 11.8368 61.2976C11.3107 59.6525 10.7846 58.0402 10.2585 56.4609C9.73247 54.8158 9.23927 53.3023 8.77895 51.9203C8.31863 50.4726 7.95695 49.2881 7.69391 48.3669L5.03063 40.3715C4.43879 38.6606 3.84696 36.9167 3.25512 35.14C2.66328 33.2975 2.10432 31.5865 1.57824 30.0072C1.11792 28.4279 0.723359 27.046 0.39456 25.8615C0.13152 24.677 0 23.8873 0 23.4925C0 22.7686 0.0986398 22.0448 0.29592 21.3209C0.493199 20.5312 0.854879 20.1364 1.38096 20.1364C1.70976 20.1364 1.93992 20.2351 2.07144 20.4325C2.20296 20.5641 2.33448 20.6299 2.466 20.6299L3.64968 20.1364C3.97848 20.1364 4.53743 20.5641 5.32655 21.4196C6.18143 22.2093 7.13495 23.2622 8.18711 24.5783C9.30503 25.8944 10.4887 27.375 11.7381 29.0201C12.9876 30.6652 14.237 32.2775 15.4865 33.8568C16.8017 35.4361 18.0182 36.9167 19.1361 38.2987C20.3198 39.6806 21.372 40.7664 22.2926 41.556C23.7393 42.8721 25.186 44.1224 26.6328 45.3069C28.0795 46.4914 29.5262 47.7088 30.9729 48.9591C32.4854 50.1436 34.0636 51.4268 35.7076 52.8087C37.3516 54.1906 39.16 55.77 41.1328 57.5467C41.1986 57.6125 41.363 57.6454 41.626 57.6454C41.7575 57.6454 41.8233 57.4809 41.8233 57.1519C41.8233 56.8228 41.8233 56.428 41.8233 55.9674C41.8233 55.0461 41.5603 53.401 41.0342 51.032C40.5081 48.5972 39.7519 45.8005 38.7655 42.6418C37.8448 39.4173 36.7598 35.9955 35.5104 32.3762C34.2609 28.6911 32.9128 25.1705 31.4661 21.8144C30.0852 18.3926 28.6056 15.2997 27.0273 12.5359C25.5149 9.77208 24.0352 7.63341 22.5885 6.11989C22.194 5.72505 21.8981 5.13281 21.7008 4.34315C21.5693 3.55349 21.5035 2.89543 21.5035 2.36899C21.5035 1.90835 21.7994 1.41481 22.3913 0.888371C23.0489 0.296124 23.6407 0 24.1668 0C24.9559 0 25.8436 0.789664 26.83 2.36899C27.8164 3.94831 28.8686 6.02118 29.9865 8.58759C31.1044 11.0882 32.2224 13.9178 33.3403 17.0765C34.524 20.2351 35.6747 23.4267 36.7927 26.6511C38.1079 30.4678 39.3244 34.2516 40.4423 38.0025C41.626 41.6876 42.6453 45.1424 43.5002 48.3669C44.4208 51.5913 45.1442 54.4868 45.6703 57.0532C46.2621 59.6196 46.6238 61.6266 46.7553 63.0743Z" fill="#D5FF40"/>
<path d="M82.2317 41.4573C82.3633 42.3128 82.429 43.0037 82.429 43.5302C82.4948 44.0566 82.5277 44.5831 82.5277 45.1095C82.5277 46.7546 82.2975 48.6959 81.8372 50.9333C81.4426 53.1706 80.7193 55.3093 79.6671 57.3493C78.6807 59.3234 77.3326 61.0344 75.6229 62.4821C73.9789 63.864 71.8746 64.5549 69.3099 64.5549C66.9426 64.5549 64.7067 63.8969 62.6024 62.5808C60.4981 61.1989 58.6239 59.455 56.9799 57.3493C55.3359 55.1777 54.0207 52.7758 53.0343 50.1436C52.1137 47.4456 51.6534 44.7805 51.6534 42.1483C51.6534 38.3316 51.8835 35.0742 52.3439 32.3762C52.8699 29.6124 53.5933 27.2105 54.5139 25.1705C54.5139 24.9731 54.3824 24.7757 54.1194 24.5783C53.9221 24.3808 53.8235 24.1176 53.8235 23.7886C53.8235 23.4596 54.1194 23.0318 54.7112 22.5054C55.3688 21.979 56.1251 21.4854 56.9799 21.0248C57.9006 20.4983 58.7883 20.0706 59.6432 19.7416C60.5639 19.3467 61.2543 19.1493 61.7146 19.1493C61.9777 19.1493 62.4051 19.2809 62.997 19.5442C63.6546 19.8074 64.4766 19.939 65.463 19.939C65.7918 19.939 66.1206 19.9061 66.4494 19.8403C66.7782 19.7745 67.1398 19.7416 67.5344 19.7416C68.9154 19.7416 70.395 20.3996 71.9732 21.7157C73.6172 22.966 75.1297 24.6112 76.5106 26.6511C77.9574 28.6911 79.1739 31.0272 80.1603 33.6594C81.2125 36.2258 81.9029 38.8251 82.2317 41.4573ZM78.2862 45.3069C78.2862 44.0566 78.0231 42.2799 77.497 39.9767C76.971 37.6077 76.1818 35.3045 75.1297 33.0671C74.0775 30.764 72.7952 28.7569 71.2827 27.046C69.836 25.335 68.192 24.4796 66.3507 24.4796C66.2192 24.4796 65.9562 24.4796 65.5616 24.4796C65.2328 24.4137 64.8382 24.3808 64.3779 24.3808C63.9176 24.315 63.4902 24.2821 63.0956 24.2821C62.701 24.2163 62.4709 24.1834 62.4051 24.1834C61.353 24.1834 60.4323 24.677 59.6432 25.664C58.9199 26.6511 58.2951 27.9343 57.7691 29.5137C57.3087 31.093 56.9471 32.9026 56.684 34.9426C56.421 36.9826 56.2895 39.0225 56.2895 41.0625C56.2895 41.7863 56.4867 43.2011 56.8813 45.3069C57.2759 47.3469 57.9663 49.4856 58.9527 51.7229C60.0049 53.8945 61.3858 55.8358 63.0956 57.5467C64.8054 59.2576 66.9754 60.1131 69.6058 60.1131C71.3814 60.1131 72.8281 59.5867 73.946 58.5338C75.0639 57.4151 75.9188 56.0661 76.5106 54.4868C77.1682 52.9074 77.6286 51.2952 77.8916 49.6501C78.1546 47.9391 78.2862 46.4914 78.2862 45.3069Z" fill="#D5FF40"/>
<path d="M137.699 72.2542C137.83 72.649 137.962 73.0109 138.094 73.34C138.225 73.669 138.324 74.0309 138.389 74.4257C138.521 74.8206 138.587 75.1825 138.587 75.5115C138.587 75.9722 138.422 76.3341 138.094 76.5973C137.765 76.9263 137.37 77.1896 136.91 77.387C136.515 77.5844 136.121 77.716 135.726 77.7818C135.332 77.8476 135.101 77.8805 135.036 77.8805C134.641 77.8805 133.918 76.6631 132.866 74.2283C131.813 71.8593 130.663 68.5033 129.413 64.1601C128.23 59.817 127.013 54.6513 125.764 48.663C124.514 42.6747 123.495 36.0942 122.706 28.9214C122.574 30.4349 122.311 32.2117 121.917 34.2516C121.588 36.2258 121.062 38.1012 120.338 39.878C119.615 41.6547 118.661 43.1682 117.478 44.4185C116.36 45.603 114.913 46.1953 113.138 46.1953C111.888 46.1953 110.474 45.5372 108.896 44.2211C107.318 42.905 105.773 41.3586 104.26 39.5819C102.813 37.7393 101.465 35.8968 100.216 34.0542C99.0321 32.1459 98.1444 30.5994 97.5525 29.415C97.8156 32.3104 98.243 35.7981 98.8348 39.878C99.4924 43.9579 100.479 48.2682 101.794 52.8087C101.926 53.2694 102.057 53.6313 102.189 53.8945C102.386 54.0919 102.55 54.3222 102.682 54.5855C102.879 54.8487 103.011 55.1448 103.076 55.4738C103.208 55.737 103.274 56.1648 103.274 56.757C103.274 57.6125 102.945 58.2376 102.287 58.6325C101.63 59.0273 101.005 59.2247 100.413 59.2247C100.084 59.2247 99.6568 58.7312 99.1308 57.7441C98.6047 56.6912 98.0457 55.3422 97.4539 53.6971C96.862 52.052 96.2702 50.2423 95.6784 48.2682C95.0865 46.2282 94.5276 44.2211 94.0015 42.247C93.5412 40.2728 93.1466 38.4303 92.8178 36.7193C92.489 34.9426 92.3246 33.5278 92.3246 32.4749C92.3246 30.764 92.3904 29.5795 92.5219 28.9214C92.7192 28.2634 92.9822 27.7698 93.311 27.4408V21.4196C93.311 20.4983 93.5412 19.8074 94.0015 19.3467C94.5276 18.8203 95.1852 18.5571 95.9743 18.5571C96.6319 18.5571 97.3881 19.1164 98.243 20.2351C99.0979 21.3538 100.019 22.7686 101.005 24.4796C102.057 26.1905 103.142 28.033 104.26 30.0072C105.378 31.9814 106.463 33.8239 107.515 35.5348C108.633 37.2458 109.685 38.6606 110.672 39.7793C111.724 40.898 112.71 41.4573 113.631 41.4573C114.486 41.4573 115.308 40.6676 116.097 39.0883C116.886 37.4432 117.609 35.3045 118.267 32.6723C118.99 30.0401 119.615 27.046 120.141 23.6899C120.667 20.3338 121.095 16.9119 121.423 13.4243C121.423 13.0294 121.39 12.6017 121.325 12.1411C121.259 11.6146 121.226 11.0553 121.226 10.463C121.226 9.67337 121.39 8.8179 121.719 7.89663C122.114 6.97536 122.837 6.51472 123.889 6.51472C124.481 6.51472 124.942 6.67923 125.27 7.00826C125.665 7.33728 125.928 7.76502 126.059 8.29146C126.191 8.7521 126.257 9.24564 126.257 9.77208C126.322 10.2327 126.355 10.6275 126.355 10.9566C126.355 11.483 126.29 12.3714 126.158 13.6217C126.092 14.8062 126.059 16.6487 126.059 19.1493C126.059 21.3209 126.224 23.8544 126.553 26.7498C126.881 29.5795 127.309 32.6065 127.835 35.831C128.427 38.9896 129.084 42.2799 129.808 45.7017C130.597 49.0578 131.419 52.3481 132.274 55.5725C133.194 58.797 134.082 61.8569 134.937 64.7524C135.858 67.582 136.778 70.0826 137.699 72.2542Z" fill="#D5FF40"/>
<path d="M171.996 70.0689C172.061 70.3321 172.094 70.5625 172.094 70.7599C172.094 71.0231 172.094 71.2205 172.094 71.3521C172.094 72.0102 171.93 72.4708 171.601 72.734C171.338 72.9973 170.779 73.1289 169.924 73.1289C169.135 73.1289 168.609 72.9973 168.346 72.734C167.951 72.3392 167.425 71.3192 166.768 69.6741C166.11 68.029 165.42 66.0877 164.696 63.8503C163.973 61.613 163.249 59.2111 162.526 56.6447C161.869 54.0782 161.277 51.6435 160.751 49.3403C160.027 49.6693 159.041 50.0312 157.791 50.4261C156.542 50.7551 155.26 51.0841 153.944 51.4131C152.432 51.7422 150.854 52.1041 149.21 52.4989C148.618 55.3286 148.158 57.7633 147.829 59.8033C147.566 61.7775 147.303 63.4226 147.04 64.7387C146.842 65.989 146.546 66.9103 146.152 67.5025C145.823 68.1606 145.264 68.4896 144.475 68.4896C143.949 68.4896 143.489 68.1935 143.094 67.6012C142.7 67.009 142.502 66.1206 142.502 64.9361C142.502 64.3439 142.667 62.9619 142.995 60.7904C143.324 58.6188 143.686 56.2169 144.08 53.5847C144.475 50.8867 144.87 48.2216 145.264 45.5894C145.659 42.9572 145.922 40.8843 146.053 39.3708C146.119 38.5811 146.316 37.2979 146.645 35.5212C147.04 33.7444 147.434 31.9348 147.829 30.0922C148.223 28.1839 148.618 26.4729 149.012 24.9594C149.407 23.4459 149.67 22.5904 149.802 22.393C150.854 19.9582 151.511 17.4576 151.774 14.8912C152.103 12.3248 152.333 9.98873 152.465 7.88296C152.662 5.71139 152.958 3.96755 153.353 2.65144C153.747 1.26953 154.569 0.57858 155.819 0.57858C156.147 0.57858 156.476 0.841803 156.805 1.36825C157.2 1.89469 157.561 2.51984 157.89 3.2437C158.219 3.96755 158.482 4.69141 158.679 5.41527C158.876 6.07332 159.008 6.59976 159.074 6.99459C159.139 7.38942 159.205 8.17909 159.271 9.36358C159.403 10.5481 159.501 11.8642 159.567 13.3119C159.698 14.6938 159.797 16.0757 159.863 17.4576C159.994 18.7737 160.093 19.7937 160.159 20.5176C160.356 22.6891 160.652 25.1239 161.047 27.822C161.507 30.52 161.967 33.0535 162.428 35.4225C162.888 37.7914 163.315 39.7985 163.71 41.4436C164.104 43.023 164.4 43.8126 164.598 43.8126C164.861 43.8126 165.189 43.7468 165.584 43.6152C166.044 43.4836 166.472 43.4178 166.866 43.4178C167.392 43.4178 167.655 43.681 167.655 44.2075C167.655 44.7339 167.524 45.1616 167.261 45.4907C166.998 45.8197 166.702 46.1158 166.373 46.379C166.11 46.6423 165.847 46.8726 165.584 47.07C165.387 47.2674 165.288 47.4977 165.288 47.7609C165.288 48.2874 165.584 49.6364 166.176 51.808L167.754 57.6317C167.886 58.1582 168.181 59.0465 168.642 60.2968C169.102 61.5471 169.562 62.8633 170.023 64.2452C170.549 65.5613 171.009 66.7787 171.404 67.8974C171.798 69.0818 171.996 69.8057 171.996 70.0689ZM150.098 47.4648C150.492 47.4648 151.215 47.3661 152.268 47.1687C153.32 46.9055 154.405 46.6094 155.523 46.2803C156.641 45.9513 157.627 45.6223 158.482 45.2932C159.337 44.9642 159.764 44.701 159.764 44.5036C159.764 44.3062 159.633 43.8126 159.37 43.023C159.172 42.1675 158.909 41.1146 158.581 39.8643C158.318 38.5482 158.022 37.0676 157.693 35.4225C157.364 33.7773 157.068 32.0335 156.805 30.1909C156.673 29.0064 156.509 27.3942 156.312 25.3543C156.115 23.3143 155.917 21.3072 155.72 19.3331C155.523 17.2931 155.358 15.5493 155.227 14.1016C155.095 12.6538 155.029 11.93 155.029 11.93C155.029 11.93 154.931 12.4235 154.734 13.4106C154.536 14.3319 154.306 15.3848 154.043 16.5693C153.846 17.6879 153.649 18.7737 153.451 19.8266C153.32 20.8137 153.254 21.373 153.254 21.5046V24.2685C153.254 24.4001 153.155 24.9923 152.958 26.0452C152.827 27.0323 152.629 28.3155 152.366 29.8948C152.103 31.4083 151.807 33.0864 151.478 34.9289C151.215 36.7057 150.952 38.4166 150.689 40.0617C150.426 41.7069 150.196 43.1875 149.999 44.5036C149.867 45.7539 149.802 46.6094 149.802 47.07C149.802 47.3332 149.9 47.4648 150.098 47.4648Z" fill="#D5FF40"/>
<path d="M217 37.3116C217 39.549 216.605 41.6876 215.816 43.7276C215.027 45.7675 213.909 47.7417 212.463 49.6501C211.016 51.5584 209.306 53.4339 207.333 55.2764C205.426 57.0531 203.322 58.797 201.02 60.5079C198.587 62.3505 195.76 64.1272 192.537 65.8382C189.315 67.5491 186.06 69.0626 182.772 70.3787C179.55 71.7606 176.492 72.8464 173.598 73.6361C170.705 74.4257 168.371 74.8206 166.595 74.8206C165.411 74.8206 164.556 74.6561 164.03 74.327C163.439 74.0638 163.143 73.4058 163.143 72.3529C163.143 71.629 163.406 70.7735 163.932 69.7865C164.458 68.7994 164.984 68.3059 165.51 68.3059C166.036 68.3059 166.431 68.4704 166.694 68.7994C166.891 69.1284 166.99 69.4903 166.99 69.8852C166.99 70.0826 166.99 70.2471 166.99 70.3787C166.924 70.5103 166.891 70.609 166.891 70.6748V70.8723C169.39 70.609 172.744 69.8194 176.952 68.5033C181.095 67.253 186.06 65.0485 191.847 61.8898C194.346 60.5079 196.812 58.8957 199.245 57.0532C201.678 55.1448 203.848 53.1377 205.755 51.032C207.728 48.8604 209.306 46.623 210.49 44.3198C211.673 41.9508 212.265 39.6477 212.265 37.4103C212.265 35.831 211.443 34.2187 209.799 32.5736C208.221 30.8627 206.182 29.2833 203.684 27.8356C201.251 26.3221 198.587 25.0389 195.694 23.986C192.8 22.8673 190.104 22.1106 187.605 21.7157C187.671 22.0448 187.77 22.8673 187.901 24.1834C188.033 25.4337 188.23 26.9144 188.493 28.6253C188.756 30.3362 189.052 32.1788 189.381 34.1529C189.775 36.0613 190.203 37.838 190.663 39.4832C191.189 41.3257 191.518 42.7076 191.65 43.6289C191.847 44.4843 191.978 45.2082 192.044 45.8004C192.11 46.4585 192.209 47.314 192.34 48.3669C192.537 49.3539 192.669 50.4068 192.735 51.5255C192.866 52.5784 192.965 53.5984 193.031 54.5855C193.162 55.5067 193.228 56.2306 193.228 56.757C193.228 57.3493 193.096 57.9744 192.833 58.6325C192.636 59.2905 192.373 59.6196 192.044 59.6196C191.255 59.6196 190.696 59.3563 190.367 58.8299C190.104 58.2377 189.841 57.2835 189.578 55.9674C189.381 54.5855 189.118 52.8087 188.789 50.6371C188.46 48.4656 187.835 45.8005 186.915 42.6418C185.6 38.2329 184.679 34.0871 184.153 30.2046C183.627 26.2563 183.298 23.1305 183.167 20.8274C183.167 20.8274 183.002 20.8274 182.673 20.8274C182.41 20.7616 182.016 20.7287 181.49 20.7287C181.029 20.7287 180.47 20.7287 179.813 20.7287C179.221 20.6628 178.662 20.6299 178.136 20.6299C177.018 20.6299 175.999 20.8603 175.078 21.3209C174.157 21.7157 173.401 22.1764 172.809 22.7028C172.152 23.2293 171.626 23.7228 171.231 24.1834C170.771 24.5783 170.475 24.7757 170.343 24.7757C169.883 24.7757 169.258 24.677 168.469 24.4796C167.614 24.2163 167.187 23.7557 167.187 23.0976C167.187 22.2422 167.614 21.3867 168.469 20.5312C169.258 19.61 170.245 18.8203 171.428 18.1623C172.612 17.4384 173.894 16.879 175.275 16.4842C176.656 16.0236 177.939 15.7933 179.122 15.7933C181.095 15.7933 183.397 16.0565 186.027 16.5829C188.657 17.1094 191.354 17.8332 194.116 18.7545C196.943 19.6758 199.705 20.7945 202.401 22.1106C205.163 23.4267 207.629 24.8744 209.799 26.4537C211.969 28.033 213.712 29.744 215.027 31.5865C216.342 33.4291 217 35.3374 217 37.3116Z" fill="#D5FF40"/>
</svg>
