<svg width="265" height="96" viewBox="0 0 265 96" fill="none" xmlns="http://www.w3.org/2000/svg">
<path d="M57.0975 77.0262C57.0975 77.8298 56.7361 78.553 56.0134 79.1959C55.2906 79.8388 54.4875 80.1603 53.6042 80.1603C53.4436 80.1603 53.2026 80.0799 52.8814 79.9192C52.5602 79.6781 52.3193 79.4772 52.1587 79.3165C48.7858 76.102 45.2122 72.9278 41.4378 69.7937C37.6635 66.6596 33.8489 63.4451 29.9942 60.1503C26.1396 56.8555 22.325 53.4 18.5507 49.7837C14.8566 46.1675 11.3633 42.2298 8.07074 37.9707C9.11472 42.3102 10.5201 46.9309 12.2868 51.833C14.0535 56.6546 15.74 61.195 17.3461 65.4542C19.0325 69.7133 20.478 73.4099 21.6826 76.544C22.8872 79.5977 23.4895 81.5264 23.4895 82.33C23.4895 83.2944 23.0879 84.0578 22.2849 84.6203C21.5621 85.2632 20.7992 85.5846 19.9962 85.5846C19.5143 85.5846 18.9923 85.0623 18.4302 84.0176C17.8681 83.0533 17.2256 81.7675 16.5029 80.1603C15.8604 78.553 15.1778 76.7851 14.4551 74.8564C13.8126 72.8474 13.1702 70.8785 12.5277 68.9499C11.8853 66.9408 11.283 65.0926 10.7208 63.405C10.1587 61.637 9.71701 60.1905 9.39579 59.0655L6.1434 49.3016C5.42065 47.2122 4.69789 45.0826 3.97514 42.9129C3.25239 40.6628 2.56979 38.5734 1.92734 36.6447C1.3652 34.716 0.883365 33.0284 0.481835 31.5819C0.160612 30.1354 0 29.1711 0 28.6889C0 27.805 0.120459 26.921 0.361376 26.037C0.602294 25.0727 1.04398 24.5905 1.68642 24.5905C2.08795 24.5905 2.36902 24.7111 2.52964 24.9521C2.69025 25.1129 2.85086 25.1932 3.01147 25.1932L4.45698 24.5905C4.85851 24.5905 5.54111 25.1129 6.50478 26.1576C7.54875 27.1219 8.71319 28.4077 9.99808 30.0149C11.3633 31.6221 12.8088 33.4302 14.3346 35.4393C15.8604 37.4483 17.3862 39.4172 18.912 41.3458C20.5182 43.2745 22.0038 45.0826 23.369 46.7702C24.8145 48.4578 26.0994 49.7837 27.2237 50.7481C28.9904 52.3553 30.7572 53.8822 32.5239 55.3287C34.2906 56.7752 36.0573 58.2618 37.8241 59.7887C39.6711 61.2352 41.5984 62.8023 43.6061 64.4898C45.6137 66.1774 47.8222 68.1061 50.2313 70.2758C50.3116 70.3562 50.5124 70.3964 50.8336 70.3964C50.9942 70.3964 51.0745 70.1955 51.0745 69.7937C51.0745 69.3919 51.0745 68.9097 51.0745 68.3472C51.0745 67.2221 50.7533 65.2131 50.1109 62.3201C49.4684 59.3467 48.5449 55.9314 47.3403 52.074C46.216 48.1363 44.891 43.9576 43.3652 39.5377C41.8394 35.0375 40.1931 30.7381 38.4264 26.6397C36.7399 22.4609 34.9331 18.684 33.0057 15.3088C31.1587 11.9336 29.3518 9.32189 27.5851 7.47358C27.1032 6.99142 26.7419 6.26817 26.5009 5.30384C26.3403 4.33951 26.26 3.53589 26.26 2.893C26.26 2.33048 26.6214 1.72777 27.3442 1.08488C28.1472 0.361625 28.87 0 29.5124 0C30.4761 0 31.5602 0.964335 32.7648 2.893C33.9694 4.82167 35.2543 7.35304 36.6195 10.4871C37.9847 13.5409 39.3499 16.9964 40.7151 20.8537C42.1606 24.7111 43.5659 28.6086 44.9311 32.5463C46.5373 37.2072 48.0229 41.828 49.3881 46.4086C50.8336 50.9088 52.0784 55.1278 53.1223 59.0655C54.2466 63.0032 55.13 66.5391 55.7724 69.6731C56.4952 72.8072 56.9369 75.2582 57.0975 77.0262Z" fill="#D5FF40"/>
<path d="M100.421 50.6275C100.582 51.6722 100.662 52.516 100.662 53.1589C100.742 53.8018 100.783 54.4447 100.783 55.0876C100.783 57.0966 100.502 59.4673 99.9394 62.1995C99.4576 64.9318 98.5742 67.5436 97.2893 70.0348C96.0847 72.4456 94.4385 74.535 92.3505 76.3029C90.3429 77.9905 87.7731 78.8343 84.6411 78.8343C81.7501 78.8343 79.0197 78.0307 76.4499 76.4235C73.8802 74.7359 71.5914 72.6063 69.5838 70.0348C67.5762 67.3828 65.97 64.4497 64.7654 61.2352C63.6412 57.9404 63.079 54.6858 63.079 51.4713C63.079 46.8104 63.3601 42.8325 63.9222 39.5377C64.5647 36.1625 65.448 33.2293 66.5723 30.7381C66.5723 30.4971 66.4117 30.256 66.0905 30.0149C65.8496 29.7738 65.7291 29.4524 65.7291 29.0506C65.7291 28.6488 66.0905 28.1264 66.8132 27.4835C67.6163 26.8406 68.5398 26.2379 69.5838 25.6754C70.7081 25.0325 71.7922 24.5102 72.8362 24.1084C73.9605 23.6262 74.8037 23.3851 75.3658 23.3851C75.687 23.3851 76.209 23.5458 76.9318 23.8673C77.7348 24.1887 78.7387 24.3494 79.9433 24.3494C80.3448 24.3494 80.7463 24.3093 81.1478 24.2289C81.5494 24.1485 81.9911 24.1084 82.4729 24.1084C84.1593 24.1084 85.9662 24.912 87.8935 26.5192C89.9012 28.0461 91.7482 30.0551 93.4347 32.5463C95.2014 35.0375 96.687 37.8903 97.8916 41.1047C99.1765 44.2388 100.02 47.4131 100.421 50.6275ZM95.6029 55.3287C95.6029 53.8018 95.2817 51.632 94.6392 48.8194C93.9968 45.9264 93.0331 43.1138 91.7482 40.3815C90.4633 37.5688 88.8974 35.1178 87.0503 33.0284C85.2836 30.939 83.2759 29.8944 81.0274 29.8944C80.8668 29.8944 80.5455 29.8944 80.0637 29.8944C79.6622 29.814 79.1803 29.7738 78.6182 29.7738C78.0561 29.6934 77.5341 29.6533 77.0522 29.6533C76.5704 29.5729 76.2893 29.5327 76.209 29.5327C74.9241 29.5327 73.7999 30.1354 72.8362 31.3409C71.9528 32.5463 71.1899 34.1133 70.5475 36.042C69.9853 37.9707 69.5436 40.1806 69.2224 42.6718C68.9012 45.163 68.7406 47.6542 68.7406 50.1454C68.7406 51.0293 68.9815 52.7571 69.4633 55.3287C69.9452 57.8199 70.7884 60.4316 71.993 63.1639C73.2779 65.8158 74.9643 68.1865 77.0522 70.2758C79.1402 72.3652 81.7903 73.4099 85.0025 73.4099C87.1708 73.4099 88.9375 72.767 90.3027 71.4813C91.6679 70.1151 92.7119 68.4677 93.4347 66.5391C94.2377 64.6104 94.7999 62.6415 95.1211 60.6325C95.4423 58.5431 95.6029 56.7752 95.6029 55.3287Z" fill="#D5FF40"/>
<path d="M168.158 88.2366C168.318 88.7187 168.479 89.1607 168.64 89.5625C168.8 89.9643 168.921 90.4063 169.001 90.8885C169.162 91.3706 169.242 91.8126 169.242 92.2144C169.242 92.777 169.041 93.219 168.64 93.5404C168.238 93.9422 167.756 94.2637 167.194 94.5047C166.712 94.7458 166.23 94.9066 165.749 94.9869C165.267 95.0673 164.986 95.1074 164.905 95.1074C164.423 95.1074 163.54 93.6208 162.255 90.6474C160.97 87.7544 159.565 83.656 158.039 78.3521C156.594 73.0483 155.108 66.74 153.582 59.4271C152.056 52.1142 150.812 44.0781 149.848 35.3187C149.687 37.167 149.366 39.3368 148.884 41.828C148.483 44.2388 147.84 46.5291 146.957 48.6989C146.074 50.8686 144.909 52.7169 143.464 54.2438C142.098 55.6903 140.332 56.4135 138.163 56.4135C136.638 56.4135 134.911 55.6099 132.984 54.0027C131.056 52.3955 129.169 50.507 127.322 48.3372C125.555 46.0871 123.909 43.837 122.383 41.5869C120.938 39.2564 119.854 37.3679 119.131 35.9214C119.452 39.4573 119.974 43.7165 120.697 48.6989C121.5 53.6813 122.705 58.9449 124.311 64.4898C124.471 65.0524 124.632 65.4944 124.793 65.8158C125.033 66.0569 125.234 66.3381 125.395 66.6596C125.636 66.981 125.796 67.3427 125.877 67.7445C126.037 68.0659 126.118 68.5883 126.118 69.3115C126.118 70.3562 125.716 71.1196 124.913 71.6018C124.11 72.084 123.347 72.3251 122.624 72.3251C122.223 72.3251 121.701 71.7223 121.058 70.5169C120.416 69.2311 119.733 67.5837 119.01 65.5747C118.288 63.5657 117.565 61.3558 116.842 58.9449C116.119 56.4537 115.437 54.0027 114.794 51.5919C114.232 49.181 113.75 46.9309 113.349 44.8415C112.947 42.6718 112.747 40.944 112.747 39.6582C112.747 37.5688 112.827 36.1223 112.988 35.3187C113.228 34.5151 113.55 33.9124 113.951 33.5106V26.1576C113.951 25.0325 114.232 24.1887 114.794 23.6262C115.437 22.9833 116.24 22.6618 117.204 22.6618C118.007 22.6618 118.93 23.3449 119.974 24.7111C121.018 26.0772 122.142 27.805 123.347 29.8944C124.632 31.9837 125.957 34.2339 127.322 36.6447C128.687 39.0555 130.012 41.3056 131.297 43.395C132.662 45.4844 133.947 47.2122 135.152 48.5783C136.437 49.9445 137.641 50.6275 138.766 50.6275C139.81 50.6275 140.814 49.6632 141.777 47.7345C142.741 45.7255 143.624 43.1138 144.427 39.8993C145.311 36.6849 146.074 33.0284 146.716 28.93C147.358 24.8316 147.88 20.6528 148.282 16.3937C148.282 15.9115 148.242 15.3892 148.162 14.8266C148.081 14.1837 148.041 13.5007 148.041 12.7774C148.041 11.8131 148.242 10.7684 148.643 9.64334C149.125 8.51828 150.009 7.95575 151.293 7.95575C152.016 7.95575 152.578 8.15666 152.98 8.55846C153.462 8.96027 153.783 9.48262 153.944 10.1255C154.104 10.688 154.184 11.2907 154.184 11.9336C154.265 12.4962 154.305 12.9783 154.305 13.3801C154.305 14.023 154.225 15.1079 154.064 16.6348C153.984 18.0813 153.944 20.3314 153.944 23.3851C153.944 26.037 154.144 29.1309 154.546 32.6668C154.947 36.1223 155.469 39.819 156.112 43.7567C156.835 47.614 157.638 51.6321 158.521 55.8108C159.485 59.9093 160.488 63.9273 161.532 67.865C162.657 71.8027 163.741 75.5395 164.785 79.0754C165.909 82.5309 167.033 85.5847 168.158 88.2366Z" fill="#D5FF40"/>
<path d="M210.041 85.568C210.121 85.8894 210.161 86.1707 210.161 86.4117C210.161 86.7332 210.161 86.9743 210.161 87.135C210.161 87.9386 209.96 88.5011 209.559 88.8226C209.238 89.144 208.555 89.3047 207.511 89.3047C206.547 89.3047 205.905 89.144 205.584 88.8226C205.102 88.3404 204.459 87.0948 203.656 85.0858C202.853 83.0768 202.01 80.7061 201.127 77.9738C200.243 75.2415 199.36 72.3084 198.477 69.1743C197.674 66.0402 196.951 63.0668 196.308 60.2542C195.425 60.656 194.22 61.098 192.695 61.5801C191.169 61.9819 189.603 62.3838 187.997 62.7856C186.15 63.1874 184.222 63.6294 182.215 64.1115C181.492 67.5671 180.93 70.5404 180.528 73.0316C180.207 75.4424 179.886 77.4515 179.565 79.0587C179.324 80.5856 178.962 81.7106 178.48 82.4339C178.079 83.2375 177.396 83.6393 176.433 83.6393C175.79 83.6393 175.228 83.2777 174.746 82.5544C174.264 81.8312 174.023 80.7463 174.023 79.2998C174.023 78.5765 174.224 76.8889 174.626 74.237C175.027 71.5851 175.469 68.6519 175.951 65.4375C176.433 62.1427 176.914 58.888 177.396 55.6736C177.878 52.4592 178.199 49.9278 178.36 48.0795C178.44 47.1151 178.681 45.5481 179.083 43.3783C179.565 41.2086 180.046 38.9987 180.528 36.7485C181.01 34.4181 181.492 32.3287 181.974 30.4804C182.456 28.6321 182.777 27.5874 182.937 27.3463C184.222 24.3729 185.025 21.3192 185.347 18.1851C185.748 15.051 186.029 12.1982 186.19 9.62665C186.431 6.97473 186.792 4.84516 187.274 3.23793C187.756 1.55035 188.76 0.706561 190.285 0.706561C190.687 0.706561 191.088 1.02801 191.49 1.6709C191.972 2.31378 192.414 3.07722 192.815 3.96119C193.217 4.84516 193.538 5.72913 193.779 6.61311C194.02 7.41672 194.18 8.05961 194.261 8.54177C194.341 9.02394 194.421 9.98827 194.501 11.4348C194.662 12.8813 194.783 14.4885 194.863 16.2564C195.023 17.944 195.144 19.6316 195.224 21.3192C195.385 22.9264 195.505 24.172 195.586 25.056C195.827 27.7079 196.188 30.6813 196.67 33.9761C197.232 37.2709 197.794 40.3648 198.356 43.2578C198.918 46.1508 199.44 48.6018 199.922 50.6109C200.404 52.5395 200.765 53.5039 201.006 53.5039C201.327 53.5039 201.729 53.4235 202.211 53.2628C202.773 53.102 203.295 53.0217 203.777 53.0217C204.419 53.0217 204.74 53.3431 204.74 53.986C204.74 54.6289 204.58 55.1513 204.259 55.5531C203.937 55.9549 203.576 56.3165 203.175 56.6379C202.853 56.9594 202.532 57.2406 202.211 57.4817C201.97 57.7228 201.849 58.0041 201.849 58.3255C201.849 58.9684 202.211 60.6158 202.934 63.2677L204.861 70.3797C205.022 71.0226 205.383 72.1075 205.945 73.6343C206.507 75.1612 207.069 76.7684 207.632 78.456C208.274 80.0632 208.836 81.5499 209.318 82.916C209.8 84.3625 210.041 85.2465 210.041 85.568ZM183.299 57.9639C183.781 57.9639 184.664 57.8434 185.949 57.6023C187.234 57.2808 188.559 56.9192 189.924 56.5174C191.289 56.1156 192.494 55.7138 193.538 55.312C194.582 54.9102 195.104 54.5887 195.104 54.3476C195.104 54.1066 194.943 53.5039 194.622 52.5395C194.381 51.4948 194.06 50.209 193.658 48.6822C193.337 47.075 192.976 45.2668 192.574 43.2578C192.173 41.2488 191.811 39.1192 191.49 36.8691C191.329 35.4226 191.129 33.4537 190.888 30.9625C190.647 28.4713 190.406 26.0203 190.165 23.6095C189.924 21.1183 189.723 18.9887 189.563 17.2208C189.402 15.4528 189.322 14.5689 189.322 14.5689C189.322 14.5689 189.201 15.1716 188.96 16.377C188.719 17.502 188.438 18.7878 188.117 20.2343C187.876 21.6005 187.635 22.9264 187.394 24.2122C187.234 25.4176 187.154 26.1007 187.154 26.2614V29.6366C187.154 29.7973 187.033 30.5206 186.792 31.8063C186.631 33.0118 186.391 34.5788 186.069 36.5075C185.748 38.3558 185.387 40.405 184.985 42.6551C184.664 44.8248 184.343 46.9142 184.022 48.9233C183.7 50.9323 183.419 52.7404 183.178 54.3476C183.018 55.8745 182.937 56.9192 182.937 57.4817C182.937 57.8032 183.058 57.9639 183.299 57.9639Z" fill="#D5FF40"/>
<path d="M265 45.5648C265 48.2971 264.518 50.9088 263.555 53.4C262.591 55.8912 261.226 58.302 259.459 60.6325C257.692 62.963 255.604 65.2533 253.195 67.5034C250.866 69.6731 248.296 71.8027 245.486 73.8921C242.514 76.1422 239.061 78.312 235.126 80.4014C231.191 82.4907 227.216 84.339 223.201 85.9463C219.266 87.6339 215.532 88.9598 211.998 89.9242C208.465 90.8885 205.614 91.3707 203.446 91.3707C202 91.3707 200.956 91.1697 200.314 90.7679C199.591 90.4465 199.229 89.6429 199.229 88.3571C199.229 87.4731 199.551 86.4284 200.193 85.223C200.836 84.0176 201.478 83.4149 202.121 83.4149C202.763 83.4149 203.245 83.6158 203.566 84.0176C203.807 84.4194 203.927 84.8614 203.927 85.3436C203.927 85.5846 203.927 85.7855 203.927 85.9463C203.847 86.107 203.807 86.2275 203.807 86.3079V86.549C206.859 86.2275 210.954 85.2632 216.094 83.656C221.153 82.1291 227.216 79.437 234.283 75.5797C237.335 73.8921 240.346 71.9233 243.317 69.6731C246.289 67.3427 248.939 64.8916 251.268 62.3201C253.677 59.6682 255.604 56.9359 257.05 54.1232C258.495 51.2302 259.218 48.4176 259.218 45.6853C259.218 43.7567 258.214 41.7878 256.207 39.7788C254.279 37.6894 251.79 35.7607 248.738 33.9928C245.767 32.1445 242.514 30.5774 238.981 29.2916C235.447 27.9255 232.155 27.0014 229.103 26.5192C229.184 26.921 229.304 27.9255 229.465 29.5327C229.625 31.0596 229.866 32.8677 230.187 34.9571C230.509 37.0465 230.87 39.2966 231.272 41.7074C231.753 44.0379 232.275 46.2077 232.837 48.2167C233.48 50.4668 233.881 52.1544 234.042 53.2795C234.283 54.3241 234.444 55.2081 234.524 55.9314C234.604 56.735 234.725 57.7797 234.885 59.0655C235.126 60.2709 235.287 61.5566 235.367 62.9228C235.528 64.2086 235.648 65.4542 235.729 66.6596C235.889 67.7846 235.969 68.6686 235.969 69.3115C235.969 70.0348 235.809 70.7982 235.488 71.6018C235.247 72.4054 234.925 72.8072 234.524 72.8072C233.56 72.8072 232.878 72.4858 232.476 71.8429C232.155 71.1196 231.834 69.9544 231.512 68.3472C231.272 66.6596 230.95 64.4898 230.549 61.8379C230.147 59.186 229.384 55.9314 228.26 52.074C226.654 46.6898 225.53 41.6271 224.887 36.8858C224.245 32.0641 223.843 28.247 223.683 25.4343C223.683 25.4343 223.482 25.4343 223.08 25.4343C222.759 25.354 222.277 25.3138 221.635 25.3138C221.073 25.3138 220.39 25.3138 219.587 25.3138C218.864 25.2334 218.182 25.1932 217.539 25.1932C216.174 25.1932 214.929 25.4745 213.805 26.037C212.681 26.5192 211.757 27.0817 211.034 27.7246C210.231 28.3675 209.589 28.9702 209.107 29.5327C208.545 30.0149 208.184 30.256 208.023 30.256C207.461 30.256 206.698 30.1354 205.734 29.8944C204.69 29.5729 204.168 29.0104 204.168 28.2068C204.168 27.1621 204.69 26.1174 205.734 25.0727C206.698 23.9476 207.903 22.9833 209.348 22.1797C210.794 21.2957 212.36 20.6126 214.046 20.1305C215.732 19.5679 217.298 19.2867 218.744 19.2867C221.153 19.2867 223.964 19.6081 227.176 20.251C230.388 20.8939 233.681 21.7779 237.054 22.9029C240.507 24.028 243.88 25.3941 247.172 27.0014C250.545 28.6086 253.556 30.3765 256.207 32.3052C258.857 34.2339 260.985 36.3232 262.591 38.5734C264.197 40.8235 265 43.1539 265 45.5648Z" fill="#D5FF40"/>
</svg>
