<svg width="83" height="95" viewBox="0 0 83 95" fill="none" xmlns="http://www.w3.org/2000/svg">
<path d="M53.3691 15.4684V80.4057C53.3691 82.1142 51.9853 83.4979 50.2768 83.4979H3.89303C2.18456 83.4979 0.800781 82.1142 0.800781 80.4057L0.800781 15.4684C0.800781 13.7599 2.18456 12.3761 3.89303 12.3761H50.2768C51.9853 12.3761 53.3691 13.7599 53.3691 15.4684Z" fill="#5C5C5C"/>
<path d="M50.2764 15.4684H3.89258L3.89258 80.4057H50.2764V15.4684Z" fill="white"/>
<path d="M47.1847 24.7451H6.98535V27.8374H47.1847V24.7451Z" fill="#D3D3D3"/>
<path d="M47.1847 34.0219H6.98535V37.1141H47.1847V34.0219Z" fill="#D3D3D3"/>
<path d="M39.454 41.7524H6.98535V44.8447H39.454V41.7524Z" fill="#D3D3D3"/>
<path d="M27.0849 0.00708008C23.6695 0.00708008 20.9004 2.77619 20.9004 6.19159V15.4683H27.0849H33.2694V6.19159C33.2694 2.77619 30.5003 0.00708008 27.0849 0.00708008ZM27.0849 7.73771C26.2314 7.73771 25.5388 7.04505 25.5388 6.19159C25.5388 5.33813 26.2314 4.64546 27.0849 4.64546C27.9384 4.64546 28.631 5.33813 28.631 6.19159C28.631 7.04505 27.9384 7.73771 27.0849 7.73771Z" fill="#5C5C5C"/>
<path d="M37.9077 17.0145H16.2619C15.4085 17.0145 14.7158 16.3218 14.7158 15.4683V12.3761C14.7158 11.5226 15.4085 10.83 16.2619 10.83H37.9077C38.7612 10.83 39.4538 11.5226 39.4538 12.3761V15.4683C39.4538 16.3218 38.7612 17.0145 37.9077 17.0145Z" fill="#5C5C5C"/>
<path d="M33.2694 9.28381H20.9004V10.8299H33.2694V9.28381Z" fill="#151515"/>
<path d="M73.4684 92.7748L42.5459 61.8522L50.2765 54.1216L81.1991 85.0441C83.3343 87.1793 83.3343 90.6396 81.1991 92.7748C79.0639 94.91 75.6036 94.91 73.4684 92.7748Z" fill="#5C5C5C"/>
<path d="M50.2765 54.1216L42.5459 61.8522L57.6856 76.9919C60.8381 75.0639 63.4882 72.4138 65.4162 69.2613L50.2765 54.1216Z" fill="#151515"/>
<path d="M45.6387 77.3134C56.7394 77.3134 65.7384 68.3145 65.7384 57.2138C65.7384 46.1131 56.7394 37.1141 45.6387 37.1141C34.538 37.1141 25.5391 46.1131 25.5391 57.2138C25.5391 68.3145 34.538 77.3134 45.6387 77.3134Z" fill="#5C5C5C"/>
<path d="M45.6383 74.2212C55.0312 74.2212 62.6456 66.6067 62.6456 57.2138C62.6456 47.8209 55.0312 40.2064 45.6383 40.2064C36.2453 40.2064 28.6309 47.8209 28.6309 57.2138C28.6309 66.6067 36.2453 74.2212 45.6383 74.2212Z" fill="#6A6A6A"/>
<path d="M42.5465 66.2262L34.1758 57.854L38.5482 53.4815L42.5465 57.4782L52.7293 47.297L57.1018 51.6694L42.5465 66.2262Z" fill="#D5FF40"/>
</svg>
