<svg width="51" height="51" viewBox="0 0 51 51" fill="none" xmlns="http://www.w3.org/2000/svg">
<path d="M25.5996 0.599976C11.7782 0.599976 0.599609 11.7785 0.599609 25.6C0.599609 39.4214 11.7782 50.6 25.5996 50.6C39.421 50.6 50.5996 39.4214 50.5996 25.6C50.5996 11.7785 39.421 0.599976 25.5996 0.599976ZM33.3139 5.63569C38.921 7.81426 43.3853 12.2428 45.5639 17.85L35.6353 21.9571C34.5639 18.9928 32.2068 16.6357 29.2425 15.5643L33.3139 5.63569ZM17.8853 5.63569L22.0282 15.5285C18.9925 16.6 16.6353 18.9571 15.5282 21.9928L5.63532 17.8857C7.81389 12.2785 12.2782 7.81426 17.8853 5.63569ZM17.8496 45.5643C12.2425 43.3857 7.77818 38.9214 5.59961 33.3143L15.5282 29.2071C16.5996 32.2071 18.9925 34.6 21.9925 35.6714L17.8496 45.5643ZM18.4568 25.6C18.4568 21.6714 21.671 18.4571 25.5996 18.4571C29.5282 18.4571 32.7425 21.6714 32.7425 25.6C32.7425 29.5285 29.5282 32.7428 25.5996 32.7428C21.671 32.7428 18.4568 29.5285 18.4568 25.6ZM33.3496 45.5643L29.2425 35.6357C32.2425 34.5643 34.5996 32.1714 35.6353 29.1714L45.5282 33.3143C43.3853 38.9571 38.9568 43.3857 33.3496 45.5643Z" fill="black"/>
</svg>
