<svg xmlns:xlink="http://www.w3.org/1999/xlink" xmlns="http://www.w3.org/2000/svg" width="201" height="42" viewBox="0 0 201 42">
    <g fill="none">
        <path fill="#0E0E0E" d="M73.864 9.847c1.263 0 2.34.094 3.322.282.983.189 1.919.518 2.855.941v3.294c-1.825-.894-3.65-1.317-5.475-1.317-1.31 0-2.34.235-3.088.752-.749.47-1.077 1.177-1.077 2.07 0 .66.188 1.177.515 1.6.328.424.796.753 1.31 1.035.562.283 1.544.706 2.948 1.318 1.45.611 2.574 1.176 3.416 1.788.842.564 1.45 1.27 1.919 2.07.42.8.655 1.74.655 2.87 0 1.93-.702 3.435-2.106 4.517-1.404 1.082-3.463 1.6-6.177 1.6-1.357-.094-2.62-.189-3.883-.424-1.264-.235-2.293-.564-3.089-.94v-3.388c1.03.517 2.106.894 3.276 1.129 1.123.235 2.246.376 3.369.376 1.404 0 2.433-.282 3.182-.8.748-.517 1.076-1.223 1.076-2.164 0-.659-.187-1.176-.515-1.6-.327-.423-.842-.8-1.45-1.129-.655-.33-1.638-.753-2.948-1.27-2.012-.847-3.51-1.741-4.399-2.776-.889-1.035-1.357-2.306-1.357-3.811 0-1.177.328-2.259.983-3.153.655-.894 1.544-1.647 2.714-2.117 1.17-.518 2.48-.753 4.024-.753zm22.18.424V23.68c0 1.74.468 3.058 1.45 3.952.983.894 2.246 1.365 3.884 1.365s2.901-.47 3.884-1.365c.983-.894 1.45-2.211 1.45-3.952V10.27h3.931v13.363c0 2.729-.795 4.94-2.34 6.54-1.544 1.6-3.883 2.447-6.925 2.447-3.041-.047-5.334-.847-6.925-2.447-1.544-1.6-2.34-3.811-2.34-6.54V10.27h3.93zm37.34-.471c1.545 0 2.948.188 4.165.518 1.217.329 2.34.846 3.322 1.6v3.763c-.936-.8-1.965-1.364-3.135-1.74-1.17-.377-2.527-.518-4.024-.518-1.497 0-2.854.33-4.071.94-1.217.66-2.152 1.554-2.854 2.73s-1.077 2.54-1.077 4.093c0 1.6.328 2.964.983 4.14.655 1.177 1.591 2.071 2.76 2.73 1.17.658 2.528.94 4.025.94 1.591 0 2.901-.282 3.93-.8v-4.892h-3.65V20.15h7.628v10.21c-1.918 1.506-4.632 2.259-8.048 2.259-2.246-.047-4.305-.518-6.037-1.412-1.778-.94-3.135-2.258-4.117-3.952-.983-1.741-1.45-3.717-1.45-6.023 0-2.305.467-4.281 1.45-6.022.982-1.741 2.34-3.058 4.117-4 1.779-.94 3.79-1.411 6.083-1.411zm31.164.47l8.657 21.88h-4.024l-2.012-5.035h-9.218l-1.966 5.034h-4.024l8.75-21.878h3.837zm28.918 0c2.387 0 4.259.612 5.569 1.788 1.31 1.177 1.965 2.918 1.965 5.176 0 1.6-.374 2.964-1.17 4.093-.795 1.13-1.918 1.93-3.369 2.4l4.399 8.422h-4.025l-4.21-7.999h-4.306v8h-3.93V10.27h9.077zm-30.883 4.235l-3.51 9.27h7.02l-3.51-9.27zm30.135-.988h-4.399v7.293h4.445c1.264 0 2.34-.282 3.089-.894.795-.612 1.17-1.506 1.17-2.729 0-2.447-1.451-3.67-4.305-3.67z"/>
        <path fill="#2969FF" d="M38.493 15.773l6.93 1.634L31.938 30.8l6.556-15.027zM6.416 17.36l7.07-1.633 6.697 15.4L6.416 17.36zm10.723-2.52l8.804-2.053 8.944 2.1-8.85 20.3-8.898-20.347zm-.515-10.08l6.93 4.807L8.196 13.16l8.43-8.4zm11.66 4.807l6.931-4.807 8.476 8.447-15.407-3.64zM25.943 6.72L16.203 0 0 16.147 25.943 42l25.943-25.853L35.683 0l-9.74 6.72z"/>
    </g>
</svg>