<svg width="135" height="80" viewBox="0 0 135 80" fill="none" xmlns="http://www.w3.org/2000/svg">
<path d="M0.5 13.3617C0.5 6.22576 6.68997 0.666613 13.7849 1.43068L64.2524 6.86564C65.0819 6.95497 65.9184 6.95755 66.7484 6.87335L121.289 1.34026C128.359 0.623013 134.5 6.17265 134.5 13.279V67.099C134.5 74.068 128.583 79.5713 121.633 79.0676L66.394 75.0648C65.7988 75.0217 65.2013 75.023 64.6063 75.0687L13.4204 79.0061C6.45082 79.5422 0.5 74.0316 0.5 67.0415V13.3617Z" fill="url(#paint0_linear_3901_6632)"/>
<path d="M49.3837 52.4296C49.0355 52.6237 48.6934 52.7944 48.3576 52.9394C47.0634 53.5658 45.4903 53.8791 43.6392 53.8791C40.057 53.8791 37.3502 52.889 34.883 50.2727C33.921 49.2544 33.1505 48.1439 32.5627 46.9451H42.2636V42.2921H31.2649C31.2106 41.7541 31.1797 41.2051 31.1797 40.6413C31.1797 39.9792 31.2192 39.3355 31.2921 38.7079H42.2636V34.0549H32.6578C33.232 32.9126 33.9729 31.8488 34.883 30.8674C37.3366 28.1896 40.0347 27.1676 43.617 27.1676C45.0482 27.1676 46.4596 27.4268 47.85 27.9415L49.9554 23.3463C47.8352 22.4508 46.2052 22 43.9776 22C38.243 22 33.8889 23.899 30.277 28.3309C28.8286 30.1169 27.7394 32.0245 27.0059 34.0549H22.5V38.7079H25.9724C25.9106 39.3576 25.8761 40.0173 25.8761 40.6879C25.8761 41.2321 25.8995 41.7652 25.939 42.2921H22.5V46.9451H26.859C27.7197 49.5025 29.1434 51.8179 31.1352 53.8901C34.657 57.5076 38.59 59 43.5713 59C45.9595 59 48.2686 58.5369 50.5 57.6169L49.3837 52.4296Z" fill="white"/>
<path d="M67.6875 55H61.6523V38.4766C61.6523 38.0208 61.6589 37.4609 61.6719 36.7969C61.6849 36.1198 61.7044 35.4297 61.7305 34.7266C61.7565 34.0104 61.7826 33.3659 61.8086 32.793C61.6654 32.9622 61.3724 33.2552 60.9297 33.6719C60.5 34.0755 60.0964 34.4401 59.7188 34.7656L56.4375 37.4023L53.5273 33.7695L62.7266 26.4453H67.6875V55ZM95.4609 40.7227C95.4609 43.0273 95.2786 45.0846 94.9141 46.8945C94.5625 48.7044 93.9896 50.2409 93.1953 51.5039C92.4141 52.7669 91.3854 53.7305 90.1094 54.3945C88.8333 55.0586 87.2839 55.3906 85.4609 55.3906C83.1693 55.3906 81.2878 54.8112 79.8164 53.6523C78.3451 52.4805 77.2578 50.8008 76.5547 48.6133C75.8516 46.4128 75.5 43.7826 75.5 40.7227C75.5 37.6367 75.819 35 76.457 32.8125C77.1081 30.612 78.1628 28.9258 79.6211 27.7539C81.0794 26.582 83.026 25.9961 85.4609 25.9961C87.7396 25.9961 89.6146 26.582 91.0859 27.7539C92.5703 28.9128 93.6706 30.5924 94.3867 32.793C95.1029 34.9805 95.4609 37.6237 95.4609 40.7227ZM81.4961 40.7227C81.4961 42.8971 81.6133 44.7135 81.8477 46.1719C82.0951 47.6172 82.5052 48.7044 83.0781 49.4336C83.651 50.1628 84.4453 50.5273 85.4609 50.5273C86.4635 50.5273 87.2513 50.1693 87.8242 49.4531C88.4102 48.724 88.8268 47.6367 89.0742 46.1914C89.3216 44.7331 89.4453 42.9102 89.4453 40.7227C89.4453 38.5482 89.3216 36.7318 89.0742 35.2734C88.8268 33.8151 88.4102 32.7214 87.8242 31.9922C87.2513 31.25 86.4635 30.8789 85.4609 30.8789C84.4453 30.8789 83.651 31.25 83.0781 31.9922C82.5052 32.7214 82.0951 33.8151 81.8477 35.2734C81.6133 36.7318 81.4961 38.5482 81.4961 40.7227ZM118.352 40.7227C118.352 43.0273 118.169 45.0846 117.805 46.8945C117.453 48.7044 116.88 50.2409 116.086 51.5039C115.305 52.7669 114.276 53.7305 113 54.3945C111.724 55.0586 110.174 55.3906 108.352 55.3906C106.06 55.3906 104.178 54.8112 102.707 53.6523C101.236 52.4805 100.148 50.8008 99.4453 48.6133C98.7422 46.4128 98.3906 43.7826 98.3906 40.7227C98.3906 37.6367 98.7096 35 99.3477 32.8125C99.9987 30.612 101.053 28.9258 102.512 27.7539C103.97 26.582 105.917 25.9961 108.352 25.9961C110.63 25.9961 112.505 26.582 113.977 27.7539C115.461 28.9128 116.561 30.5924 117.277 32.793C117.993 34.9805 118.352 37.6237 118.352 40.7227ZM104.387 40.7227C104.387 42.8971 104.504 44.7135 104.738 46.1719C104.986 47.6172 105.396 48.7044 105.969 49.4336C106.542 50.1628 107.336 50.5273 108.352 50.5273C109.354 50.5273 110.142 50.1693 110.715 49.4531C111.301 48.724 111.717 47.6367 111.965 46.1914C112.212 44.7331 112.336 42.9102 112.336 40.7227C112.336 38.5482 112.212 36.7318 111.965 35.2734C111.717 33.8151 111.301 32.7214 110.715 31.9922C110.142 31.25 109.354 30.8789 108.352 30.8789C107.336 30.8789 106.542 31.25 105.969 31.9922C105.396 32.7214 104.986 33.8151 104.738 35.2734C104.504 36.7318 104.387 38.5482 104.387 40.7227Z" fill="white"/>
<defs>
<linearGradient id="paint0_linear_3901_6632" x1="12" y1="24.5" x2="134.5" y2="24.5" gradientUnits="userSpaceOnUse">
<stop stop-color="#389B72"/>
<stop offset="1" stop-color="#217351"/>
</linearGradient>
</defs>
</svg>
