<svg width="135" height="80" viewBox="0 0 135 80" fill="none" xmlns="http://www.w3.org/2000/svg">
<path d="M0.5 13.3617C0.5 6.22576 6.68997 0.666613 13.7849 1.43068L64.2524 6.86564C65.0819 6.95497 65.9184 6.95755 66.7484 6.87335L121.289 1.34026C128.359 0.623013 134.5 6.17265 134.5 13.279V67.099C134.5 74.068 128.583 79.5713 121.633 79.0676L66.394 75.0648C65.7988 75.0217 65.2013 75.023 64.6063 75.0687L13.4204 79.0061C6.45082 79.5422 0.5 74.0316 0.5 67.0415V13.3617Z" fill="url(#paint0_linear_3901_6634)"/>
<path d="M49.3837 52.4296C49.0355 52.6237 48.6934 52.7944 48.3576 52.9394C47.0634 53.5658 45.4903 53.8791 43.6392 53.8791C40.057 53.8791 37.3502 52.889 34.883 50.2727C33.921 49.2544 33.1505 48.1439 32.5627 46.9451H42.2636V42.2921H31.2649C31.2106 41.7541 31.1797 41.2051 31.1797 40.6413C31.1797 39.9792 31.2192 39.3355 31.2921 38.7079H42.2636V34.0549H32.6578C33.232 32.9126 33.9729 31.8488 34.883 30.8674C37.3366 28.1896 40.0347 27.1676 43.617 27.1676C45.0482 27.1676 46.4596 27.4268 47.85 27.9415L49.9554 23.3463C47.8352 22.4508 46.2052 22 43.9776 22C38.243 22 33.8889 23.899 30.277 28.3309C28.8286 30.1169 27.7394 32.0245 27.0059 34.0549H22.5V38.7079H25.9724C25.9106 39.3576 25.8761 40.0173 25.8761 40.6879C25.8761 41.2321 25.8995 41.7652 25.939 42.2921H22.5V46.9451H26.859C27.7197 49.5025 29.1434 51.8179 31.1352 53.8901C34.657 57.5076 38.59 59 43.5713 59C45.9595 59 48.2686 58.5369 50.5 57.6169L49.3837 52.4296Z" fill="white"/>
<path d="M84.1719 55H64.2109V50.8008L71.3789 43.5547C72.8242 42.0703 73.9831 40.8333 74.8555 39.8438C75.7409 38.8411 76.3789 37.9297 76.7695 37.1094C77.1732 36.2891 77.375 35.4102 77.375 34.4727C77.375 33.3398 77.056 32.4935 76.418 31.9336C75.793 31.3607 74.9531 31.0742 73.8984 31.0742C72.7917 31.0742 71.7174 31.3281 70.6758 31.8359C69.6341 32.3438 68.5469 33.0664 67.4141 34.0039L64.1328 30.1172C64.9531 29.4141 65.819 28.75 66.7305 28.125C67.6549 27.5 68.7227 26.9987 69.9336 26.6211C71.1576 26.2305 72.6224 26.0352 74.3281 26.0352C76.2031 26.0352 77.8112 26.3737 79.1523 27.0508C80.5065 27.7279 81.5482 28.6523 82.2773 29.8242C83.0065 30.9831 83.3711 32.2982 83.3711 33.7695C83.3711 35.3451 83.0586 36.7839 82.4336 38.0859C81.8086 39.388 80.8971 40.6771 79.6992 41.9531C78.5143 43.2292 77.082 44.6419 75.4023 46.1914L71.7305 49.6484V49.9219H84.1719V55ZM106.906 40.7227C106.906 43.0273 106.724 45.0846 106.359 46.8945C106.008 48.7044 105.435 50.2409 104.641 51.5039C103.859 52.7669 102.831 53.7305 101.555 54.3945C100.279 55.0586 98.7292 55.3906 96.9062 55.3906C94.6146 55.3906 92.7331 54.8112 91.2617 53.6523C89.7904 52.4805 88.7031 50.8008 88 48.6133C87.2969 46.4128 86.9453 43.7826 86.9453 40.7227C86.9453 37.6367 87.2643 35 87.9023 32.8125C88.5534 30.612 89.6081 28.9258 91.0664 27.7539C92.5247 26.582 94.4714 25.9961 96.9062 25.9961C99.1849 25.9961 101.06 26.582 102.531 27.7539C104.016 28.9128 105.116 30.5924 105.832 32.793C106.548 34.9805 106.906 37.6237 106.906 40.7227ZM92.9414 40.7227C92.9414 42.8971 93.0586 44.7135 93.293 46.1719C93.5404 47.6172 93.9505 48.7044 94.5234 49.4336C95.0964 50.1628 95.8906 50.5273 96.9062 50.5273C97.9089 50.5273 98.6966 50.1693 99.2695 49.4531C99.8555 48.724 100.272 47.6367 100.52 46.1914C100.767 44.7331 100.891 42.9102 100.891 40.7227C100.891 38.5482 100.767 36.7318 100.52 35.2734C100.272 33.8151 99.8555 32.7214 99.2695 31.9922C98.6966 31.25 97.9089 30.8789 96.9062 30.8789C95.8906 30.8789 95.0964 31.25 94.5234 31.9922C93.9505 32.7214 93.5404 33.8151 93.293 35.2734C93.0586 36.7318 92.9414 38.5482 92.9414 40.7227Z" fill="white"/>
<defs>
<linearGradient id="paint0_linear_3901_6634" x1="0.499998" y1="29" x2="134.5" y2="29" gradientUnits="userSpaceOnUse">
<stop stop-color="#389B72"/>
<stop offset="1" stop-color="#217452"/>
</linearGradient>
</defs>
</svg>
