<svg width="135" height="80" viewBox="0 0 135 80" fill="none" xmlns="http://www.w3.org/2000/svg">
<path d="M0.5 13.3617C0.5 6.22576 6.68997 0.666613 13.7849 1.43068L64.2524 6.86564C65.0819 6.95497 65.9184 6.95755 66.7484 6.87335L121.289 1.34026C128.359 0.623013 134.5 6.17265 134.5 13.279V67.099C134.5 74.068 128.583 79.5713 121.633 79.0676L66.394 75.0648C65.7988 75.0217 65.2013 75.023 64.6063 75.0687L13.4204 79.0061C6.45082 79.5422 0.5 74.0316 0.5 67.0415V13.3617Z" fill="url(#paint0_linear_3901_6633)"/>
<path d="M49.3837 52.4296C49.0355 52.6237 48.6934 52.7944 48.3576 52.9394C47.0634 53.5658 45.4903 53.8791 43.6392 53.8791C40.057 53.8791 37.3502 52.889 34.883 50.2727C33.921 49.2544 33.1505 48.1439 32.5627 46.9451H42.2636V42.2921H31.2649C31.2106 41.7541 31.1797 41.2051 31.1797 40.6413C31.1797 39.9792 31.2192 39.3355 31.2921 38.7079H42.2636V34.0549H32.6578C33.232 32.9126 33.9729 31.8488 34.883 30.8674C37.3366 28.1896 40.0347 27.1676 43.617 27.1676C45.0482 27.1676 46.4596 27.4268 47.85 27.9415L49.9554 23.3463C47.8352 22.4508 46.2052 22 43.9776 22C38.243 22 33.8889 23.899 30.277 28.3309C28.8286 30.1169 27.7394 32.0245 27.0059 34.0549H22.5V38.7079H25.9724C25.9106 39.3576 25.8761 40.0173 25.8761 40.6879C25.8761 41.2321 25.8995 41.7652 25.939 42.2921H22.5V46.9451H26.859C27.7197 49.5025 29.1434 51.8179 31.1352 53.8901C34.657 57.5076 38.59 59 43.5713 59C45.9595 59 48.2686 58.5369 50.5 57.6169L49.3837 52.4296Z" fill="white"/>
<path d="M74.6016 36.7578C76.3464 36.7578 77.8958 37.0898 79.25 37.7539C80.6172 38.418 81.6914 39.3945 82.4727 40.6836C83.2539 41.9727 83.6445 43.5612 83.6445 45.4492C83.6445 47.5065 83.2148 49.2839 82.3555 50.7812C81.5091 52.2656 80.2396 53.4049 78.5469 54.1992C76.8672 54.9935 74.7708 55.3906 72.2578 55.3906C70.7604 55.3906 69.3477 55.2604 68.0195 55C66.7044 54.7526 65.5521 54.3685 64.5625 53.8477V48.6328C65.5521 49.1536 66.737 49.5964 68.1172 49.9609C69.5104 50.3125 70.819 50.4883 72.043 50.4883C73.2409 50.4883 74.25 50.332 75.0703 50.0195C75.8906 49.694 76.5091 49.1992 76.9258 48.5352C77.3555 47.8581 77.5703 46.9987 77.5703 45.957C77.5703 44.5638 77.1016 43.4961 76.1641 42.7539C75.2266 42.0117 73.7878 41.6406 71.8477 41.6406C71.1055 41.6406 70.3307 41.7122 69.5234 41.8555C68.7292 41.9987 68.0651 42.1419 67.5312 42.2852L65.1289 40.9961L66.2031 26.4453H81.6914V31.5625H71.4961L70.9688 37.168C71.4115 37.0768 71.8932 36.9857 72.4141 36.8945C72.9349 36.8034 73.6641 36.7578 74.6016 36.7578ZM106.906 40.7227C106.906 43.0273 106.724 45.0846 106.359 46.8945C106.008 48.7044 105.435 50.2409 104.641 51.5039C103.859 52.7669 102.831 53.7305 101.555 54.3945C100.279 55.0586 98.7292 55.3906 96.9062 55.3906C94.6146 55.3906 92.7331 54.8112 91.2617 53.6523C89.7904 52.4805 88.7031 50.8008 88 48.6133C87.2969 46.4128 86.9453 43.7826 86.9453 40.7227C86.9453 37.6367 87.2643 35 87.9023 32.8125C88.5534 30.612 89.6081 28.9258 91.0664 27.7539C92.5247 26.582 94.4714 25.9961 96.9062 25.9961C99.1849 25.9961 101.06 26.582 102.531 27.7539C104.016 28.9128 105.116 30.5924 105.832 32.793C106.548 34.9805 106.906 37.6237 106.906 40.7227ZM92.9414 40.7227C92.9414 42.8971 93.0586 44.7135 93.293 46.1719C93.5404 47.6172 93.9505 48.7044 94.5234 49.4336C95.0964 50.1628 95.8906 50.5273 96.9062 50.5273C97.9089 50.5273 98.6966 50.1693 99.2695 49.4531C99.8555 48.724 100.272 47.6367 100.52 46.1914C100.767 44.7331 100.891 42.9102 100.891 40.7227C100.891 38.5482 100.767 36.7318 100.52 35.2734C100.272 33.8151 99.8555 32.7214 99.2695 31.9922C98.6966 31.25 97.9089 30.8789 96.9062 30.8789C95.8906 30.8789 95.0964 31.25 94.5234 31.9922C93.9505 32.7214 93.5404 33.8151 93.293 35.2734C93.0586 36.7318 92.9414 38.5482 92.9414 40.7227Z" fill="white"/>
<defs>
<linearGradient id="paint0_linear_3901_6633" x1="0.5" y1="35" x2="134.5" y2="35" gradientUnits="userSpaceOnUse">
<stop stop-color="#399D74"/>
<stop offset="1" stop-color="#207150"/>
</linearGradient>
</defs>
</svg>
