<svg width="155" height="357" viewBox="0 0 155 357" fill="none" xmlns="http://www.w3.org/2000/svg">
<circle cx="152.099" cy="354.451" r="2.54914" transform="rotate(-180 152.099 354.451)" fill="#1F6C4C"/>
<circle cx="114.711" cy="354.451" r="2.54914" transform="rotate(-180 114.711 354.451)" fill="#1F6C4C"/>
<circle cx="77.3259" cy="354.451" r="2.54914" transform="rotate(-180 77.3259 354.451)" fill="#1F6C4C"/>
<circle cx="39.9372" cy="354.451" r="2.54914" transform="rotate(-180 39.9372 354.451)" fill="#1F6C4C"/>
<circle cx="2.55047" cy="354.451" r="2.54914" transform="rotate(-180 2.55047 354.451)" fill="#1F6C4C"/>
<circle cx="152.099" cy="315.349" r="2.54914" transform="rotate(-180 152.099 315.349)" fill="#1F6C4C"/>
<circle cx="114.711" cy="315.349" r="2.54914" transform="rotate(-180 114.711 315.349)" fill="#1F6C4C"/>
<circle cx="77.3259" cy="315.349" r="2.54914" transform="rotate(-180 77.3259 315.349)" fill="#1F6C4C"/>
<circle cx="39.9372" cy="315.349" r="2.54914" transform="rotate(-180 39.9372 315.349)" fill="#1F6C4C"/>
<circle cx="2.55047" cy="315.349" r="2.54914" transform="rotate(-180 2.55047 315.349)" fill="#1F6C4C"/>
<circle cx="152.099" cy="276.252" r="2.54914" transform="rotate(-180 152.099 276.252)" fill="#1F6C4C"/>
<circle cx="114.711" cy="276.252" r="2.54914" transform="rotate(-180 114.711 276.252)" fill="#1F6C4C"/>
<circle cx="77.3259" cy="276.252" r="2.54914" transform="rotate(-180 77.3259 276.252)" fill="#1F6C4C"/>
<circle cx="39.9372" cy="276.252" r="2.54914" transform="rotate(-180 39.9372 276.252)" fill="#1F6C4C"/>
<circle cx="2.55047" cy="276.252" r="2.54914" transform="rotate(-180 2.55047 276.252)" fill="#1F6C4C"/>
<circle cx="152.099" cy="237.15" r="2.54914" transform="rotate(-180 152.099 237.15)" fill="#1F6C4C"/>
<circle cx="114.711" cy="237.15" r="2.54914" transform="rotate(-180 114.711 237.15)" fill="#1F6C4C"/>
<circle cx="77.3259" cy="237.15" r="2.54914" transform="rotate(-180 77.3259 237.15)" fill="#1F6C4C"/>
<circle cx="39.9372" cy="237.15" r="2.54914" transform="rotate(-180 39.9372 237.15)" fill="#1F6C4C"/>
<circle cx="2.55047" cy="237.15" r="2.54914" transform="rotate(-180 2.55047 237.15)" fill="#1F6C4C"/>
<circle cx="152.099" cy="198.049" r="2.54914" transform="rotate(-180 152.099 198.049)" fill="#1F6C4C"/>
<circle cx="114.711" cy="198.049" r="2.54914" transform="rotate(-180 114.711 198.049)" fill="#1F6C4C"/>
<circle cx="77.3259" cy="198.049" r="2.54914" transform="rotate(-180 77.3259 198.049)" fill="#1F6C4C"/>
<circle cx="39.9372" cy="198.049" r="2.54914" transform="rotate(-180 39.9372 198.049)" fill="#1F6C4C"/>
<circle cx="2.55047" cy="198.049" r="2.54914" transform="rotate(-180 2.55047 198.049)" fill="#1F6C4C"/>
<circle cx="152.099" cy="158.951" r="2.54914" transform="rotate(-180 152.099 158.951)" fill="#1F6C4C"/>
<circle cx="114.711" cy="158.951" r="2.54914" transform="rotate(-180 114.711 158.951)" fill="#1F6C4C"/>
<circle cx="77.3259" cy="158.951" r="2.54914" transform="rotate(-180 77.3259 158.951)" fill="#1F6C4C"/>
<circle cx="39.9372" cy="158.951" r="2.54914" transform="rotate(-180 39.9372 158.951)" fill="#1F6C4C"/>
<circle cx="2.55047" cy="158.951" r="2.54914" transform="rotate(-180 2.55047 158.951)" fill="#1F6C4C"/>
<circle cx="152.099" cy="119.849" r="2.54914" transform="rotate(-180 152.099 119.849)" fill="#1F6C4C"/>
<circle cx="114.711" cy="119.849" r="2.54914" transform="rotate(-180 114.711 119.849)" fill="#1F6C4C"/>
<circle cx="77.3259" cy="119.849" r="2.54914" transform="rotate(-180 77.3259 119.849)" fill="#1F6C4C"/>
<circle cx="39.9372" cy="119.849" r="2.54914" transform="rotate(-180 39.9372 119.849)" fill="#1F6C4C"/>
<circle cx="2.55047" cy="119.849" r="2.54914" transform="rotate(-180 2.55047 119.849)" fill="#1F6C4C"/>
<circle cx="152.099" cy="80.7477" r="2.54914" transform="rotate(-180 152.099 80.7477)" fill="#1F6C4C"/>
<circle cx="114.711" cy="80.7477" r="2.54914" transform="rotate(-180 114.711 80.7477)" fill="#1F6C4C"/>
<circle cx="77.3259" cy="80.7477" r="2.54914" transform="rotate(-180 77.3259 80.7477)" fill="#1F6C4C"/>
<circle cx="39.9372" cy="80.7477" r="2.54914" transform="rotate(-180 39.9372 80.7477)" fill="#1F6C4C"/>
<circle cx="2.55047" cy="80.7477" r="2.54914" transform="rotate(-180 2.55047 80.7477)" fill="#1F6C4C"/>
<circle cx="152.099" cy="41.6501" r="2.54914" transform="rotate(-180 152.099 41.6501)" fill="#1F6C4C"/>
<circle cx="114.711" cy="41.6501" r="2.54914" transform="rotate(-180 114.711 41.6501)" fill="#1F6C4C"/>
<circle cx="77.3259" cy="41.6501" r="2.54914" transform="rotate(-180 77.3259 41.6501)" fill="#1F6C4C"/>
<circle cx="39.9372" cy="41.6501" r="2.54914" transform="rotate(-180 39.9372 41.6501)" fill="#1F6C4C"/>
<circle cx="2.55047" cy="41.6501" r="2.54914" transform="rotate(-180 2.55047 41.6501)" fill="#1F6C4C"/>
<circle cx="152.099" cy="2.54852" r="2.54914" transform="rotate(-180 152.099 2.54852)" fill="#1F6C4C"/>
<circle cx="114.711" cy="2.54852" r="2.54914" transform="rotate(-180 114.711 2.54852)" fill="#1F6C4C"/>
<circle cx="77.3259" cy="2.54852" r="2.54914" transform="rotate(-180 77.3259 2.54852)" fill="#1F6C4C"/>
<circle cx="39.9372" cy="2.54852" r="2.54914" transform="rotate(-180 39.9372 2.54852)" fill="#1F6C4C"/>
<circle cx="2.55047" cy="2.54852" r="2.54914" transform="rotate(-180 2.55047 2.54852)" fill="#1F6C4C"/>
</svg>
