<svg width="74" height="92" viewBox="0 0 74 92" fill="none" xmlns="http://www.w3.org/2000/svg">
<path d="M61.584 3.85754V76.215C61.584 76.5575 61.1702 76.7288 60.9292 76.4863L56.5945 72.1516C56.0019 71.559 55.0425 71.559 54.4515 72.1516L50.532 76.071C49.9394 76.6636 48.98 76.6636 48.389 76.071L44.4695 72.1516C43.8769 71.559 42.9175 71.559 42.3265 72.1516L38.407 76.071C37.8144 76.6636 36.855 76.6636 36.264 76.071L32.3445 72.1516C31.7519 71.559 30.7925 71.559 30.2015 72.1516L26.282 76.071C25.6894 76.6636 24.73 76.6636 24.139 76.071L20.2195 72.1516C19.6269 71.559 18.6675 71.559 18.0765 72.1516L14.157 76.071C13.5644 76.6636 12.605 76.6636 12.014 76.071L8.09455 72.1516C7.50194 71.559 6.54255 71.559 5.95145 72.1516L1.60767 76.4954C1.36669 76.7349 0.958984 76.5651 0.958984 76.2286L0.958984 3.85754C0.958984 2.18278 2.31547 0.826294 3.99023 0.826294L58.5527 0.826294C60.2275 0.826294 61.584 2.18278 61.584 3.85754Z" fill="#393939"/>
<path d="M34.3027 28.1075H28.2402C25.7334 28.1075 23.6934 26.0675 23.6934 23.5607C23.6934 21.0538 25.7334 19.0138 28.2402 19.0138H34.3027C36.8096 19.0138 38.8496 21.0538 38.8496 23.5607H44.9121C44.9121 17.7104 40.1515 12.9513 34.3027 12.9513V6.88879H28.2402V12.9513C22.3899 12.9513 17.6309 17.7104 17.6309 23.5607C17.6309 29.411 22.3899 34.17 28.2402 34.17H34.3027C36.8096 34.17 38.8496 36.2101 38.8496 38.7169C38.8496 41.2238 36.8096 43.2638 34.3027 43.2638H28.2402C25.7334 43.2638 23.6934 41.2238 23.6934 38.7169H17.6309C17.6309 44.5672 22.3899 49.3263 28.2402 49.3263V55.3888H34.3027V49.3263C40.1515 49.3263 44.9121 44.5672 44.9121 38.7169C44.9121 32.8666 40.1515 28.1075 34.3027 28.1075Z" fill="#D5FF40"/>
<path d="M50.9746 59.9357H11.5684V62.9669H50.9746V59.9357Z" fill="#9B9B9B"/>
<path d="M55.5215 91.7638C65.5662 91.7638 73.709 83.621 73.709 73.5763C73.709 63.5316 65.5662 55.3888 55.5215 55.3888C45.4768 55.3888 37.334 63.5316 37.334 73.5763C37.334 83.621 45.4768 91.7638 55.5215 91.7638Z" fill="#666666"/>
<path d="M50.2168 72.0607C47.2916 72.0607 44.9121 69.6811 44.9121 66.756C44.9121 63.8308 47.2916 61.4513 50.2168 61.4513C53.142 61.4513 55.5215 63.8308 55.5215 66.756C55.5215 69.6811 53.142 72.0607 50.2168 72.0607ZM50.2168 64.4825C48.9634 64.4825 47.9434 65.5026 47.9434 66.756C47.9434 68.0094 48.9634 69.0294 50.2168 69.0294C51.4702 69.0294 52.4902 68.0094 52.4902 66.756C52.4902 65.5026 51.4702 64.4825 50.2168 64.4825Z" fill="white"/>
<path d="M60.8262 85.7013C57.901 85.7013 55.5215 83.3218 55.5215 80.3966C55.5215 77.4715 57.901 75.0919 60.8262 75.0919C63.7513 75.0919 66.1309 77.4715 66.1309 80.3966C66.1309 83.3218 63.7513 85.7013 60.8262 85.7013ZM60.8262 78.1232C59.5728 78.1232 58.5527 79.1432 58.5527 80.3966C58.5527 81.65 59.5728 82.67 60.8262 82.67C62.0796 82.67 63.0996 81.65 63.0996 80.3966C63.0996 79.1432 62.0796 78.1232 60.8262 78.1232Z" fill="white"/>
<path d="M66.4442 64.796L64.3008 62.6526L44.5976 82.3558L46.741 84.4992L66.4442 64.796Z" fill="white"/>
</svg>
