<svg width="65" height="65" viewBox="0 0 65 65" fill="none" xmlns="http://www.w3.org/2000/svg">
<path d="M32.4612 0C36.9654 0 41.1848 0.854241 45.1195 2.56272C49.0542 4.27121 52.497 6.58801 55.448 9.51314C58.399 12.4383 60.7288 15.8682 62.4373 19.8029C64.1458 23.7376 65 27.957 65 32.4612C65 36.9654 64.1458 41.1848 62.4373 45.1195C60.7288 49.0542 58.399 52.497 55.448 55.448C52.497 58.399 49.0542 60.7288 45.1195 62.4373C41.1848 64.1458 36.9654 65 32.4612 65C27.957 65 23.7376 64.1458 19.8029 62.4373C15.8682 60.7288 12.4383 58.399 9.51314 55.448C6.58801 52.497 4.27121 49.0542 2.56272 45.1195C0.854241 41.1848 0 36.9654 0 32.4612C0 27.957 0.854241 23.7376 2.56272 19.8029C4.27121 15.8682 6.58801 12.4383 9.51314 9.51314C12.4383 6.58801 15.8682 4.27121 19.8029 2.56272C23.7376 0.854241 27.957 0 32.4612 0ZM22.3656 24.3847H14.2115V50.7885H22.3656V24.3847ZM18.2497 22.2879C19.3887 22.2879 20.3594 21.8996 21.1619 21.1231C21.9644 20.3465 22.3656 19.3887 22.3656 18.2497C22.3656 17.1107 21.9644 16.1529 21.1619 15.3763C20.3594 14.5998 19.3887 14.2115 18.2497 14.2115C17.1107 14.2115 16.1529 14.5998 15.3763 15.3763C14.5998 16.1529 14.2115 17.1107 14.2115 18.2497C14.2115 19.3887 14.5998 20.3465 15.3763 21.1231C16.1529 21.8996 17.1107 22.2879 18.2497 22.2879ZM50.7885 35.4898C50.7885 33.626 50.2708 31.8011 49.2354 30.0149C48.1999 28.2288 46.8538 26.8698 45.1971 25.9379C43.6957 25.1095 41.9484 24.6695 39.9552 24.6177C37.962 24.5659 36.137 24.9024 34.4803 25.6272V24.3847H26.4038V50.7885H34.4803V34.6356L37.8973 33.0048C38.3114 32.7977 38.868 32.6941 39.5669 32.6941C40.2658 32.6941 40.8224 32.8236 41.2366 33.0824C41.5472 33.2378 41.8578 33.5743 42.1685 34.092C42.4791 34.6097 42.6344 35.0757 42.6344 35.4898V50.7885H50.7885V35.4898Z" fill="#D3FD3D"/>
</svg>
