<svg width="50" height="47" viewBox="0 0 50 47" fill="none" xmlns="http://www.w3.org/2000/svg">
<path fill-rule="evenodd" clip-rule="evenodd" d="M26.4853 35.5261C22.2442 35.5261 17.9353 33.0116 15.4206 29.6834C3.35592 29.6834 2.99121 46.8972 2.99121 46.8972H49.9765C49.9765 46.8972 50.9236 29.6071 37.3559 29.6071C34.8442 32.9764 30.7265 35.5261 26.4853 35.5261Z" fill="black"/>
<path fill-rule="evenodd" clip-rule="evenodd" d="M36.5912 14.8902C36.5912 19.8428 32.0647 29.3133 26.4765 29.3133C20.8971 29.3133 16.3677 19.8399 16.3677 14.8902C16.3677 9.9405 20.8941 5.922 26.4765 5.922C32.0647 5.92493 36.5912 9.94343 36.5912 14.8902Z" fill="black"/>
<path fill-rule="evenodd" clip-rule="evenodd" d="M41.103 10.6161C41.103 9.68783 39.8089 8.93876 38.203 8.93289V7.02058C38.203 6.73564 38.3118 0.0645752 26.5118 0.0645752C14.7177 0.0645752 14.8265 6.73564 14.8265 7.02058V9.00045C14.7971 9.00045 14.7736 8.99164 14.7471 8.99164C13.15 8.99164 11.8647 9.72895 11.8647 10.6425V18.7324C11.8647 19.6401 13.153 20.3803 14.7471 20.3803C16.3412 20.3803 17.6353 19.6401 17.6353 18.7324V10.6425C17.6353 10.5162 17.5559 10.4016 17.5089 10.2841V8.07807C17.5089 7.87539 16.6618 2.84051 26.5118 2.84051C36.3647 2.84051 35.3412 7.87539 35.3412 8.07807V10.4016C35.3236 10.4751 35.2677 10.5397 35.2677 10.6161V18.891C35.2677 19.8222 36.5706 20.5771 38.1853 20.5771C38.2206 20.5771 38.2471 20.5654 38.2824 20.5654V23.5881H35.3883V26.4374H41.1324L41.103 10.6161Z" fill="black"/>
</svg>
