<svg width="65" height="65" viewBox="0 0 65 65" fill="none" xmlns="http://www.w3.org/2000/svg">
<path d="M32.5 65C50.4493 65 65 50.4493 65 32.5C65 14.5507 50.4493 0 32.5 0C14.5507 0 0 14.5507 0 32.5C0 50.4493 14.5507 65 32.5 65Z" fill="#D3FD3D"/>
<path fill-rule="evenodd" clip-rule="evenodd" d="M47.1421 23.722C47.1421 23.722 49.8358 23.5099 50.9168 22.7057C50.9168 22.7057 50.6577 23.6315 47.4164 26.5606C47.4164 26.5606 48.5077 42.3657 31.8783 46.2365C31.8783 46.2365 23.4448 48.0324 17.3335 43.4512C17.3335 43.4512 23.731 44.586 27.3303 40.6174C27.3303 40.6174 22.6874 40.6643 21.219 35.9424C21.219 35.9424 22.972 36.3199 24.014 35.8478C24.014 35.8478 18.7549 34.7607 18.8498 29.0463C18.8498 29.0463 20.2712 30.0857 21.5498 29.8966C21.5498 29.8966 16.8129 25.8812 19.7498 20.8764C19.7498 20.8764 26.097 28.3581 33.9637 27.9139C33.8266 27.3783 33.7525 26.8173 33.7525 26.2372C33.7525 22.5173 36.7794 19.5 40.5127 19.5C42.3988 19.5 44.1048 20.2708 45.3317 21.5129C46.2309 21.528 48.0804 21.3683 49.9275 20.0499C49.9275 20.0507 50.0335 21.4914 47.1421 23.722Z" fill="#151515"/>
</svg>
