<svg width="640" height="146" viewBox="0 0 640 146" fill="none" xmlns="http://www.w3.org/2000/svg">
<path d="M93.3504 89.4918L72.2521 68.3936L93.0653 47.5804C99.0527 41.593 99.0527 31.8042 93.0653 25.8168L85.7475 18.4989C85.0822 17.8337 84.0368 17.8337 83.3715 18.4989L52.8645 49.101L50.2985 46.63L29.5804 25.8168C23.593 19.8295 13.8042 19.8295 7.81682 25.8168L0.498946 33.1347C-0.166315 33.8 -0.166315 34.8454 0.498946 35.5106L40.2246 75.2362C40.8898 75.9015 41.6501 76.4717 42.4104 77.042C42.7906 77.6122 43.2658 78.1824 43.7409 78.6576L83.6566 118.478C84.3219 119.144 85.3673 119.144 86.0326 118.478L93.3504 111.16C99.3378 105.173 99.3378 95.4792 93.3504 89.4918Z" fill="url(#paint0_linear_1774_5851)"/>
<path d="M27.5852 88.4458L39.7499 100.611C40.5102 101.371 40.5102 102.701 39.7499 103.462L26.9199 116.292C23.3085 119.903 17.3211 119.903 13.7097 116.292L0.404486 102.796C-0.070701 102.321 -0.070701 101.656 0.404486 101.181L13.1395 88.4458C17.1311 84.4543 23.5936 84.4543 27.5852 88.4458Z" fill="url(#paint1_linear_1774_5851)"/>
<path d="M181.75 105.188C181.062 105.875 179.609 106.281 177.391 106.406C175.203 106.531 172.5 106.5 169.281 106.312C166.062 106.125 164.344 106.031 164.125 106.031C162 106.031 160.469 106 159.531 105.938H154.844C154.156 105.719 153.578 104.703 153.109 102.891C152.641 101.047 152.172 98.4219 151.703 95.0156C151.266 91.5781 151.031 89.75 151 89.5312C150.875 86.4375 150.375 84.4062 149.5 83.4375C148.625 82.4375 147.031 81.9375 144.719 81.9375H142.656V104.812C142.594 105.188 142.266 105.5 141.672 105.75C141.078 106 140.219 106.156 139.094 106.219C138 106.312 137.016 106.359 136.141 106.359C135.297 106.391 134.172 106.391 132.766 106.359C131.359 106.328 130.5 106.312 130.188 106.312H123.438C119.625 106.312 116.75 106.344 114.812 106.406C114.375 106.219 113.938 106 113.5 105.75V35.8125C113.5 34.9375 114.75 34.5 117.25 34.5H158.125C165.219 34.6875 170.609 36.375 174.297 39.5625C178.016 42.75 179.875 47.25 179.875 53.0625C179.875 60.625 176.062 66.1562 168.438 69.6562C169.844 70.0938 171.109 70.7031 172.234 71.4844C173.359 72.2656 174.297 73.1094 175.047 74.0156C175.797 74.8906 176.453 75.9531 177.016 77.2031C177.578 78.4531 178.016 79.625 178.328 80.7188C178.641 81.8125 178.906 83.1094 179.125 84.6094C179.375 86.1094 179.547 87.4062 179.641 88.5C179.734 89.5938 179.844 90.9062 179.969 92.4375C180.125 93.9375 180.25 95.125 180.344 96V100.125C180.438 100.625 180.719 101.328 181.188 102.234C181.688 103.141 182 103.812 182.125 104.25C182.125 104.875 182 105.188 181.75 105.188ZM142.375 54.375C142.375 56.25 142.391 57.6406 142.422 58.5469C142.453 59.4531 142.625 60.6406 142.938 62.1094C143.25 63.5781 143.719 64.625 144.344 65.25C145.656 65.25 146.891 65.1094 148.047 64.8281C149.234 64.5469 150.375 64.0938 151.469 63.4688C152.562 62.8438 153.422 61.9219 154.047 60.7031C154.703 59.4531 155.031 57.9688 155.031 56.25C155.031 55.2812 154.859 54.4375 154.516 53.7188C154.172 52.9688 153.672 52.375 153.016 51.9375C152.359 51.5 151.703 51.1562 151.047 50.9062C150.422 50.625 149.641 50.4375 148.703 50.3438C147.797 50.2188 147.078 50.1406 146.547 50.1094C146.016 50.0781 145.375 50.0625 144.625 50.0625H143.5C143.031 50.2812 142.719 50.7188 142.562 51.375C142.438 52.0312 142.375 53.0312 142.375 54.375ZM186.062 44.4375C186.062 42.5625 186.141 41.4688 186.297 41.1562C186.578 40.7188 187.031 40.5 187.656 40.5H188.781C189.281 40.5 189.625 40.5312 189.812 40.5938H192.25C195.406 40.5938 200.172 40.5156 206.547 40.3594C212.953 40.2031 217.75 40.125 220.938 40.125H233.406C234.219 40.2188 234.625 40.625 234.625 41.3438V57C234.594 57.1875 234.531 57.3594 234.438 57.5156C234.375 57.6406 234.312 57.7344 234.25 57.7969C234.219 57.8281 234.078 57.9375 233.828 58.125C233.578 58.2812 233.406 58.4062 233.312 58.5H211.562V64.3125H213.625C215.438 64.3125 218.203 64.25 221.922 64.125C225.641 64 228.5 63.9375 230.5 63.9375C231.375 63.9375 231.969 64.1094 232.281 64.4531C232.594 64.7969 232.75 65.2812 232.75 65.9062C232.75 66.0625 232.719 66.3281 232.656 66.7031C232.594 67.0781 232.562 67.3438 232.562 67.5V69.2812C232.562 69.4062 232.578 69.6719 232.609 70.0781C232.641 70.4531 232.656 70.7812 232.656 71.0625V72.375C232.656 73.0625 232.688 73.75 232.75 74.4375C232.812 75.125 232.844 75.7188 232.844 76.2188V77.4375C232.688 77.8125 232.562 78.0625 232.469 78.1875C232.375 78.3125 232.219 78.375 232 78.375V78.2812C230.844 78.2812 228.844 78.3594 226 78.5156C223.188 78.6719 220.938 78.75 219.25 78.75H211.75V84.75C212 84.75 212.375 84.7656 212.875 84.7969C213.375 84.8281 213.75 84.8438 214 84.8438C215.406 84.8438 217.484 84.7969 220.234 84.7031C222.984 84.6094 224.969 84.5625 226.188 84.5625H232.188C233.812 84.5625 234.844 84.75 235.281 85.125C235.438 85.3125 235.562 85.5 235.656 85.6875V100.688C235.656 101.344 235.531 101.844 235.281 102.188C235.031 102.531 234.562 102.719 233.875 102.75H187.469L186.062 101.531V44.4375ZM303.344 98.8125C303.094 99.9688 300.969 101.016 296.969 101.953C293 102.859 289.031 103.5 285.062 103.875C281.125 104.25 278 104.438 275.688 104.438C273.25 104.438 271.125 104.375 269.312 104.25C267.531 104.125 265.391 103.859 262.891 103.453C260.422 103.016 258.047 102.297 255.766 101.297C253.484 100.266 251.344 98.9688 249.344 97.4062L247.375 95.7188C246.844 95.3438 246.312 94.7812 245.781 94.0312L244.281 92.0625C240.531 86.1562 238.656 79.2812 238.656 71.4375C238.656 63.6562 240.625 57.0312 244.562 51.5625L245.875 49.9688V49.3125V49.4062C251.5 42.2188 260.781 38.625 273.719 38.625C275.594 38.625 277.625 38.7969 279.812 39.1406C282.031 39.4531 284.375 39.9688 286.844 40.6875C289.344 41.375 291.703 42.4062 293.922 43.7812C296.141 45.1562 297.906 46.75 299.219 48.5625C299.875 49.4375 300.375 50.4219 300.719 51.5156C301.062 52.5781 301.375 53.9688 301.656 55.6875C301.969 57.375 302.219 58.625 302.406 59.4375C302.406 60.5 301.406 61.0312 299.406 61.0312H295.562C294.688 61.0312 292.891 60.9844 290.172 60.8906C287.484 60.7969 285.344 60.75 283.75 60.75H278.594C278.156 60.5938 277.75 60.1094 277.375 59.2969C277.031 58.4531 276.812 57.9688 276.719 57.8438V57.9375C276.156 56.6875 274.906 56.0625 272.969 56.0625C271.688 56.0625 270.562 56.3438 269.594 56.9062C268.656 57.4375 267.938 58.1094 267.438 58.9219C266.938 59.7031 266.531 60.7031 266.219 61.9219C265.938 63.1094 265.75 64.2031 265.656 65.2031C265.594 66.2031 265.562 67.3438 265.562 68.625C265.562 69.0625 265.578 69.6719 265.609 70.4531C265.641 71.2344 265.656 71.75 265.656 72V75.5625C265.656 76.6875 265.688 77.6719 265.75 78.5156C265.844 79.3594 266.047 80.3125 266.359 81.375C266.672 82.4375 267.109 83.3125 267.672 84C268.234 84.6875 269.047 85.2656 270.109 85.7344C271.172 86.2031 272.438 86.4375 273.906 86.4375C276.969 86.4375 279.375 86.1562 281.125 85.5938V83.5312C281.125 83.2812 281.109 82.9531 281.078 82.5469C281.047 82.1406 281.031 81.8125 281.031 81.5625C281.031 81.5 281.047 81.3438 281.078 81.0938C281.109 80.8438 281.125 80.625 281.125 80.4375H279.344C279.094 80.4375 278.781 80.4531 278.406 80.4844C278.031 80.5156 277.781 80.5312 277.656 80.5312H273.719L272.125 78.75C272.062 78.4375 272.031 77.9688 272.031 77.3438V74.4375C272.031 74.0625 272.047 73.4844 272.078 72.7031C272.109 71.9219 272.125 71.2812 272.125 70.7812V69.4688C272.125 69.4062 272.141 69.2656 272.172 69.0469C272.203 68.8281 272.219 68.625 272.219 68.4375V68.0625C272.219 67.5 272.328 67.0469 272.547 66.7031C272.766 66.3594 273.188 66 273.812 65.625H278.219C278.531 65.625 279 65.6875 279.625 65.8125H283.844C286.969 65.9375 289.281 66 290.781 66H295.281C300.031 66 302.844 66.4375 303.719 67.3125C303.719 70.3125 303.656 74.875 303.531 81C303.406 87.125 303.344 91.6875 303.344 94.6875V98.8125ZM333.062 93.375C332.844 94.0938 332.625 95.0469 332.406 96.2344C332.219 97.3906 332.031 98.3125 331.844 99C331.688 99.6562 331.406 100.359 331 101.109C330.594 101.828 329.969 102.359 329.125 102.703C328.312 103.047 327.25 103.219 325.938 103.219H305.688V101.625C307.344 96.6562 309.75 89.0312 312.906 78.75C316.094 68.4688 318.562 60.6875 320.312 55.4062V55.5C321.375 52.4688 322.938 47.7188 325 41.25C325.031 41.1875 325.078 41.1094 325.141 41.0156C325.422 40.5469 325.688 40.1875 325.938 39.9375L351.25 40.125C355.562 40.125 357.938 40.5 358.375 41.25V42.4688C358.438 42.75 358.781 43.4688 359.406 44.625C362.438 53.9062 364.656 60.6562 366.062 64.875V65.4375C366.188 66.3438 366.469 67.375 366.906 68.5312C367.344 69.6875 367.859 70.9375 368.453 72.2812C369.078 73.5938 369.516 74.625 369.766 75.375L371.641 82.125C372.734 85.75 374.344 90.5938 376.469 96.6562V96.5625V97.5C376.562 97.9375 376.797 98.5312 377.172 99.2812C377.547 100.031 377.781 100.562 377.875 100.875C377.875 101.75 377.688 102.312 377.312 102.562C376.969 102.812 376.281 102.938 375.25 102.938H353.5C352.969 102.875 352.625 102.828 352.469 102.797C352.312 102.766 352.062 102.703 351.719 102.609C351.406 102.516 351.172 102.391 351.016 102.234C350.891 102.078 350.812 101.875 350.781 101.625L349 94.5C348.875 93.9062 348.75 93.5781 348.625 93.5156C348.5 93.4219 348.125 93.375 347.5 93.375H333.062ZM335.312 76.6875V76.875V76.6875ZM345.625 71.0625C345.438 70.1875 345.156 68.7812 344.781 66.8438C344.438 64.875 344.094 63.1719 343.75 61.7344C343.406 60.2656 343.031 58.9062 342.625 57.6562V55.4062C342.375 54.75 341.938 54.2812 341.312 54V54.0938C340.562 54.25 339.812 56.3438 339.062 60.375V62.625C339 62.8438 338.859 63.0469 338.641 63.2344C338.422 63.4219 338.312 63.5312 338.312 63.5625C337.281 68.125 336.438 71.8125 335.781 74.625C335.781 74.9375 335.703 75.4844 335.547 76.2656C335.391 77.0469 335.312 77.5 335.312 77.625H346.938C346.938 76.8125 346.656 75.3438 346.094 73.2188V72.1875C346.062 72.0938 345.969 71.9219 345.812 71.6719C345.688 71.3906 345.625 71.1875 345.625 71.0625ZM380.969 40.5H389.688C392.375 40.5 396.672 40.4375 402.578 40.3125C408.484 40.1875 412.906 40.125 415.844 40.125C418.375 40.125 420.734 40.2656 422.922 40.5469C425.141 40.8281 427.312 41.3438 429.438 42.0938C431.594 42.8438 433.422 43.7969 434.922 44.9531C436.453 46.1094 437.688 47.6406 438.625 49.5469C439.562 51.4219 440.031 53.5938 440.031 56.0625C440.031 59.4688 439.234 62.375 437.641 64.7812C436.047 67.1875 433.594 69.2188 430.281 70.875C431.594 71.4375 432.734 72.1719 433.703 73.0781C434.672 73.9844 435.406 74.7656 435.906 75.4219C436.438 76.0781 436.938 77.1875 437.406 78.75C437.906 80.2812 438.203 81.2969 438.297 81.7969C438.391 82.2656 438.594 83.4531 438.906 85.3594C439 85.7969 439.062 86.125 439.094 86.3438C439.219 87.5938 439.75 89.8906 440.688 93.2344C441.625 96.5469 442.094 99.0938 442.094 100.875C442.094 102 441.75 102.562 441.062 102.562C439.188 102.562 436.344 102.578 432.531 102.609C428.75 102.641 425.938 102.656 424.094 102.656C423.344 102.594 422.219 102.562 420.719 102.562H417.531C416.906 102.375 416.297 101.406 415.703 99.6562C415.109 97.9062 414.688 95.9375 414.438 93.75L413.406 85.4062C413.219 84.7188 413.062 84.2344 412.938 83.9531C412.844 83.6406 412.656 83.2812 412.375 82.875C412.094 82.4375 411.703 82.1406 411.203 81.9844C410.734 81.8281 410.125 81.75 409.375 81.75H407.219V100.5C407.219 100.594 407.219 100.75 407.219 100.969C407.219 101.156 407.219 101.297 407.219 101.391C407.219 101.453 407.219 101.562 407.219 101.719C407.219 101.875 407.203 102 407.172 102.094C407.141 102.156 407.109 102.25 407.078 102.375C407.047 102.5 407 102.594 406.938 102.656C406.906 102.688 406.844 102.75 406.75 102.844C406.688 102.906 406.594 102.953 406.469 102.984C406.375 103.016 406.25 103.047 406.094 103.078C405.969 103.109 405.812 103.125 405.625 103.125H380.969V40.5ZM407.5 65.25C407.562 65.3125 407.656 65.4531 407.781 65.6719C407.906 65.8594 408.031 66.0156 408.156 66.1406C408.281 66.2656 408.406 66.3438 408.531 66.375C409.469 66.375 410.406 66.2812 411.344 66.0938C412.281 65.875 413.234 65.5312 414.203 65.0625C415.203 64.5938 416 63.875 416.594 62.9062C417.219 61.9375 417.531 60.7812 417.531 59.4375C417.531 56.1875 414.406 54.5625 408.156 54.5625C407.531 54.7188 407.219 54.9688 407.219 55.3125V57.0938C407.219 58 407.266 59.3594 407.359 61.1719C407.453 62.9844 407.5 64.3438 407.5 65.25ZM472.469 39.9375C476.75 39.9375 480.594 40.2188 484 40.7812C487.438 41.3438 490.719 42.3438 493.844 43.7812C497 45.2188 499.625 47.0938 501.719 49.4062C503.812 51.7188 505.469 54.7188 506.688 58.4062C507.938 62.0938 508.562 66.375 508.562 71.25C508.562 74.8125 508.141 78.1406 507.297 81.2344C506.453 84.2969 505.297 86.9375 503.828 89.1562C502.359 91.375 500.672 93.3594 498.766 95.1094C496.891 96.8281 494.844 98.2344 492.625 99.3281C490.406 100.422 488.188 101.266 485.969 101.859C483.75 102.453 481.531 102.812 479.312 102.938H447.156V40.6875C447.25 40.6875 447.422 40.7031 447.672 40.7344C447.922 40.7656 448.094 40.7812 448.188 40.7812C449.531 40.7812 451.562 40.6406 454.281 40.3594C457.031 40.0781 459.094 39.9375 460.469 39.9375H472.469ZM473.031 88.3125C474.625 88.3125 476.031 88.0625 477.25 87.5625C478.469 87.0312 479.438 86.2812 480.156 85.3125C480.906 84.3438 481.516 83.3281 481.984 82.2656C482.484 81.2031 482.844 79.9531 483.062 78.5156C483.281 77.0781 483.422 75.8281 483.484 74.7656C483.578 73.6719 483.625 72.4375 483.625 71.0625V67.6875C483.594 67.4688 483.5 66.4062 483.344 64.5C483.188 62.5938 482.844 60.9688 482.312 59.625C481.812 58.6562 481.25 57.8281 480.625 57.1406C480.031 56.4219 479.438 55.875 478.844 55.5C478.25 55.0938 477.547 54.7969 476.734 54.6094C475.953 54.3906 475.234 54.25 474.578 54.1875C473.922 54.125 473.125 54.0938 472.188 54.0938V55.125H470.781V88.3125H473.031ZM551.125 58.6875C550.281 58.6875 549.594 58.5625 549.062 58.3125C548.531 58.0625 548.109 57.75 547.797 57.375C547.484 57 547.125 56.625 546.719 56.25C546.344 55.875 545.734 55.5625 544.891 55.3125C544.047 55.0625 542.969 54.9375 541.656 54.9375C541.25 54.9375 540.75 54.9844 540.156 55.0781C539.594 55.1406 538.969 55.3438 538.281 55.6875C537.594 56.0312 537.25 56.4688 537.25 57C537.25 57.5938 537.531 58.1094 538.094 58.5469C538.688 58.9531 539.344 59.25 540.062 59.4375C540.812 59.5938 541.641 59.7969 542.547 60.0469C543.484 60.2656 544.141 60.4688 544.516 60.6562L551.406 62.3438C553.438 62.9062 555.266 63.5 556.891 64.125C558.516 64.75 560.234 65.6094 562.047 66.7031C563.891 67.7656 565.422 68.9531 566.641 70.2656C567.859 71.5781 568.875 73.2344 569.688 75.2344C570.5 77.2031 570.906 79.375 570.906 81.75C570.906 84.625 570.531 87.1875 569.781 89.4375V89.3438C569.125 91.3438 568.203 93.1406 567.016 94.7344C565.828 96.2969 564.422 97.6094 562.797 98.6719C561.172 99.7031 559.531 100.578 557.875 101.297C556.219 101.984 554.297 102.547 552.109 102.984C549.953 103.391 548.016 103.703 546.297 103.922C544.609 104.109 542.656 104.281 540.438 104.438C530.594 103.938 524 102.375 520.656 99.75V99.1875C517.812 97.0625 515.703 94.75 514.328 92.25C512.984 89.75 512.188 86.9375 511.938 83.8125C511.938 83.0625 512.281 82.6875 512.969 82.6875C513.156 82.6875 513.438 82.7031 513.812 82.7344C514.188 82.7656 514.469 82.7812 514.656 82.7812H519.438C519.875 82.7188 520.5 82.6875 521.312 82.6875H522.531C522.781 82.6875 523 82.7188 523.188 82.7812C525 82.7188 528.094 82.6875 532.469 82.6875H534.625C535.25 82.6875 535.734 82.875 536.078 83.25C536.422 83.625 536.688 84.0938 536.875 84.6562C537.094 85.1875 537.328 85.7344 537.578 86.2969C537.859 86.8281 538.344 87.2812 539.031 87.6562C539.719 88.0312 540.625 88.2188 541.75 88.2188C542.969 88.2188 544.062 87.9062 545.031 87.2812C546.031 86.625 546.531 85.6875 546.531 84.4688C546.531 83.9062 546.266 83.375 545.734 82.875C545.203 82.375 544.406 81.9219 543.344 81.5156C542.281 81.1094 541.328 80.7812 540.484 80.5312C539.672 80.2812 538.562 79.9844 537.156 79.6406C535.75 79.2969 534.844 79.0625 534.438 78.9375H531.625C524.844 76.9375 519.953 74.4062 516.953 71.3438C513.984 68.25 512.5 64.3438 512.5 59.625C512.5 56.5 513.078 53.6875 514.234 51.1875C515.422 48.6875 516.969 46.6406 518.875 45.0469C520.812 43.4531 523.078 42.125 525.672 41.0625C528.266 39.9688 530.906 39.2031 533.594 38.7656C536.281 38.2969 539.062 38.0625 541.938 38.0625C547.031 38.0625 551.75 38.9219 556.094 40.6406C560.469 42.3281 563.781 44.5312 566.031 47.25C566.844 48.0625 567.5 49.0938 568 50.3438C568.5 51.5938 568.812 52.5938 568.938 53.3438C569.094 54.0625 569.281 55.2812 569.5 57L568.188 58.875H560.219C559.344 58.875 557.891 58.8438 555.859 58.7812C553.828 58.7188 552.25 58.6875 551.125 58.6875Z" fill="black"/>
<path d="M570.422 101.822V101.441C570.422 101.314 570.426 101.116 570.435 100.845C570.443 100.565 570.447 100.341 570.447 100.172V99.5117C570.447 97.4466 570.583 96.4141 570.854 96.4141H576.059C576.871 96.4141 577.277 96.5326 577.277 96.7695C577.311 98.3945 577.328 99.6387 577.328 100.502V100.934C577.328 100.993 577.332 101.086 577.341 101.213C577.349 101.331 577.354 101.424 577.354 101.492C577.354 101.966 577.26 102.203 577.074 102.203H570.828L570.422 101.822ZM588.068 101.898C586.655 101.898 585.385 101.661 584.26 101.188C583.134 100.705 582.212 100.041 581.492 99.1943C580.773 98.348 580.223 97.362 579.842 96.2363C579.469 95.1022 579.283 93.8665 579.283 92.5293V92.3516C579.292 92.2923 579.304 92.1484 579.321 91.9199C579.347 91.6829 579.359 91.5306 579.359 91.4629C579.368 91.3867 579.385 91.2471 579.41 91.0439C579.436 90.8408 579.457 90.6927 579.474 90.5996C579.491 90.5065 579.512 90.3711 579.537 90.1934C579.571 90.0156 579.605 89.8717 579.639 89.7617C579.681 89.6432 579.728 89.5036 579.778 89.3428C579.829 89.182 579.884 89.0296 579.943 88.8857C580.003 88.7419 580.07 88.5938 580.146 88.4414V88.4668C580.536 87.6543 581.027 86.9518 581.619 86.3594C582.212 85.7669 582.863 85.3099 583.574 84.9883C584.285 84.6582 585.013 84.4212 585.758 84.2773C586.503 84.125 587.29 84.0488 588.119 84.0488C589.169 84.0488 590.117 84.1546 590.963 84.3662C591.809 84.5693 592.512 84.8444 593.07 85.1914C593.629 85.5384 594.107 85.9616 594.505 86.4609C594.903 86.9518 595.203 87.4596 595.406 87.9844C595.609 88.5091 595.753 89.0762 595.838 89.6855V90.7773C595.812 90.8958 595.749 90.9889 595.647 91.0566C595.546 91.1159 595.436 91.154 595.317 91.1709C595.199 91.1794 595.034 91.1836 594.822 91.1836H589.389V90.0918C589.346 89.804 589.224 89.5417 589.021 89.3047C588.817 89.0677 588.568 88.9492 588.271 88.9492C588.009 88.9492 587.776 89.0042 587.573 89.1143C587.379 89.2243 587.222 89.3724 587.104 89.5586C586.993 89.7363 586.9 89.9479 586.824 90.1934C586.757 90.4303 586.71 90.6842 586.685 90.9551C586.668 91.2174 586.651 91.4883 586.634 91.7676C586.625 92.0384 586.63 92.2965 586.646 92.542C586.646 92.7113 586.646 92.834 586.646 92.9102V94.332C586.646 94.5436 586.655 94.751 586.672 94.9541C586.697 95.1488 586.748 95.4027 586.824 95.7158C586.909 96.029 587.053 96.2829 587.256 96.4775C587.459 96.6722 587.713 96.7695 588.018 96.7695C588.339 96.7695 588.576 96.6341 588.729 96.3633C588.889 96.0924 589.021 95.7666 589.122 95.3857C589.232 95.0049 589.355 94.7467 589.49 94.6113C589.829 94.6113 590.337 94.6156 591.014 94.624C591.691 94.6325 592.199 94.6367 592.537 94.6367C592.774 94.6367 593.125 94.6325 593.591 94.624C594.056 94.6156 594.408 94.6113 594.645 94.6113H595.584C595.863 94.6113 596.016 94.7806 596.041 95.1191V95.6016C595.855 97.2858 595.233 98.6442 594.175 99.6768C593.117 100.709 591.792 101.365 590.201 101.645V101.721C589.634 101.839 588.923 101.898 588.068 101.898ZM596.727 92.8086L596.701 92.5293C596.862 91.1497 597.014 90.1891 597.158 89.6475C597.488 88.3779 598.081 87.3158 598.936 86.4609L599.24 86.1562C599.646 85.6823 600.264 85.276 601.094 84.9375H601.576C602.406 84.5905 603.768 84.2689 605.664 83.9727C606.138 83.9727 606.633 84.0107 607.149 84.0869C607.674 84.1546 608.254 84.2731 608.889 84.4424C609.523 84.6032 610.133 84.8656 610.717 85.2295C611.309 85.585 611.8 86.0124 612.189 86.5117V86.8672C613.577 88.6022 614.271 90.5488 614.271 92.707C614.271 95.1361 613.713 97.1165 612.596 98.6484L612.088 99.2832C611.699 99.7656 611.212 100.18 610.628 100.527C610.052 100.874 609.439 101.141 608.787 101.327C608.135 101.505 607.509 101.632 606.908 101.708C606.316 101.784 605.723 101.822 605.131 101.822C604.259 101.822 603.425 101.721 602.63 101.518C601.843 101.306 601.102 100.98 600.408 100.54C599.723 100.1 599.118 99.5583 598.593 98.915C598.068 98.2718 597.641 97.4974 597.311 96.5918C596.989 95.6777 596.794 94.6706 596.727 93.5703V92.8086ZM603.709 92.9102C603.709 95.8893 604.276 97.3789 605.41 97.3789C605.723 97.3789 605.994 97.3197 606.223 97.2012C606.46 97.0827 606.65 96.9007 606.794 96.6553C606.938 96.4098 607.056 96.1602 607.149 95.9062C607.243 95.6523 607.306 95.335 607.34 94.9541C607.382 94.5732 607.408 94.2389 607.416 93.9512C607.433 93.6634 607.441 93.3164 607.441 92.9102V92.4531C607.441 92.013 607.416 91.5898 607.365 91.1836C607.314 90.7773 607.226 90.3711 607.099 89.9648C606.98 89.5501 606.794 89.2201 606.54 88.9746C606.286 88.7207 605.977 88.5938 605.613 88.5938C604.344 88.5938 603.709 89.8464 603.709 92.3516V92.9102ZM625.342 84.582C625.401 84.5651 625.494 84.5524 625.621 84.5439C625.757 84.527 625.841 84.5143 625.875 84.5059L627.386 92.2373L629.366 84.4805H638.291C638.528 84.4805 638.646 84.9798 638.646 85.9785V100.934C638.63 101.069 638.591 101.179 638.532 101.264C638.473 101.348 638.384 101.408 638.266 101.441C638.156 101.467 638.067 101.484 637.999 101.492C637.94 101.492 637.834 101.492 637.682 101.492C637.148 101.492 636.336 101.501 635.244 101.518C634.161 101.535 633.348 101.543 632.807 101.543C632.383 101.281 632.172 100.307 632.172 98.623C632.172 98.1999 632.18 97.6497 632.197 96.9727C632.214 96.2871 632.223 95.7793 632.223 95.4492V94.332C632.223 94.2728 632.218 94.1797 632.21 94.0527C632.201 93.9173 632.197 93.8158 632.197 93.748C632.197 93.4603 632.214 92.9948 632.248 92.3516V93.3164C632.13 93.8158 631.901 94.5775 631.562 95.6016C631.224 96.6257 630.995 97.3874 630.877 97.8867L630.115 101.137C629.98 101.374 629.557 101.492 628.846 101.492C628.499 101.492 628.046 101.484 627.487 101.467C626.937 101.45 626.518 101.441 626.23 101.441C626.146 101.441 626.002 101.446 625.799 101.454C625.596 101.463 625.469 101.467 625.418 101.467C625.147 101.467 624.952 101.433 624.834 101.365C624.715 101.298 624.631 101.162 624.58 100.959C623.785 97.4297 623.234 94.9329 622.93 93.4688L622.473 91.2852C622.354 93.748 622.295 96.3548 622.295 99.1055V101.34H616.303C616.303 101.289 616.315 101.179 616.341 101.01C616.366 100.84 616.379 100.747 616.379 100.73C616.311 99.1055 616.277 97.0996 616.277 94.7129C616.277 93.9935 616.273 93.0371 616.265 91.8438C616.256 90.6419 616.252 89.8125 616.252 89.3555V84.8613C616.252 84.7513 616.269 84.6709 616.303 84.6201C616.337 84.5609 616.421 84.4805 616.557 84.3789H617.725C618.148 84.3789 618.452 84.3704 618.639 84.3535C619.493 84.3535 620.53 84.3916 621.749 84.4678C622.976 84.5439 623.742 84.582 624.047 84.582H625.342ZM632.248 92.2754V92.25V92.2754Z" fill="black"/>
<defs>
<linearGradient id="paint0_linear_1774_5851" x1="160.225" y1="68.5588" x2="50.7511" y2="68.5588" gradientUnits="userSpaceOnUse">
<stop stop-color="#C7004A"/>
<stop offset="1" stop-color="#DC3430"/>
</linearGradient>
<linearGradient id="paint1_linear_1774_5851" x1="40.3071" y1="138.322" x2="16.7152" y2="95.618" gradientUnits="userSpaceOnUse">
<stop stop-color="#AD0040"/>
<stop offset="1" stop-color="#F23833"/>
</linearGradient>
</defs>
</svg>
