<svg width="52" height="18" viewBox="0 0 52 18" fill="none" xmlns="http://www.w3.org/2000/svg">
<path d="M42.6616 13.1572C41.9409 13.1572 41.2935 13.04 40.7192 12.8057C40.145 12.5713 39.6558 12.2461 39.2515 11.8301C38.853 11.4082 38.5454 10.9189 38.3286 10.3623C38.1177 9.7998 38.0122 9.19629 38.0122 8.55176V8.2002C38.0122 7.46777 38.1177 6.80273 38.3286 6.20508C38.5396 5.60156 38.8384 5.08301 39.2251 4.64941C39.6118 4.21582 40.0747 3.88184 40.6138 3.64746C41.1528 3.41309 41.7476 3.2959 42.3979 3.2959C43.0718 3.2959 43.6665 3.41016 44.1821 3.63867C44.6978 3.86133 45.1284 4.17773 45.4741 4.58789C45.8198 4.99805 46.0806 5.49023 46.2563 6.06445C46.4321 6.63281 46.52 7.2627 46.52 7.9541V8.92969H39.0669V7.33008H44.2349V7.1543C44.2231 6.78516 44.1528 6.44824 44.0239 6.14355C43.895 5.83301 43.6958 5.58691 43.4263 5.40527C43.1567 5.21777 42.8081 5.12402 42.3804 5.12402C42.0347 5.12402 41.7329 5.2002 41.4751 5.35254C41.2231 5.49902 41.0122 5.70996 40.8423 5.98535C40.6782 6.25488 40.5552 6.57715 40.4731 6.95215C40.3911 7.32715 40.3501 7.74316 40.3501 8.2002V8.55176C40.3501 8.9502 40.4028 9.31934 40.5083 9.65918C40.6196 9.99902 40.7808 10.2949 40.9917 10.5469C41.2085 10.793 41.4663 10.9863 41.7651 11.127C42.0698 11.2617 42.4155 11.3291 42.8022 11.3291C43.2886 11.3291 43.728 11.2354 44.1206 11.0479C44.519 10.8545 44.8647 10.5703 45.1577 10.1953L46.3267 11.4082C46.1274 11.7012 45.8579 11.9824 45.5181 12.252C45.1841 12.5215 44.7798 12.7412 44.3052 12.9111C43.8306 13.0752 43.2827 13.1572 42.6616 13.1572Z" fill="#E2E2E2"/>
<path d="M32.7256 11.3291C33.0537 11.3291 33.3467 11.2646 33.6045 11.1357C33.8623 11.0068 34.0674 10.8252 34.2197 10.5908C34.3779 10.3564 34.4629 10.084 34.4746 9.77344H36.6631C36.6514 10.418 36.4697 10.9951 36.1182 11.5049C35.7666 12.0146 35.2979 12.4189 34.7119 12.7178C34.1318 13.0107 33.4814 13.1572 32.7607 13.1572C32.0283 13.1572 31.3896 13.0342 30.8447 12.7881C30.2998 12.542 29.8457 12.1992 29.4824 11.7598C29.125 11.3203 28.8555 10.8105 28.6738 10.2305C28.498 9.65039 28.4102 9.0293 28.4102 8.36719V8.08594C28.4102 7.42383 28.498 6.80273 28.6738 6.22266C28.8555 5.64258 29.125 5.13281 29.4824 4.69336C29.8457 4.25391 30.2998 3.91113 30.8447 3.66504C31.3896 3.41895 32.0254 3.2959 32.752 3.2959C33.5195 3.2959 34.1934 3.44531 34.7734 3.74414C35.3594 4.04297 35.8164 4.46484 36.1445 5.00977C36.4785 5.55469 36.6514 6.19629 36.6631 6.93457H34.4746C34.4629 6.59473 34.3867 6.29004 34.2461 6.02051C34.1055 5.75098 33.9062 5.53418 33.6484 5.37012C33.3906 5.20605 33.0771 5.12402 32.708 5.12402C32.3154 5.12402 31.9873 5.20605 31.7236 5.37012C31.4658 5.53418 31.2637 5.75977 31.1172 6.04688C30.9766 6.32812 30.877 6.64453 30.8184 6.99609C30.7656 7.3418 30.7393 7.70508 30.7393 8.08594V8.36719C30.7393 8.75391 30.7656 9.12305 30.8184 9.47461C30.877 9.82617 30.9766 10.1426 31.1172 10.4238C31.2637 10.6992 31.4658 10.9189 31.7236 11.083C31.9873 11.2471 32.3213 11.3291 32.7256 11.3291Z" fill="#E2E2E2"/>
<path d="M24.2134 10.96V6.57422C24.2134 6.25195 24.1577 5.97363 24.0464 5.73926C23.9351 5.50488 23.7651 5.32324 23.5366 5.19434C23.3081 5.06543 23.0181 5.00098 22.6665 5.00098C22.356 5.00098 22.0835 5.05371 21.8491 5.15918C21.6206 5.26465 21.4448 5.41406 21.3218 5.60742C21.1987 5.79492 21.1372 6.01172 21.1372 6.25781H18.8081C18.8081 5.86523 18.9019 5.49316 19.0894 5.1416C19.2769 4.78418 19.5435 4.46777 19.8892 4.19238C20.2407 3.91113 20.6597 3.69141 21.146 3.5332C21.6382 3.375 22.189 3.2959 22.7983 3.2959C23.519 3.2959 24.1606 3.41895 24.7231 3.66504C25.2915 3.90527 25.7368 4.26855 26.0591 4.75488C26.3872 5.24121 26.5513 5.85352 26.5513 6.5918V10.7402C26.5513 11.2148 26.5806 11.6221 26.6392 11.9619C26.7036 12.2959 26.7974 12.5859 26.9204 12.832V12.9814H24.5562C24.4448 12.7412 24.3599 12.4365 24.3013 12.0674C24.2427 11.6924 24.2134 11.3232 24.2134 10.96ZM24.5386 7.18945L24.5562 8.56934H23.0884C22.7251 8.56934 22.4058 8.60742 22.1304 8.68359C21.855 8.75391 21.6294 8.85938 21.4536 9C21.2778 9.13477 21.146 9.29883 21.0581 9.49219C20.9702 9.67969 20.9263 9.89355 20.9263 10.1338C20.9263 10.3682 20.979 10.5791 21.0845 10.7666C21.1958 10.9541 21.354 11.1035 21.5591 11.2148C21.77 11.3203 22.0161 11.373 22.2974 11.373C22.7075 11.373 23.0649 11.291 23.3696 11.127C23.6743 10.957 23.9116 10.752 24.0815 10.5117C24.2515 10.2715 24.3423 10.043 24.354 9.82617L25.022 10.8281C24.9399 11.0684 24.8169 11.3232 24.6528 11.5928C24.4888 11.8623 24.2778 12.1143 24.02 12.3486C23.7622 12.583 23.4517 12.7764 23.0884 12.9287C22.7251 13.0811 22.3032 13.1572 21.8228 13.1572C21.2075 13.1572 20.6567 13.0342 20.1704 12.7881C19.6841 12.542 19.3003 12.2051 19.019 11.7773C18.7378 11.3496 18.5972 10.8633 18.5972 10.3184C18.5972 9.81445 18.6909 9.36914 18.8784 8.98242C19.0659 8.5957 19.3442 8.27051 19.7134 8.00684C20.0825 7.7373 20.5396 7.53516 21.0845 7.40039C21.6353 7.25977 22.2651 7.18945 22.9741 7.18945H24.5386Z" fill="#E2E2E2"/>
<path d="M14.9282 5.41406V12.9814H12.6079V3.47168H14.8052L14.9282 5.41406ZM17.8198 3.41016L17.7847 5.57227C17.6558 5.54883 17.5093 5.53125 17.3452 5.51953C17.187 5.50781 17.0376 5.50195 16.897 5.50195C16.5396 5.50195 16.2261 5.55176 15.9565 5.65137C15.687 5.74512 15.4614 5.88281 15.2798 6.06445C15.104 6.24609 14.9692 6.46875 14.8755 6.73242C14.7817 6.99023 14.729 7.2832 14.7173 7.61133L14.2163 7.5498C14.2163 6.94629 14.2778 6.38672 14.4009 5.87109C14.5239 5.35547 14.7026 4.9043 14.937 4.51758C15.1714 4.13086 15.4644 3.83203 15.8159 3.62109C16.1733 3.4043 16.5835 3.2959 17.0464 3.2959C17.1753 3.2959 17.313 3.30762 17.4595 3.33105C17.6118 3.34863 17.7319 3.375 17.8198 3.41016Z" fill="#E2E2E2"/>
<path d="M10.3184 6.36328V11.3467C10.1309 11.5869 9.83496 11.8477 9.43066 12.1289C9.03223 12.4102 8.51074 12.6533 7.86621 12.8584C7.22168 13.0576 6.43066 13.1572 5.49316 13.1572C4.67871 13.1572 3.93457 13.0225 3.26074 12.7529C2.58691 12.4775 2.00684 12.0762 1.52051 11.5488C1.03418 11.0215 0.65918 10.377 0.395508 9.61523C0.131836 8.85352 0 7.9834 0 7.00488V6.16113C0 5.18262 0.123047 4.3125 0.369141 3.55078C0.621094 2.78906 0.978516 2.14453 1.44141 1.61719C1.91016 1.08984 2.46973 0.688477 3.12012 0.413086C3.77637 0.137695 4.50879 0 5.31738 0C6.40137 0 7.29199 0.178711 7.98926 0.536133C8.69238 0.893555 9.23145 1.38574 9.60645 2.0127C9.98145 2.63379 10.2158 3.34863 10.3096 4.15723H7.9541C7.88965 3.71191 7.76074 3.32227 7.56738 2.98828C7.37402 2.64844 7.09863 2.38477 6.74121 2.19727C6.38965 2.00391 5.93262 1.90723 5.37012 1.90723C4.89551 1.90723 4.47656 2.00098 4.11328 2.18848C3.75 2.37598 3.44531 2.64844 3.19922 3.00586C2.95312 3.36328 2.76562 3.80566 2.63672 4.33301C2.51367 4.86035 2.45215 5.46387 2.45215 6.14355V7.00488C2.45215 7.69043 2.52246 8.2998 2.66309 8.83301C2.80371 9.36035 3.00586 9.80566 3.26953 10.1689C3.53906 10.5264 3.87012 10.7988 4.2627 10.9863C4.66113 11.168 5.1123 11.2588 5.61621 11.2588C6.07324 11.2588 6.45117 11.2207 6.75 11.1445C7.05469 11.0625 7.29785 10.9658 7.47949 10.8545C7.66113 10.7432 7.80176 10.6348 7.90137 10.5293V8.12988H5.36133V6.36328H10.3184Z" fill="#E2E2E2"/>
</svg>
