<svg width="24" height="25" viewBox="0 0 24 25" fill="none" xmlns="http://www.w3.org/2000/svg">
<path d="M17 2.02539H7C4.23858 2.02539 2 4.26397 2 7.02539V17.0254C2 19.7868 4.23858 22.0254 7 22.0254H17C19.7614 22.0254 22 19.7868 22 17.0254V7.02539C22 4.26397 19.7614 2.02539 17 2.02539Z" stroke="white" stroke-width="2" stroke-linecap="round" stroke-linejoin="round"/>
<path d="M16.0002 11.3954C16.1236 12.2277 15.9815 13.0777 15.594 13.8245C15.2065 14.5713 14.5933 15.1769 13.8418 15.5551C13.0903 15.9334 12.2386 16.065 11.408 15.9314C10.5773 15.7977 9.80996 15.4055 9.21503 14.8106C8.62011 14.2157 8.22793 13.4483 8.09426 12.6177C7.9606 11.787 8.09226 10.9353 8.47052 10.1838C8.84878 9.4323 9.45438 8.81919 10.2012 8.43169C10.948 8.04419 11.7979 7.90204 12.6302 8.02545C13.4791 8.15133 14.265 8.54691 14.8719 9.15375C15.4787 9.7606 15.8743 10.5465 16.0002 11.3954Z" stroke="white" stroke-width="2" stroke-linecap="round" stroke-linejoin="round"/>
<path d="M17.5 6.52539H17.51" stroke="white" stroke-width="2" stroke-linecap="round" stroke-linejoin="round"/>
</svg>
