<svg width="25" height="25" viewBox="0 0 25 25" fill="none" xmlns="http://www.w3.org/2000/svg">
<path d="M17.5 2.02539H7.5C4.73858 2.02539 2.5 4.26397 2.5 7.02539V17.0254C2.5 19.7868 4.73858 22.0254 7.5 22.0254H17.5C20.2614 22.0254 22.5 19.7868 22.5 17.0254V7.02539C22.5 4.26397 20.2614 2.02539 17.5 2.02539Z" stroke="white" stroke-width="2" stroke-linecap="round" stroke-linejoin="round"/>
<path d="M16.5002 11.3954C16.6236 12.2277 16.4815 13.0777 16.094 13.8245C15.7065 14.5713 15.0933 15.1769 14.3418 15.5551C13.5903 15.9334 12.7386 16.065 11.908 15.9314C11.0773 15.7977 10.31 15.4055 9.71503 14.8106C9.12011 14.2157 8.72793 13.4483 8.59426 12.6177C8.4606 11.787 8.59226 10.9353 8.97052 10.1838C9.34878 9.4323 9.95438 8.81919 10.7012 8.43169C11.448 8.04419 12.2979 7.90204 13.1302 8.02545C13.9791 8.15133 14.765 8.54691 15.3719 9.15375C15.9787 9.7606 16.3743 10.5465 16.5002 11.3954Z" stroke="white" stroke-width="2" stroke-linecap="round" stroke-linejoin="round"/>
<path d="M18 6.52539H18.01" stroke="white" stroke-width="2" stroke-linecap="round" stroke-linejoin="round"/>
</svg>
