<svg width="25" height="25" viewBox="0 0 25 25" fill="none" xmlns="http://www.w3.org/2000/svg">
<path d="M16.5 8.02539C18.0913 8.02539 19.6174 8.65753 20.7426 9.78275C21.8679 10.908 22.5 12.4341 22.5 14.0254V21.0254H18.5V14.0254C18.5 13.495 18.2893 12.9863 17.9142 12.6112C17.5391 12.2361 17.0304 12.0254 16.5 12.0254C15.9696 12.0254 15.4609 12.2361 15.0858 12.6112C14.7107 12.9863 14.5 13.495 14.5 14.0254V21.0254H10.5V14.0254C10.5 12.4341 11.1321 10.908 12.2574 9.78275C13.3826 8.65753 14.9087 8.02539 16.5 8.02539V8.02539Z" stroke="white" stroke-width="2" stroke-linecap="round" stroke-linejoin="round"/>
<path d="M6.5 9.02539H2.5V21.0254H6.5V9.02539Z" stroke="white" stroke-width="2" stroke-linecap="round" stroke-linejoin="round"/>
<path d="M4.5 6.02539C5.60457 6.02539 6.5 5.12996 6.5 4.02539C6.5 2.92082 5.60457 2.02539 4.5 2.02539C3.39543 2.02539 2.5 2.92082 2.5 4.02539C2.5 5.12996 3.39543 6.02539 4.5 6.02539Z" stroke="white" stroke-width="2" stroke-linecap="round" stroke-linejoin="round"/>
</svg>
