<svg width="25" height="25" viewBox="0 0 25 25" fill="none" xmlns="http://www.w3.org/2000/svg">
<g clip-path="url(#clip0_188_283)">
<path d="M23.5 3.02544C22.5424 3.70091 21.4821 4.21755 20.36 4.55544C19.7577 3.86295 18.9573 3.37213 18.067 3.14936C17.1767 2.9266 16.2395 2.98263 15.3821 3.30989C14.5247 3.63715 13.7884 4.21984 13.273 4.97915C12.7575 5.73847 12.4877 6.63777 12.5 7.55544V8.55544C10.7426 8.601 9.00127 8.21125 7.43101 7.42088C5.86074 6.63052 4.51032 5.46407 3.5 4.02544C3.5 4.02544 -0.5 13.0254 8.5 17.0254C6.44053 18.4234 3.98716 19.1244 1.5 19.0254C10.5 24.0254 21.5 19.0254 21.5 7.52544C21.4991 7.24689 21.4723 6.96903 21.42 6.69544C22.4406 5.68893 23.1608 4.41815 23.5 3.02544V3.02544Z" stroke="white" stroke-width="2" stroke-linecap="round" stroke-linejoin="round"/>
</g>
<defs>
<clipPath id="clip0_188_283">
<rect width="24" height="24" fill="white" transform="translate(0.5 0.0253906)"/>
</clipPath>
</defs>
</svg>
