<svg width="339" height="109" viewBox="0 0 339 109" fill="none" xmlns="http://www.w3.org/2000/svg">
<path d="M6.11573 59.2143C4.60911 46.6891 8.09842 34.293 15.9291 24.3063C23.7654 14.3189 35.0555 7.90301 47.7136 6.24614C60.3718 4.58927 72.9328 7.8832 83.0814 15.5165C93.2185 23.1513 99.7751 34.2325 101.549 46.7228L97.8057 47.2527C94.4427 23.5455 72.1922 6.81421 48.1991 9.95474C24.206 13.0953 7.01128 34.9897 9.86891 58.7631L6.11573 59.2143Z" fill="#9AC95A"/>
<path d="M71.6119 74.8367L71.6119 52.3386C71.6119 51.3072 72.4595 50.4685 73.5019 50.4685C74.5443 50.4685 75.3919 51.3072 75.3919 52.3386L75.3919 72.9666L95.466 72.9666C96.5084 72.9666 97.356 73.8053 97.356 74.8367C97.356 75.8681 96.5084 76.7069 95.466 76.7068L73.5019 76.7068C72.4538 76.7068 71.6119 75.8681 71.6119 74.8367Z" fill="#3F7D20"/>
<path d="M46.6377 82.9809L46.6377 40.4244C46.6377 39.5609 47.4853 38.8586 48.5277 38.8586C49.5701 38.8586 50.4177 39.5609 50.4177 40.4244L50.4177 82.9809C50.4177 83.8445 49.5701 84.5467 48.5277 84.5467C47.4796 84.5467 46.6377 83.8492 46.6377 82.9809Z" fill="#3F7D20"/>
<path d="M23.5334 89.0346L23.2392 89.0346C23.2392 88.0032 22.0988 86.6714 23.1411 86.6714L29.5886 86.6714L29.5886 63.0569C29.5886 62.0255 30.4363 61.1868 31.4786 61.1868C32.521 61.1868 33.3687 62.0255 33.3687 63.0569L33.3687 88.5415C33.3687 89.5729 32.521 90.4116 31.4786 90.4116L21.18 90.4116L23.1411 89.0346C23.1411 90.066 24.2775 89.0346 23.2392 89.0346C22.2009 89.0346 23.5334 90.066 23.5334 89.0346Z" fill="#3F7D20"/>
<path d="M8.50546 63.8029C7.22827 63.8029 6.19163 62.7658 6.19163 61.488C6.19163 60.2102 7.22827 59.1731 8.50546 59.1731C9.78264 59.1731 10.8193 60.2102 10.8193 61.488C10.8135 62.7658 9.78264 63.8029 8.50546 63.8029Z" fill="#9AC95A"/>
<path d="M4.30157 61.488C4.30157 59.1674 6.18586 57.2822 8.50541 57.2822C10.825 57.2822 12.7092 59.1674 12.7092 61.488C12.7092 63.8087 10.825 65.6939 8.50541 65.6939C6.18586 65.6939 4.30157 63.803 4.30157 61.488ZM8.92349 61.488C8.92349 61.2531 8.73449 61.064 8.49967 61.064C8.26485 61.064 8.07586 61.2531 8.07586 61.488C8.07586 61.723 8.26485 61.9121 8.49967 61.9121C8.73449 61.9121 8.92349 61.7172 8.92349 61.488Z" fill="#9AC95A"/>
<path d="M100.796 51.4016C99.519 51.4016 98.4824 50.3644 98.4824 49.0866C98.4824 47.8089 99.519 46.7717 100.796 46.7717C102.073 46.7717 103.11 47.8089 103.11 49.0866C103.104 50.3644 102.073 51.4016 100.796 51.4016Z" fill="#9AC95A"/>
<path d="M96.5923 49.0867C96.5923 46.766 98.4766 44.8809 100.796 44.8809C103.116 44.8809 105 46.766 105 49.0867C105 51.4073 103.116 53.2925 100.796 53.2925C98.4766 53.2925 96.5923 51.4016 96.5923 49.0867ZM101.214 49.0867C101.214 48.8517 101.025 48.6627 100.79 48.6627C100.556 48.6627 100.367 48.8517 100.367 49.0867C100.367 49.3216 100.556 49.5107 100.79 49.5107C101.025 49.5107 101.214 49.3159 101.214 49.0867Z" fill="#9AC95A"/>
<path d="M43.6824 30.706C43.6824 29.8503 43.837 28.8926 44.2208 27.8215C46.2883 22.0015 53.854 16.2778 57.7028 15.6204C59.169 15.371 59.5871 14.3963 60.3201 11.8745C60.5721 11.0131 60.8299 10.1234 61.2136 9.26198C61.6317 8.31558 62.7485 7.88489 63.705 8.29858C64.6614 8.71228 65.0967 9.81735 64.6786 10.7637C64.398 11.3984 64.1861 12.1352 63.957 12.9115C63.2525 15.3257 62.2903 18.6352 58.35 19.3096C55.8643 19.7346 49.4097 24.5176 47.7946 29.0626C47.1531 30.8647 47.5998 31.8337 48.0638 32.4061C49.0374 32.3041 51.5459 30.5133 53.0694 29.4253C56.3569 27.0734 59.1976 25.0447 61.7004 25.855C62.4851 26.1101 63.5274 26.7561 64.0658 28.3882C64.8791 30.876 64.776 32.4401 64.7072 33.4772C64.6442 34.4576 64.6271 34.7239 67.5251 36.5601C71.4941 39.0762 72.5593 43.7515 73.3325 47.1687C73.6132 48.4098 74.0313 50.2516 74.4379 50.7163C75.4974 50.6653 76.9006 49.5886 77.8972 48.0641C78.9109 46.5114 79.6669 44.1482 78.762 42.1647C76.9522 38.2035 78.258 34.7296 80.4 33.4772C81.8948 32.6045 84.1342 32.6838 85.7665 34.8316C86.8775 36.2994 88.6244 37.2401 89.4147 37.3421C89.4262 37.1494 89.4205 36.8264 89.3174 36.322C88.6702 33.1145 88.9508 29.7143 90.0848 26.9941C90.4857 26.042 91.5911 25.583 92.5533 25.9797C93.5155 26.3764 93.9736 27.4701 93.5785 28.4222C92.7308 30.4453 92.5246 33.1258 93.0229 35.591C93.7274 39.0705 92.1524 40.3343 91.1501 40.782C88.4125 41.9947 84.5122 39.4106 82.7482 37.0814C82.5305 36.7924 82.3587 36.6961 82.3186 36.6904C82.3129 36.7017 82.1182 36.8321 81.9406 37.2174C81.7917 37.5461 81.3622 38.7702 82.2155 40.6346C83.5156 43.4795 83.0918 47.0214 81.0815 50.0986C79.3233 52.7904 76.7517 54.4622 74.3692 54.4622C71.1275 54.4622 70.3429 51.028 69.6556 47.9905C68.9512 44.9019 68.1551 41.394 65.4919 39.7109C61.4026 37.1154 60.7726 35.8177 60.9387 33.2335C60.996 32.3495 61.0647 31.3464 60.4691 29.5386C60.4519 29.4876 60.4347 29.4479 60.4232 29.4139C59.4152 29.5046 56.7463 31.4087 55.2801 32.4515C51.6089 35.0753 47.8175 37.7841 45.3433 35.013C44.5014 34.0836 43.6824 32.6668 43.6824 30.706Z" fill="#9AC95A"/>
<path d="M15.4469 27.3C15.4469 26.909 15.5729 26.5123 15.8306 26.1723C17.3139 24.2342 21.386 21.0946 26.1855 23.1008C29.7593 24.5969 31.3973 26.9034 32.7089 28.7565C33.3389 29.6405 33.8772 30.4056 34.5416 30.9779C35.2346 31.573 36.5233 32.0433 37.7718 32.4967C40.1658 33.3694 43.144 34.4575 43.2585 37.393C43.3273 39.6145 41.3972 41.1616 39.1463 42.9524C37.0043 44.6581 34.576 46.5906 33.6195 49.1861C33.2587 50.1722 33.1613 51.3566 33.0697 52.4957C32.9494 53.9917 32.8234 55.5445 32.0674 56.8139C31.5348 57.7037 30.3779 57.9983 29.4787 57.477C28.5795 56.9499 28.2817 55.8052 28.8086 54.9155C29.1236 54.3828 29.2152 53.272 29.3012 52.1953C29.41 50.8692 29.5302 49.3731 30.0686 47.9054C31.3859 44.3238 34.3755 41.9436 36.781 40.0339C37.8062 39.2178 39.3583 37.9824 39.49 37.4667C39.4671 37.0927 37.3709 36.322 36.4717 35.9989C34.9082 35.4266 33.2873 34.8372 32.0674 33.7888C31.0537 32.9217 30.3263 31.8903 29.6219 30.8929C28.4249 29.2042 27.2966 27.6117 24.7193 26.535C21.3975 25.1466 19.2334 26.1383 19.2105 26.1723C18.5805 26.994 17.0333 29.4025 16.2029 28.7791C15.7046 28.4221 15.4469 27.8611 15.4469 27.3Z" fill="#9AC95A"/>
<path d="M85.3689 48.0883C85.3689 47.2188 86.0834 46.5117 86.9622 46.5117L92.1719 46.5117C93.0507 46.5117 93.7653 47.2188 93.7653 48.0883C93.7653 48.9578 93.0507 49.6649 92.1719 49.6649L86.9622 49.6649C86.0786 49.6649 85.3689 48.9626 85.3689 48.0883Z" fill="#9AC95A"/>
<path d="M82.8341 55.2564C82.8341 54.225 83.6817 53.3862 84.7241 53.3862L93.7388 53.3862C94.7812 53.3862 95.6288 54.225 95.6288 55.2564C95.6288 56.2878 94.7812 57.1265 93.7388 57.1265L84.7298 57.1265C83.6817 57.1265 82.8341 56.2878 82.8341 55.2564Z" fill="#9AC95A"/>
<path d="M77.9831 62.6736C77.9831 61.6422 78.8307 60.8035 79.8731 60.8035L93.7388 60.8035C94.7812 60.8035 95.6288 61.6422 95.6288 62.6736C95.6288 63.705 94.7812 64.5437 93.7388 64.5437L79.8788 64.5437C78.8307 64.5437 77.9831 63.7106 77.9831 62.6736Z" fill="#9AC95A"/>
<path d="M22.8809 43.4442L22.8809 34.564C22.8809 33.5326 23.7285 32.6938 24.7709 32.6938C25.8132 32.6938 26.6609 33.5326 26.6609 34.564L26.6609 43.4499C26.6609 44.4813 25.8132 45.32 24.7709 45.32C23.7285 45.3143 22.8809 44.4756 22.8809 43.4442Z" fill="#9AC95A"/>
<path d="M17.8638 62.8129L17.8638 55.3948C17.8638 54.3634 18.7114 53.5247 19.7538 53.5247C20.7962 53.5247 21.6438 54.3634 21.6438 55.3948L21.6438 62.8129C21.6438 63.8443 20.7962 64.683 19.7538 64.683C18.7114 64.683 17.8638 63.8443 17.8638 62.8129Z" fill="#9AC95A"/>
<path d="M12.8467 51.3034L12.8467 43.8853C12.8467 42.8539 13.6944 42.0151 14.7367 42.0151C15.7791 42.0151 16.6267 42.8539 16.6267 43.8853L16.6267 51.3034C16.6267 52.3348 15.7791 53.1735 14.7367 53.1735C13.6944 53.1735 12.8467 52.3348 12.8467 51.3034Z" fill="#9AC95A"/>
<mask id="mask0_168_1617" style="mask-type:luminance" maskUnits="userSpaceOnUse" x="94" y="71" width="11" height="15">
<path d="M94.4995 71.4392H104.71V85.0782H94.4995V71.4392Z" fill="white"/>
</mask>
<g mask="url(#mask0_168_1617)">
<path d="M99.6046 71.4402C96.7857 71.4402 94.4995 73.578 94.4995 76.2136C94.4995 79.7937 99.6046 85.0786 99.6046 85.0786C99.6046 85.0786 104.71 79.7937 104.71 76.2136C104.71 73.578 102.423 71.4402 99.6046 71.4402ZM99.6046 77.9183C98.5981 77.9183 97.7813 77.1546 97.7813 76.2136C97.7813 75.2725 98.5981 74.5088 99.6046 74.5088C100.611 74.5088 101.428 75.2725 101.428 76.2136C101.428 77.1546 100.611 77.9183 99.6046 77.9183Z" fill="#9AC95A"/>
</g>
<mask id="mask1_168_1617" style="mask-type:luminance" maskUnits="userSpaceOnUse" x="14" y="83" width="11" height="15">
<path d="M14.12 83.9358H24.3302V97.5748H14.12V83.9358Z" fill="white"/>
</mask>
<g mask="url(#mask1_168_1617)">
<path d="M19.2251 83.9368C16.4062 83.9368 14.12 86.0746 14.12 88.7102C14.12 92.2903 19.2251 97.5752 19.2251 97.5752C19.2251 97.5752 24.3302 92.2903 24.3302 88.7102C24.3302 86.0746 22.0437 83.9368 19.2251 83.9368ZM19.2251 90.4149C18.2186 90.4149 17.4018 89.6512 17.4018 88.7102C17.4018 87.7691 18.2186 87.0053 19.2251 87.0053C20.2316 87.0053 21.0483 87.7691 21.0483 88.7102C21.0483 89.6512 20.2316 90.4149 19.2251 90.4149Z" fill="#9AC95A"/>
</g>
<mask id="mask2_168_1617" style="mask-type:luminance" maskUnits="userSpaceOnUse" x="43" y="82" width="11" height="15">
<path d="M43.5517 82.6348H53.7619V96.2738H43.5517V82.6348Z" fill="white"/>
</mask>
<g mask="url(#mask2_168_1617)">
<path d="M48.6568 82.6357C45.8379 82.6357 43.5517 84.7735 43.5517 87.4092C43.5517 90.9892 48.6568 96.2742 48.6568 96.2742C48.6568 96.2742 53.7619 90.9892 53.7619 87.4092C53.7619 84.7735 51.4755 82.6357 48.6568 82.6357ZM48.6568 89.1139C47.6503 89.1139 46.8336 88.3501 46.8336 87.4092C46.8336 86.4681 47.6503 85.7043 48.6568 85.7043C49.6633 85.7043 50.4801 86.4681 50.4801 87.4092C50.4801 88.3501 49.6633 89.1139 48.6568 89.1139Z" fill="#9AC95A"/>
</g>
<path d="M59.9338 99.5338L59.9338 44.965C59.9338 43.8655 60.8373 42.9714 61.9485 42.9714C63.0597 42.9714 63.9632 43.8655 63.9632 44.965L63.9632 97.5402L71.5033 97.5402C72.6144 97.5402 73.518 98.4343 73.518 99.5338C73.518 100.633 72.6144 101.527 71.5033 101.527L61.9546 101.527C60.8373 101.527 59.9338 100.639 59.9338 99.5338Z" fill="#3F7D20"/>
<mask id="mask3_168_1617" style="mask-type:luminance" maskUnits="userSpaceOnUse" x="69" y="94" width="12" height="15">
<path d="M69.9257 94.1416H80.8097V108.681H69.9257V94.1416Z" fill="white"/>
</mask>
<g mask="url(#mask3_168_1617)">
<path d="M75.3677 94.1423C72.3628 94.1423 69.9257 96.4212 69.9257 99.2308C69.9257 103.047 75.3677 108.681 75.3677 108.681C75.3677 108.681 80.8097 103.047 80.8097 99.2308C80.8097 96.4212 78.3724 94.1423 75.3677 94.1423ZM75.3677 101.048C74.2948 101.048 73.4241 100.234 73.4241 99.2308C73.4241 98.2276 74.2948 97.4134 75.3677 97.4134C76.4406 97.4134 77.3113 98.2276 77.3113 99.2308C77.3113 100.234 76.4406 101.048 75.3677 101.048Z" fill="#9AC95A"/>
</g>
<path d="M111 2.22439H120.988V6.02642H121.117C121.955 4.54427 124.275 1 130.977 1C134.134 1 138.452 2.0955 141.287 7.37969C143.478 3.89986 147.152 1 152.629 1C155.142 1 159.138 1.57997 162.038 4.60871C165.388 8.15299 165.904 10.5373 165.904 18.4636V37.9893H155.207V18.9791C155.207 16.0793 155.207 11.0528 149.729 11.0528C143.801 11.0528 143.801 16.4659 143.801 18.4636V37.9893H133.103V18.528C133.103 16.5948 133.103 11.0528 127.755 11.0528C121.697 11.0528 121.697 16.8526 121.697 18.9791V37.9893H111V2.22439Z" fill="white"/>
<path d="M197.964 2.22437L180.049 49.9109H168.707L174.378 36.1849L161.103 2.22437H172.509L179.662 22.9745H179.791L186.622 2.22437H197.964Z" fill="white"/>
<path d="M299.006 14.6938H293.531L282.575 41.2759H288.05L290.244 35.962H302.294L304.488 41.2759H309.963L299.006 14.6938ZM292.431 30.6418L296.266 21.3378L300.1 30.6418H292.431Z" fill="#9AC95A"/>
<path d="M209.898 18.5903C207.415 16.18 203.993 14.6938 200.218 14.6938H186.524V41.2759H200.218C207.776 41.2759 213.912 35.3251 213.912 27.9817C213.905 24.3163 212.374 20.9944 209.898 18.5903ZM200.218 35.962H191.998V20.0078H200.211C202.482 20.0078 204.534 20.9007 206.02 22.3431C207.505 23.7856 208.425 25.7775 208.425 27.9817C208.432 32.3902 204.752 35.962 200.218 35.962Z" fill="#9AC95A"/>
<path d="M228.892 23.5982C228.892 21.6188 230.497 20.0078 232.482 20.0078H250.16V14.6938H230.047C226.475 14.6938 223.578 17.5912 223.578 21.163V34.8068C223.578 38.3785 226.475 41.2759 230.047 41.2759H250.16V30.6418V25.3279H239.526V30.6418H244.84V35.9557H232.476C230.497 35.9557 228.885 34.3509 228.885 32.3653V23.5982H228.892Z" fill="#9AC95A"/>
<path d="M258.409 14.6938H253.576V41.2759H258.409V14.6938Z" fill="#9AC95A"/>
<path d="M221.161 14.6938H215.523V41.2759H221.161V14.6938Z" fill="#9AC95A"/>
<path d="M310.768 14.6938V35.0753C310.768 38.5034 313.631 41.2759 317.157 41.2759H338.156V35.962H318.321C317.176 35.962 316.249 35.0628 316.249 33.9513V14.6938H310.768Z" fill="#9AC95A"/>
<path d="M288.603 14.6938H277.646H272.171H261.215C261.215 14.6938 261.215 20.014 261.215 20.0078C261.215 20.0078 266.349 20.0078 272.171 20.0078V41.2759H277.646V20.0078C283.469 20.0078 288.603 20.0078 288.603 20.0078V14.6938Z" fill="#9AC95A"/>
<path d="M156.012 90.6426C156.012 91.1918 155.765 91.6861 155.271 92.1255C154.778 92.5648 154.229 92.7845 153.625 92.7845C153.516 92.7845 153.351 92.7296 153.131 92.6198C152.912 92.455 152.747 92.3177 152.638 92.2079C150.333 90.011 147.891 87.8416 145.313 85.6996C142.734 83.5577 140.127 81.3608 137.494 79.109C134.86 76.8572 132.254 74.4956 129.675 72.0241C127.151 69.5526 124.764 66.8614 122.514 63.9506C123.228 66.9163 124.188 70.0744 125.395 73.4246C126.602 76.7199 127.754 79.823 128.852 82.7338C130.004 85.6447 130.992 88.1711 131.815 90.3131C132.638 92.4001 133.049 93.7182 133.049 94.2674C133.049 94.9265 132.775 95.4482 132.226 95.8327C131.732 96.2721 131.211 96.4918 130.662 96.4918C130.333 96.4918 129.977 96.1348 129.593 95.4208C129.208 94.7617 128.769 93.883 128.276 92.7845C127.837 91.6861 127.37 90.4778 126.876 89.1597C126.438 87.7866 125.999 86.4411 125.56 85.1229C125.121 83.7499 124.709 82.4867 124.325 81.3333C123.941 80.1251 123.639 79.1365 123.42 78.3676L121.198 71.6945C120.704 70.2666 120.21 68.8112 119.716 67.3283C119.222 65.7905 118.756 64.3625 118.317 63.0444C117.933 61.7262 117.604 60.5729 117.329 59.5843C117.11 58.5957 117 57.9366 117 57.6071C117 57.003 117.082 56.3988 117.247 55.7947C117.412 55.1356 117.713 54.8061 118.152 54.8061C118.427 54.8061 118.619 54.8885 118.728 55.0532C118.838 55.1631 118.948 55.218 119.058 55.218L120.045 54.8061C120.32 54.8061 120.786 55.1631 121.444 55.8771C122.158 56.5361 122.953 57.4149 123.831 58.5133C124.764 59.6117 125.752 60.8475 126.794 62.2205C127.837 63.5936 128.879 64.9392 129.922 66.2573C131.019 67.5754 132.034 68.8112 132.967 69.9645C133.955 71.1179 134.833 72.0241 135.601 72.6831C136.808 73.7816 138.015 74.8251 139.222 75.8137C140.429 76.8023 141.636 77.8183 142.843 78.8619C144.105 79.8504 145.422 80.9214 146.794 82.0748C148.166 83.2281 149.675 84.5463 151.321 86.0292C151.376 86.0841 151.513 86.1115 151.732 86.1115C151.842 86.1115 151.897 85.9742 151.897 85.6996C151.897 85.425 151.897 85.0955 151.897 84.711C151.897 83.9421 151.677 82.5691 151.239 80.5919C150.8 78.5598 150.169 76.2256 149.346 73.5894C148.577 70.8982 147.672 68.0422 146.629 65.0215C145.587 61.9459 144.462 59.0076 143.255 56.2066C142.103 53.3507 140.868 50.7693 139.551 48.4626C138.289 46.1559 137.055 44.3709 135.848 43.1077C135.518 42.7782 135.272 42.2839 135.107 41.6248C134.997 40.9658 134.942 40.4166 134.942 39.9772C134.942 39.5927 135.189 39.1808 135.683 38.7414C136.232 38.2471 136.726 38 137.165 38C137.823 38 138.564 38.6591 139.387 39.9772C140.21 41.2953 141.088 43.0253 142.02 45.1673C142.953 47.2543 143.886 49.616 144.819 52.2522C145.806 54.8885 146.767 57.5522 147.699 60.2433C148.797 63.4288 149.812 66.5868 150.745 69.7174C151.732 72.793 152.583 75.6764 153.296 78.3676C154.064 81.0587 154.668 83.4753 155.107 85.6172C155.601 87.7592 155.902 89.4343 156.012 90.6426Z" fill="white"/>
<path d="M185.613 72.6008C185.723 73.3147 185.778 73.8914 185.778 74.3308C185.833 74.7702 185.86 75.2095 185.86 75.6489C185.86 77.022 185.668 78.6422 185.284 80.5095C184.955 82.3769 184.351 84.1618 183.473 85.8644C182.65 87.512 181.526 88.94 180.099 90.1483C178.727 91.3017 176.971 91.8783 174.831 91.8783C172.856 91.8783 170.991 91.3291 169.235 90.2307C167.479 89.0773 165.915 87.6219 164.543 85.8644C163.172 84.052 162.074 82.0473 161.251 79.8504C160.483 77.5986 160.099 75.3743 160.099 73.1774C160.099 69.992 160.291 67.2733 160.675 65.0215C161.114 62.7148 161.718 60.7102 162.486 59.0076C162.486 58.8428 162.376 58.6781 162.157 58.5133C161.992 58.3485 161.91 58.1289 161.91 57.8542C161.91 57.5796 162.157 57.2226 162.65 56.7833C163.199 56.3439 163.83 55.932 164.543 55.5475C165.312 55.1082 166.052 54.7512 166.766 54.4766C167.534 54.147 168.11 53.9823 168.494 53.9823C168.714 53.9823 169.07 54.0921 169.564 54.3118C170.113 54.5315 170.799 54.6413 171.622 54.6413C171.896 54.6413 172.17 54.6139 172.445 54.5589C172.719 54.504 173.021 54.4766 173.35 54.4766C174.502 54.4766 175.737 55.0258 177.054 56.1242C178.425 57.1677 179.687 58.5408 180.84 60.2433C182.047 61.9459 183.062 63.8957 183.885 66.0925C184.763 68.2345 185.339 70.4039 185.613 72.6008ZM182.321 75.8137C182.321 74.7702 182.102 73.2873 181.663 71.365C181.224 69.3878 180.565 67.4656 179.687 65.5982C178.81 63.676 177.74 62.0008 176.478 60.5729C175.27 59.1449 173.899 58.4309 172.362 58.4309C172.253 58.4309 172.033 58.4309 171.704 58.4309C171.43 58.376 171.1 58.3485 170.716 58.3485C170.332 58.2936 169.976 58.2662 169.646 58.2662C169.317 58.2112 169.125 58.1838 169.07 58.1838C168.192 58.1838 167.424 58.5957 166.766 59.4195C166.162 60.2433 165.641 61.3143 165.202 62.6324C164.818 63.9506 164.516 65.4609 164.297 67.1635C164.077 68.8661 163.967 70.5687 163.967 72.2712C163.967 72.8754 164.132 74.0562 164.461 75.8137C164.79 77.5163 165.367 79.3012 166.19 81.1686C167.067 82.981 168.22 84.6012 169.646 86.0292C171.073 87.4571 172.884 88.1711 175.078 88.1711C176.56 88.1711 177.767 87.7317 178.7 86.853C179.633 85.9193 180.346 84.7934 180.84 83.4753C181.388 82.1572 181.772 80.8116 181.992 79.4385C182.211 78.0106 182.321 76.8023 182.321 75.8137Z" fill="white"/>
<path d="M231.895 98.3042C232.004 98.6337 232.114 98.9358 232.224 99.2104C232.334 99.485 232.416 99.7871 232.471 100.117C232.58 100.446 232.635 100.748 232.635 101.023C232.635 101.407 232.498 101.709 232.224 101.929C231.949 102.204 231.62 102.423 231.236 102.588C230.907 102.753 230.578 102.863 230.249 102.918C229.919 102.973 229.727 103 229.672 103C229.343 103 228.74 101.984 227.862 99.9518C226.984 97.9747 226.024 95.1736 224.981 91.5488C223.993 87.924 222.978 83.6126 221.936 78.6147C220.893 73.6168 220.043 68.1246 219.384 62.1382C219.275 63.4014 219.055 64.8842 218.726 66.5868C218.452 68.2345 218.013 69.7997 217.409 71.2826C216.806 72.7655 216.01 74.0287 215.022 75.0722C214.089 76.0608 212.882 76.5551 211.401 76.5551C210.358 76.5551 209.179 76.0059 207.862 74.9075C206.545 73.809 205.256 72.5184 203.993 71.0355C202.786 69.4977 201.662 67.9599 200.619 66.4221C199.631 64.8293 198.891 63.5387 198.397 62.5501C198.616 64.9666 198.973 67.8775 199.467 71.2826C200.015 74.6878 200.839 78.2852 201.936 82.0748C202.046 82.4592 202.155 82.7613 202.265 82.981C202.43 83.1458 202.567 83.338 202.677 83.5577C202.841 83.7774 202.951 84.0245 203.006 84.2991C203.116 84.5188 203.17 84.8758 203.17 85.3701C203.17 86.0841 202.896 86.6058 202.347 86.9354C201.799 87.2649 201.277 87.4297 200.784 87.4297C200.509 87.4297 200.153 87.0177 199.714 86.1939C199.275 85.3152 198.808 84.1893 198.315 82.8162C197.821 81.4432 197.327 79.9328 196.833 78.2852C196.339 76.5826 195.873 74.9075 195.434 73.2598C195.05 71.6122 194.721 70.0744 194.446 68.6464C194.172 67.1635 194.035 65.9827 194.035 65.1039C194.035 63.676 194.09 62.6874 194.199 62.1382C194.364 61.5889 194.583 61.177 194.858 60.9024V55.8771C194.858 55.1082 195.05 54.5315 195.434 54.147C195.873 53.7077 196.422 53.488 197.08 53.488C197.629 53.488 198.26 53.9548 198.973 54.8885C199.686 55.8221 200.454 57.003 201.277 58.4309C202.155 59.8589 203.061 61.3967 203.993 63.0444C204.926 64.692 205.832 66.2298 206.71 67.6578C207.642 69.0858 208.52 70.2666 209.343 71.2003C210.221 72.1339 211.044 72.6008 211.812 72.6008C212.526 72.6008 213.212 71.9417 213.87 70.6236C214.528 69.2505 215.132 67.4656 215.681 65.2687C216.284 63.0718 216.806 60.5729 217.244 57.7719C217.683 54.9708 218.04 52.1149 218.314 49.2041C218.314 48.8745 218.287 48.5175 218.232 48.1331C218.177 47.6937 218.15 47.2269 218.15 46.7326C218.15 46.0735 218.287 45.3595 218.561 44.5906C218.891 43.8217 219.494 43.4373 220.372 43.4373C220.866 43.4373 221.25 43.5746 221.524 43.8492C221.853 44.1238 222.073 44.4808 222.183 44.9202C222.292 45.3046 222.347 45.7165 222.347 46.1559C222.402 46.5403 222.43 46.8699 222.43 47.1445C222.43 47.5839 222.375 48.3253 222.265 49.3688C222.21 50.3574 222.183 51.8952 222.183 53.9823C222.183 55.7947 222.32 57.9092 222.594 60.3257C222.869 62.6874 223.225 65.2138 223.664 67.9049C224.158 70.5412 224.707 73.2873 225.31 76.1432C225.969 78.9442 226.655 81.6903 227.368 84.3815C228.136 87.0727 228.877 89.6265 229.59 92.0431C230.358 94.4047 231.126 96.4918 231.895 98.3042Z" fill="white"/>
<path d="M260.511 96.4804C260.566 96.7 260.594 96.8923 260.594 97.057C260.594 97.2767 260.594 97.4415 260.594 97.5513C260.594 98.1005 260.456 98.485 260.182 98.7047C259.963 98.9244 259.496 99.0342 258.783 99.0342C258.125 99.0342 257.686 98.9244 257.466 98.7047C257.137 98.3752 256.698 97.5239 256.149 96.1508C255.601 94.7778 255.024 93.1576 254.421 91.2902C253.817 89.4229 253.214 87.4183 252.61 85.2763C252.061 83.1343 251.568 81.1022 251.129 79.18C250.525 79.4546 249.702 79.7567 248.66 80.0862C247.617 80.3608 246.547 80.6354 245.45 80.91C244.188 81.1846 242.871 81.4867 241.499 81.8162C241.005 84.1779 240.621 86.21 240.347 87.9126C240.127 89.5602 239.908 90.9332 239.688 92.0317C239.524 93.0752 239.277 93.8441 238.948 94.3384C238.673 94.8876 238.207 95.1622 237.548 95.1622C237.11 95.1622 236.725 94.9151 236.396 94.4208C236.067 93.9265 235.902 93.185 235.902 92.1965C235.902 91.7022 236.04 90.5488 236.314 88.7364C236.588 86.924 236.89 84.9193 237.219 82.7224C237.548 80.4706 237.878 78.2463 238.207 76.0494C238.536 73.8526 238.756 72.1225 238.865 70.8593C238.92 70.2003 239.085 69.1293 239.359 67.6464C239.688 66.1635 240.018 64.6531 240.347 63.1153C240.676 61.5226 241.005 60.0946 241.334 58.8314C241.664 57.5682 241.883 56.8542 241.993 56.6895C242.871 54.6574 243.42 52.5703 243.639 50.4284C243.913 48.2864 244.105 46.3367 244.215 44.5792C244.38 42.7668 244.627 41.3114 244.956 40.2129C245.285 39.0596 245.971 38.4829 247.013 38.4829C247.288 38.4829 247.562 38.7026 247.836 39.142C248.166 39.5813 248.468 40.1031 248.742 40.7072C249.016 41.3114 249.236 41.9155 249.4 42.5196C249.565 43.0689 249.675 43.5082 249.729 43.8378C249.784 44.1673 249.839 44.8264 249.894 45.815C250.004 46.8035 250.086 47.902 250.141 49.1103C250.251 50.2636 250.333 51.417 250.388 52.5703C250.498 53.6688 250.58 54.5201 250.635 55.1242C250.799 56.9366 251.046 58.9687 251.376 61.2205C251.76 63.4723 252.144 65.5868 252.528 67.564C252.912 69.5412 253.269 71.2163 253.598 72.5894C253.927 73.9075 254.174 74.5665 254.339 74.5665C254.558 74.5665 254.832 74.5116 255.162 74.4018C255.546 74.2919 255.902 74.237 256.232 74.237C256.67 74.237 256.89 74.4567 256.89 74.8961C256.89 75.3354 256.78 75.6924 256.561 75.967C256.341 76.2417 256.094 76.4888 255.82 76.7085C255.601 76.9282 255.381 77.1204 255.162 77.2852C254.997 77.4499 254.915 77.6422 254.915 77.8619C254.915 78.3012 255.162 79.4271 255.655 81.2395L256.972 86.1001C257.082 86.5395 257.329 87.2809 257.713 88.3245C258.097 89.368 258.481 90.4664 258.865 91.6198C259.304 92.7182 259.688 93.7343 260.018 94.6679C260.347 95.6565 260.511 96.2607 260.511 96.4804ZM242.24 77.6147C242.569 77.6147 243.173 77.5323 244.051 77.3676C244.928 77.1479 245.834 76.9007 246.767 76.6261C247.699 76.3515 248.522 76.0769 249.236 75.8023C249.949 75.5277 250.306 75.308 250.306 75.1432C250.306 74.9785 250.196 74.5665 249.976 73.9075C249.812 73.1935 249.592 72.3147 249.318 71.2712C249.099 70.1728 248.852 68.9371 248.577 67.564C248.303 66.191 248.056 64.7355 247.836 63.1977C247.727 62.2091 247.59 60.8635 247.425 59.161C247.26 57.4584 247.096 55.7833 246.931 54.1356C246.767 52.433 246.629 50.9776 246.52 49.7693C246.41 48.561 246.355 47.9569 246.355 47.9569C246.355 47.9569 246.273 48.3688 246.108 49.1927C245.944 49.9616 245.751 50.8403 245.532 51.8289C245.367 52.7626 245.203 53.6688 245.038 54.5475C244.928 55.3714 244.874 55.8382 244.874 55.948V58.2548C244.874 58.3646 244.791 58.8589 244.627 59.7376C244.517 60.5615 244.352 61.6324 244.133 62.9506C243.913 64.2138 243.666 65.6143 243.392 67.1521C243.173 68.635 242.953 70.063 242.734 71.436C242.514 72.809 242.322 74.0448 242.158 75.1432C242.048 76.1867 241.993 76.9007 241.993 77.2852C241.993 77.5049 242.075 77.6147 242.24 77.6147Z" fill="white"/>
<path d="M298.063 69.1407C298.063 71.008 297.733 72.793 297.075 74.4956C296.417 76.1981 295.484 77.8458 294.277 79.4385C293.069 81.0313 291.643 82.5965 289.997 84.1343C288.406 85.6172 286.65 87.0727 284.729 88.5006C282.699 90.0384 280.34 91.5213 277.651 92.9493C274.963 94.3773 272.247 95.6405 269.503 96.7389C266.814 97.8923 264.263 98.7985 261.849 99.4575C259.435 100.117 257.487 100.446 256.005 100.446C255.018 100.446 254.304 100.309 253.865 100.034C253.371 99.8145 253.125 99.2653 253.125 98.3866C253.125 97.7824 253.344 97.0684 253.783 96.2446C254.222 95.4208 254.661 95.0089 255.1 95.0089C255.539 95.0089 255.868 95.1462 256.087 95.4208C256.252 95.6954 256.334 95.9975 256.334 96.327C256.334 96.4918 256.334 96.6291 256.334 96.7389C256.28 96.8488 256.252 96.9311 256.252 96.9861V97.1508C258.337 96.9311 261.135 96.2721 264.647 95.1736C268.104 94.1301 272.247 92.2902 277.075 89.654C279.16 88.5006 281.218 87.1551 283.248 85.6172C285.278 84.0245 287.089 82.3494 288.68 80.5919C290.326 78.7795 291.643 76.9121 292.631 74.9899C293.618 73.0127 294.112 71.0904 294.112 69.2231C294.112 67.9049 293.426 66.5594 292.054 65.1863C290.738 63.7583 289.037 62.4402 286.952 61.2319C284.921 59.9687 282.699 58.8978 280.285 58.019C277.871 57.0853 275.621 56.4537 273.536 56.1242C273.591 56.3988 273.673 57.0853 273.783 58.1838C273.893 59.2273 274.057 60.463 274.277 61.891C274.496 63.319 274.743 64.8568 275.017 66.5044C275.347 68.0972 275.703 69.5801 276.087 70.9531C276.526 72.4909 276.801 73.6443 276.91 74.4132C277.075 75.1272 277.185 75.7313 277.24 76.2256C277.295 76.7748 277.377 77.4888 277.487 78.3676C277.651 79.1914 277.761 80.0701 277.816 81.0038C277.926 81.8826 278.008 82.7338 278.063 83.5577C278.172 84.3266 278.227 84.9307 278.227 85.3701C278.227 85.8644 278.118 86.3861 277.898 86.9354C277.733 87.4846 277.514 87.7592 277.24 87.7592C276.581 87.7592 276.115 87.5395 275.84 87.1001C275.621 86.6058 275.402 85.8095 275.182 84.711C275.017 83.5577 274.798 82.0748 274.524 80.2624C274.249 78.4499 273.728 76.2256 272.96 73.5894C271.862 69.9096 271.094 66.4495 270.655 63.2091C270.216 59.9138 269.942 57.305 269.832 55.3828C269.832 55.3828 269.695 55.3828 269.421 55.3828C269.201 55.3278 268.872 55.3004 268.433 55.3004C268.049 55.3004 267.583 55.3004 267.034 55.3004C266.54 55.2455 266.074 55.218 265.635 55.218C264.702 55.218 263.852 55.4102 263.083 55.7947C262.315 56.1242 261.684 56.5087 261.19 56.948C260.642 57.3874 260.203 57.7993 259.873 58.1838C259.489 58.5133 259.242 58.6781 259.133 58.6781C258.749 58.6781 258.227 58.5957 257.569 58.4309C256.856 58.2112 256.499 57.8268 256.499 57.2776C256.499 56.5636 256.856 55.8496 257.569 55.1356C258.227 54.3667 259.05 53.7076 260.038 53.1584C261.026 52.5543 262.096 52.0875 263.248 51.7579C264.4 51.3735 265.47 51.1812 266.458 51.1812C268.104 51.1812 270.024 51.4009 272.219 51.8403C274.414 52.2797 276.664 52.8838 278.968 53.6527C281.327 54.4216 283.632 55.3553 285.882 56.4537C288.186 57.5522 290.244 58.7605 292.054 60.0786C293.865 61.3967 295.319 62.8247 296.416 64.3625C297.514 65.9003 298.063 67.493 298.063 69.1407Z" fill="white"/>
<path d="M338 81.91C338 84.3815 337.561 86.3312 336.683 87.7592C335.805 89.1322 334.516 90.4229 332.815 91.6312C332.376 91.9058 331.772 92.2353 331.004 92.6198C330.236 93.0042 329.385 93.3612 328.453 93.6908C327.52 94.0203 326.532 94.2949 325.49 94.5146C324.447 94.7343 323.487 94.8441 322.609 94.8441C320.14 94.8441 318.274 94.5695 317.012 94.0203C315.75 93.526 315.119 92.9218 315.119 92.2079C315.119 91.439 315.339 90.8074 315.778 90.3131C316.217 89.8188 316.601 89.5441 316.93 89.4892L317.835 90.1483C318.11 90.4229 318.494 90.725 318.988 91.0545C319.482 91.3291 320.277 91.4664 321.375 91.4664C322.417 91.4664 323.679 91.3016 325.161 90.9721C326.642 90.5877 328.041 90.0384 329.358 89.3245C330.73 88.5556 331.882 87.6219 332.815 86.5234C333.802 85.425 334.296 84.1618 334.296 82.7338C334.296 81.4706 333.336 80.3173 331.416 79.2738C329.55 78.1753 326.587 77.4339 322.527 77.0494C320.442 76.8847 318.384 76.6375 316.354 76.308C314.324 75.9235 312.486 75.4292 310.84 74.8251C309.248 74.166 307.959 73.3697 306.971 72.436C305.984 71.4474 305.49 70.2391 305.49 68.8112C305.49 67.4381 305.874 66.12 306.642 64.8568C307.41 63.5936 308.343 62.4402 309.44 61.3967C310.593 60.2983 311.772 59.3371 312.98 58.5133C314.187 57.6895 315.202 57.003 316.025 56.4537C316.683 56.0693 317.589 55.575 318.741 54.9708C319.948 54.3118 321.21 53.7076 322.527 53.1584C323.899 52.5543 325.243 52.06 326.56 51.6755C327.931 51.2362 329.084 51.0165 330.016 51.0165C331.114 51.0165 331.855 51.3185 332.239 51.9227C332.623 52.5268 332.815 53.3781 332.815 54.4766C332.815 55.4102 332.705 56.3988 332.486 57.4423C332.266 58.4858 332.019 59.5019 331.745 60.4905C331.471 61.4791 331.196 62.3578 330.922 63.1267C330.702 63.8407 330.538 64.3076 330.428 64.5273C330.209 65.0215 329.962 65.3511 329.687 65.5158C329.413 65.6806 329.221 65.763 329.111 65.763C328.892 65.763 328.782 65.6257 328.782 65.3511C328.782 65.1863 328.809 64.8842 328.864 64.4449C328.974 63.9506 329.084 63.3739 329.193 62.7148C329.358 62.0558 329.468 61.3418 329.523 60.5729C329.632 59.804 329.687 59.0351 329.687 58.2662C329.687 57.0579 329.632 56.1791 329.523 55.6299C329.413 55.0807 328.974 54.8061 328.206 54.8061C327.438 54.8061 326.395 55.0258 325.078 55.4651C323.761 55.8496 322.417 56.3439 321.045 56.948C319.564 57.6071 318.11 58.4584 316.683 59.5019C315.311 60.5454 314.077 61.6164 312.98 62.7148C311.882 63.8133 310.977 64.8842 310.264 65.9278C309.605 66.9164 309.276 67.7127 309.276 68.3169C309.276 68.9759 309.715 69.6075 310.593 70.2117C311.526 70.7609 312.678 71.2552 314.049 71.6945C315.476 72.1339 317.04 72.5184 318.741 72.8479C320.442 73.1774 322.115 73.4246 323.761 73.5894C325.133 73.7541 326.642 73.9738 328.288 74.2484C329.934 74.523 331.471 74.9624 332.897 75.5665C334.324 76.1707 335.531 76.9945 336.519 78.038C337.506 79.0266 338 80.3173 338 81.91Z" fill="white"/>
</svg>
