<svg width="219" height="187" viewBox="0 0 219 187" fill="none" xmlns="http://www.w3.org/2000/svg">
<path d="M218.213 30.9816C218.213 31.2922 218.213 31.6027 218.213 31.9133C218.213 32.2239 218.213 32.5344 218.213 32.845C218.213 33.1555 218.213 33.4661 218.213 33.7834C218.213 34.0939 218.213 34.4045 218.213 34.7218C218.213 35.0324 218.213 35.3497 218.213 35.6603C218.213 35.9708 218.213 36.2881 218.213 36.5987C218.213 36.9092 218.213 37.2266 218.213 37.5371C218.213 37.8544 218.213 38.165 218.213 38.4823C218.213 38.7996 218.213 39.1101 218.213 39.4275C218.213 39.7448 218.213 40.0621 218.213 40.3794C218.213 40.6967 218.213 41.014 218.213 41.3313C218.213 41.6486 218.213 41.9659 218.213 42.2833C218.213 42.6006 218.213 42.9246 218.213 43.2419C218.213 43.5592 218.213 43.8833 218.213 44.2074C218.213 44.5314 218.213 44.8487 218.213 45.1728C218.213 45.4969 218.213 45.8209 218.213 46.145C218.213 46.4691 218.213 46.7931 218.213 47.1239C218.213 47.448 218.213 47.7788 218.213 48.1029C218.213 48.4337 218.213 48.7577 218.213 49.0885C218.213 49.4193 218.213 49.7502 218.213 50.081C218.213 50.4118 218.213 50.7494 218.213 51.0802C218.213 51.4177 218.213 51.7485 218.213 52.0861C218.213 52.4237 218.213 52.7612 218.213 53.0988C218.213 53.4364 218.213 53.7807 218.213 54.1182C218.213 54.4626 218.213 54.8001 218.213 55.1444C218.213 55.4887 218.213 55.8331 218.213 56.1774C218.213 56.5217 218.213 56.8728 218.213 57.2238C218.213 57.5749 218.213 57.926 218.213 58.277C218.213 58.6281 218.213 58.9859 218.213 59.337C218.213 59.6948 218.213 60.0459 218.213 60.4104C218.213 60.775 218.213 61.1261 218.213 61.4906C218.213 61.8552 218.213 62.213 218.213 62.5776C217.242 62.5776 216.272 62.5776 215.308 62.5776C214.337 62.5776 213.373 62.5776 212.403 62.5776C211.432 62.5776 210.468 62.5776 209.498 62.5776C208.527 62.5776 207.564 62.5776 206.6 62.5776C205.636 62.5776 204.665 62.5776 203.701 62.5776C202.738 62.5776 201.767 62.5776 200.803 62.5776C199.839 62.5776 198.869 62.5776 197.905 62.5776C196.941 62.5776 195.97 62.5776 195.007 62.5776C194.043 62.5776 193.072 62.5776 192.108 62.5776C191.144 62.5776 190.174 62.5776 189.21 62.5776C188.246 62.5776 187.276 62.5776 186.312 62.5776C185.348 62.5776 184.377 62.5776 183.413 62.5776C182.45 62.5776 181.479 62.5776 180.508 62.5776C179.538 62.5776 178.574 62.5776 177.604 62.5776C176.633 62.5776 175.662 62.5776 174.699 62.5776C173.728 62.5776 172.758 62.5776 171.787 62.5776C170.817 62.5776 169.846 62.5776 168.875 62.5776C167.905 62.5776 166.928 62.5776 165.957 62.5776C164.987 62.5776 164.01 62.5776 163.032 62.5776C162.055 62.5776 161.078 62.5776 160.108 62.5776C159.13 62.5776 158.153 62.5776 157.176 62.5776C156.199 62.5776 155.215 62.5776 154.238 62.5776C153.254 62.5776 152.277 62.5776 151.293 62.5776C150.309 62.5776 149.325 62.5776 148.342 62.5776C147.358 62.5776 146.367 62.5776 145.383 62.5776C144.393 62.5776 143.409 62.5776 142.419 62.5776C141.428 62.5776 140.438 62.5776 139.441 62.5776C138.45 62.5776 137.453 62.5776 136.456 62.5776C135.459 62.5776 134.462 62.5776 133.465 62.5776C132.467 62.5776 131.464 62.5776 130.467 62.5776C129.469 62.5776 128.459 62.5776 127.455 62.5776C126.452 62.5776 125.441 62.5776 124.437 62.5776C124.437 62.9287 124.437 63.2797 124.437 63.6308C124.437 63.9819 124.437 64.3262 124.437 64.6772C124.437 65.0216 124.437 65.3726 124.437 65.7169C124.437 66.0613 124.437 66.4056 124.437 66.7431C124.437 67.0874 124.437 67.425 124.437 67.7626C124.437 68.1001 124.437 68.4377 124.437 68.7753C124.437 69.1128 124.437 69.4504 124.437 69.788C124.437 70.1255 124.437 70.4563 124.437 70.7939C124.437 71.1315 124.437 71.4623 124.437 71.7931C124.437 72.1239 124.437 72.4547 124.437 72.7923C124.437 73.1231 124.437 73.4539 124.437 73.7847C124.437 74.1155 124.437 74.4464 124.437 74.7772C124.437 75.108 124.437 75.4388 124.437 75.7628C124.437 76.0937 124.437 76.4245 124.437 76.7485C124.437 77.0793 124.437 77.4102 124.437 77.7342C124.437 78.065 124.437 78.3891 124.437 78.7199C124.437 79.0507 124.437 79.3815 124.437 79.7056C124.437 80.0364 124.437 80.3672 124.437 80.698C124.437 81.0288 124.437 81.3597 124.437 81.6905C124.437 82.0213 124.437 82.3521 124.437 82.6829C124.437 83.0137 124.437 83.3445 124.437 83.6821C124.437 84.0129 124.437 84.3505 124.437 84.6813C124.437 85.0188 124.437 85.3497 124.437 85.6872C124.437 86.0248 124.437 86.3624 124.437 86.6999C124.437 87.0375 124.437 87.375 124.437 87.7194C124.437 88.0569 124.437 88.4012 124.437 88.7456C124.437 89.0899 124.437 89.4342 124.437 89.7785C124.437 90.1228 124.437 90.4671 124.437 90.8182C124.437 91.1693 124.437 91.5136 124.437 91.8646C124.437 92.2157 124.437 92.5668 124.437 92.9246C124.437 93.2757 124.437 93.6335 124.437 93.9913C124.437 94.3491 124.437 94.7069 124.437 95.0715C124.065 95.0715 123.693 95.0715 123.321 95.0715C122.948 95.0715 122.583 95.0715 122.21 95.0715C121.845 95.0715 121.479 95.0715 121.114 95.0715C120.748 95.0715 120.389 95.0715 120.023 95.0715C119.664 95.0715 119.306 95.0715 118.947 95.0715C118.588 95.0715 118.229 95.0715 117.876 95.0715C117.524 95.0715 117.165 95.0715 116.813 95.0715C116.46 95.0715 116.108 95.0715 115.756 95.0715C115.403 95.0715 115.058 95.0715 114.705 95.0715C114.36 95.0715 114.014 95.0715 113.668 95.0715C113.323 95.0715 112.977 95.0715 112.638 95.0715C112.292 95.0715 111.953 95.0715 111.614 95.0715C111.275 95.0715 110.936 95.0715 110.597 95.0715C110.258 95.0715 109.919 95.0715 109.58 95.0715C109.241 95.0715 108.909 95.0715 108.57 95.0715C108.238 95.0715 107.899 95.0715 107.566 95.0715C107.234 95.0715 106.901 95.0715 106.569 95.0715C106.237 95.0715 105.904 95.0715 105.579 95.0715C105.246 95.0715 104.92 95.0715 104.588 95.0715C104.262 95.0715 103.93 95.0715 103.604 95.0715C103.279 95.0715 102.953 95.0715 102.62 95.0715C102.295 95.0715 101.969 95.0715 101.643 95.0715C101.318 95.0715 100.992 95.0715 100.666 95.0715C100.34 95.0715 100.021 95.0715 99.6956 95.0715C99.3699 95.0715 99.0508 95.0715 98.725 95.0715C98.3993 95.0715 98.0802 95.0715 97.7612 95.0715C97.4421 95.0715 97.1164 95.0715 96.7973 95.0715C96.4782 95.0715 96.1525 95.0715 95.8334 95.0715C95.5143 95.0715 95.1953 95.0715 94.8695 95.0715C94.5505 95.0715 94.2314 95.0715 93.9056 95.0715C93.5866 95.0715 93.2675 95.0715 92.9484 95.0715C92.6293 95.0715 92.3103 95.0715 91.9912 95.0715L92.0045 95.085L92.0178 95.0985L92.0311 95.112L92.0444 95.1255L92.0577 95.139L92.0709 95.1525L92.0843 95.166L92.0976 95.1795L92.1108 95.193L92.1241 95.2065L92.1374 95.22L92.1507 95.2335L92.164 95.247L92.1773 95.2605L92.1906 95.274L92.2039 95.2875L92.2172 95.301L92.2305 95.3145L92.2438 95.3281L92.2571 95.3416L92.2704 95.355L92.2837 95.3686L92.297 95.3821L92.3103 95.3956L92.3236 95.4091L92.3369 95.4226L92.3502 95.4361L92.3634 95.4496L92.3767 95.4631L92.3901 95.4766L92.4033 95.4901L92.4166 95.5036C92.4166 95.1795 92.4166 94.8555 92.4166 94.5314C92.4166 94.2073 92.4166 93.8833 92.4166 93.5592C92.4166 93.2351 92.4166 92.9111 92.4166 92.5803C92.4166 92.2562 92.4166 91.9321 92.4166 91.6013C92.4166 91.2773 92.4166 90.9465 92.4166 90.6224C92.4166 90.2984 92.4166 89.9675 92.4166 89.6435C92.4166 89.3194 92.4166 88.9886 92.4166 88.6645C92.4166 88.3405 92.4166 88.0097 92.4166 87.6788C92.4166 87.348 92.4166 87.024 92.4166 86.6932C92.4166 86.3624 92.4166 86.0315 92.4166 85.7075C92.4166 85.3767 92.4166 85.0459 92.4166 84.715C92.4166 84.3842 92.4166 84.0534 92.4166 83.7226C92.4166 83.3918 92.4166 83.0542 92.4166 82.7234C92.4166 82.3926 92.4166 82.055 92.4166 81.7175C92.4166 81.3799 92.4166 81.0491 92.4166 80.7115C92.4166 80.374 92.4166 80.0364 92.4166 79.6988C92.4166 79.3613 92.4166 79.0237 92.4166 78.6794C92.4166 78.3418 92.4166 77.9975 92.4166 77.6532C92.4166 77.3089 92.4166 76.9713 92.4166 76.627C92.4166 76.2827 92.4166 75.9384 92.4166 75.5941C92.4166 75.2497 92.4166 74.8987 92.4166 74.5544C92.4166 74.2033 92.4166 73.859 92.4166 73.5079C92.4166 73.1569 92.4166 72.8058 92.4166 72.4547C92.4166 72.1037 92.4166 71.7458 92.4166 71.3948C92.4166 71.0369 92.4166 70.6859 92.4166 70.3281C92.4166 69.9703 92.4166 69.6124 92.4166 69.2479C92.4166 68.8833 92.4166 68.5255 92.4166 68.1609C92.4166 67.7963 92.4166 67.4318 92.4166 67.0672C92.4166 66.7026 92.4166 66.3313 92.4166 65.9667C92.4166 65.5954 92.4166 65.2241 92.4166 64.8528C92.4166 64.4815 92.4166 64.1034 92.4166 63.7321C92.4166 63.354 92.4166 62.9827 92.4166 62.5979C92.0444 62.5979 91.6721 62.5979 91.3065 62.5979C90.9409 62.5979 90.5753 62.5979 90.2097 62.5979C89.8441 62.5979 89.4851 62.5979 89.1261 62.5979C88.7672 62.5979 88.4082 62.5979 88.0559 62.5979C87.7036 62.5979 87.3513 62.5979 86.9989 62.5979C86.6466 62.5979 86.301 62.5979 85.9487 62.5979C85.603 62.5979 85.2573 62.5979 84.9117 62.5979C84.566 62.5979 84.227 62.5979 83.888 62.5979C83.5489 62.5979 83.2099 62.5979 82.8709 62.5979C82.5319 62.5979 82.1995 62.5979 81.8605 62.5979C81.5215 62.5979 81.1957 62.5979 80.8634 62.5979C80.531 62.5979 80.1986 62.5979 79.8729 62.5979C79.5472 62.5979 79.2148 62.5979 78.8891 62.5979C78.5634 62.5979 78.2376 62.5979 77.9119 62.5979C77.5862 62.5979 77.2605 62.5979 76.9414 62.5979C76.6157 62.5979 76.2966 62.5979 75.9775 62.5979C75.6584 62.5979 75.3394 62.5979 75.0203 62.5979C74.7012 62.5979 74.3821 62.5979 74.0631 62.5979C73.744 62.5979 73.4249 62.5979 73.1125 62.5979C72.7934 62.5979 72.481 62.5979 72.1619 62.5979C71.8495 62.5979 71.5304 62.5979 71.2179 62.5979C70.9055 62.5979 70.5864 62.5979 70.274 62.5979C69.9616 62.5979 69.6492 62.5979 69.3301 62.5979C69.0177 62.5979 68.7052 62.5979 68.3928 62.5979C68.0803 62.5979 67.7679 62.5979 67.4555 62.5979C67.1431 62.5979 66.8306 62.5979 66.5182 62.5979C66.2058 62.5979 65.8934 62.5979 65.5809 62.5979C65.2685 62.5979 64.9561 62.5979 64.6436 62.5979C64.3312 62.5979 64.0188 62.5979 63.7063 62.5979C63.3939 62.5979 63.0815 62.5979 62.7624 62.5979C62.45 62.5979 62.1309 62.5979 61.8185 62.5979C61.5061 62.5979 61.1869 62.5979 60.8679 62.5979C60.8679 62.2333 60.8679 61.862 60.8679 61.4974C60.8679 61.1328 60.8679 60.7683 60.8679 60.4104C60.8679 60.0526 60.8679 59.6881 60.8679 59.3302C60.8679 58.9724 60.8679 58.6146 60.8679 58.2635C60.8679 57.9125 60.8679 57.5547 60.8679 57.2036C60.8679 56.8525 60.8679 56.5014 60.8679 56.1571C60.8679 55.8061 60.8679 55.4618 60.8679 55.1174C60.8679 54.7731 60.8679 54.4288 60.8679 54.0845C60.8679 53.7402 60.8679 53.4026 60.8679 53.0583C60.8679 52.7207 60.8679 52.3764 60.8679 52.0388C60.8679 51.7013 60.8679 51.3637 60.8679 51.0262C60.8679 50.6886 60.8679 50.3578 60.8679 50.0202C60.8679 49.6894 60.8679 49.3518 60.8679 49.021C60.8679 48.6902 60.8679 48.3594 60.8679 48.0286C60.8679 47.6978 60.8679 47.3737 60.8679 47.0429C60.8679 46.7188 60.8679 46.388 60.8679 46.064C60.8679 45.7399 60.8679 45.4159 60.8679 45.0918C60.8679 44.7677 60.8679 44.4437 60.8679 44.1263C60.8679 43.8023 60.8679 43.485 60.8679 43.1609C60.8679 42.8436 60.8679 42.5195 60.8679 42.2022C60.8679 41.8849 60.8679 41.5676 60.8679 41.2436C60.8679 40.9262 60.8679 40.6089 60.8679 40.2916C60.8679 39.9743 60.8679 39.657 60.8679 39.3464C60.8679 39.0359 60.8679 38.7186 60.8679 38.4013C60.8679 38.084 60.8679 37.7734 60.8679 37.4561C60.8679 37.1388 60.8679 36.8282 60.8679 36.5177C60.8679 36.2071 60.8679 35.8898 60.8679 35.5792C60.8679 35.2687 60.8679 34.9514 60.8679 34.6408C60.8679 34.3302 60.8679 34.0197 60.8679 33.7024C60.8679 33.3918 60.8679 33.0813 60.8679 32.7707C60.8679 32.4601 60.8679 32.1496 60.8679 31.839C60.8679 31.5285 60.8679 31.2179 60.8679 30.9074L60.8546 30.9209L60.8413 30.9344L60.828 30.9479L60.8147 30.9614L60.8014 30.9749L60.7881 30.9884L60.7748 31.0019L60.7615 31.0154L60.7482 31.0289L60.735 31.0424L60.7216 31.0559L60.7083 31.0694L60.6951 31.0829L60.6818 31.0964L60.6685 31.1099L60.6552 31.1234L60.6419 31.1369L60.6286 31.1504L60.6153 31.1639L60.602 31.1774L60.5887 31.1909L60.5754 31.2044L60.5621 31.2179L60.5488 31.2314L60.5355 31.2449L60.5222 31.2584L60.5089 31.2719L60.4956 31.2854L60.4823 31.2989L60.469 31.3124L60.4557 31.3259L60.4425 31.3394C61.0939 31.3394 61.7454 31.3394 62.3902 31.3394C63.0416 31.3394 63.6931 31.3394 64.3379 31.3394C64.9893 31.3394 65.6408 31.3394 66.2922 31.3394C66.9437 31.3394 67.5951 31.3394 68.2465 31.3394C68.898 31.3394 69.5494 31.3394 70.2009 31.3394C70.8523 31.3394 71.5038 31.3394 72.1552 31.3394C72.8067 31.3394 73.4581 31.3394 74.1096 31.3394C74.761 31.3394 75.4125 31.3394 76.0706 31.3394C76.722 31.3394 77.3801 31.3394 78.0316 31.3394C78.683 31.3394 79.3411 31.3394 79.9992 31.3394C80.6573 31.3394 81.3088 31.3394 81.9669 31.3394C82.625 31.3394 83.283 31.3394 83.9411 31.3394C84.5992 31.3394 85.2574 31.3394 85.9155 31.3394C86.5735 31.3394 87.2383 31.3394 87.8964 31.3394C88.5545 31.3394 89.2192 31.3394 89.884 31.3394C90.5487 31.3394 91.2068 31.3394 91.8715 31.3394C92.5363 31.3394 93.201 31.3394 93.8658 31.3394C94.5305 31.3394 95.2019 31.3394 95.8666 31.3394C96.5314 31.3394 97.2028 31.3394 97.8742 31.3394C98.5456 31.3394 99.2169 31.3394 99.8883 31.3394C100.56 31.3394 101.231 31.3394 101.909 31.3394C102.587 31.3394 103.259 31.3394 103.937 31.3394C104.615 31.3394 105.293 31.3394 105.971 31.3394C106.649 31.3394 107.333 31.3394 108.012 31.3394C108.696 31.3394 109.374 31.3394 110.059 31.3394C110.744 31.3394 111.428 31.3394 112.12 31.3394C112.811 31.3394 113.496 31.3394 114.187 31.3394C114.878 31.3394 115.57 31.3394 116.261 31.3394C116.952 31.3394 117.65 31.3394 118.348 31.3394C119.046 31.3394 119.744 31.3394 120.442 31.3394C121.14 31.3394 121.845 31.3394 122.543 31.3394C123.241 31.3394 123.952 31.3394 124.657 31.3394C124.657 30.9546 124.657 30.5765 124.657 30.1917C124.657 29.8136 124.657 29.4356 124.657 29.0643C124.657 28.6929 124.657 28.3149 124.657 27.9503C124.657 27.579 124.657 27.2144 124.657 26.8498C124.657 26.4853 124.657 26.1207 124.657 25.7629C124.657 25.4051 124.657 25.0405 124.657 24.6894C124.657 24.3384 124.657 23.9805 124.657 23.6295C124.657 23.2784 124.657 22.9273 124.657 22.5763C124.657 22.2252 124.657 21.8809 124.657 21.5366C124.657 21.1923 124.657 20.848 124.657 20.5104C124.657 20.1728 124.657 19.8285 124.657 19.4909C124.657 19.1534 124.657 18.8158 124.657 18.485C124.657 18.1542 124.657 17.8166 124.657 17.4926C124.657 17.1618 124.657 16.8309 124.657 16.5069C124.657 16.1828 124.657 15.852 124.657 15.5279C124.657 15.2039 124.657 14.8798 124.657 14.5625C124.657 14.2385 124.657 13.9211 124.657 13.6038C124.657 13.2865 124.657 12.9692 124.657 12.6519C124.657 12.3346 124.657 12.024 124.657 11.7067C124.657 11.3962 124.657 11.0856 124.657 10.775C124.657 10.4645 124.657 10.1539 124.657 9.85011C124.657 9.53955 124.657 9.23575 124.657 8.93194C124.657 8.62813 124.657 8.32433 124.657 8.02052C124.657 7.71672 124.657 7.4129 124.657 7.1091C124.657 6.80529 124.657 6.50823 124.657 6.20443C124.657 5.90737 124.657 5.60356 124.657 5.30651C124.657 5.00945 124.657 4.71239 124.657 4.41533C124.657 4.11828 124.657 3.82123 124.657 3.52417C124.657 3.22711 124.657 2.93006 124.657 2.63975C124.657 2.3427 124.657 2.05239 124.657 1.75534C124.657 1.46503 124.657 1.16797 124.657 0.877669C124.657 0.587364 124.657 0.290306 124.657 1.12175e-06C125.002 1.11763e-06 125.341 1.11358e-06 125.687 1.10946e-06C126.026 1.10542e-06 126.365 1.10138e-06 126.704 1.09733e-06C127.043 1.09329e-06 127.376 1.08933e-06 127.715 1.08528e-06C128.047 1.08132e-06 128.379 1.07736e-06 128.712 1.07339e-06C129.044 1.06943e-06 129.37 1.06555e-06 129.702 1.06158e-06C130.028 1.0577e-06 130.36 1.05374e-06 130.686 1.04985e-06C131.012 1.04597e-06 131.337 1.04208e-06 131.663 1.0382e-06C131.989 1.03431e-06 132.308 1.03051e-06 132.634 1.02662e-06C132.953 1.02282e-06 133.278 1.01894e-06 133.598 1.01513e-06C133.917 1.01133e-06 134.236 1.00752e-06 134.555 1.00372e-06C134.874 9.99911e-07 135.193 9.96106e-07 135.512 9.92301e-07C135.831 9.88496e-07 136.143 9.8477e-07 136.463 9.80965e-07C136.782 9.7716e-07 137.094 9.73435e-07 137.413 9.6963e-07C137.726 9.65904e-07 138.045 9.62099e-07 138.357 9.58373e-07C138.67 9.54648e-07 138.989 9.50843e-07 139.301 9.47117e-07C139.613 9.43391e-07 139.933 9.39586e-07 140.245 9.35861e-07C140.557 9.32135e-07 140.876 9.2833e-07 141.189 9.24604e-07C141.501 9.20879e-07 141.82 9.17074e-07 142.133 9.13348e-07C142.445 9.09622e-07 142.764 9.05818e-07 143.077 9.02092e-07C143.389 8.98366e-07 143.708 8.94561e-07 144.021 8.90835e-07C144.34 8.8703e-07 144.652 8.83305e-07 144.971 8.795e-07C145.29 8.75695e-07 145.603 8.71969e-07 145.922 8.68164e-07C146.241 8.64359e-07 146.56 8.60554e-07 146.879 8.56749e-07C147.198 8.52944e-07 147.517 8.49139e-07 147.843 8.45255e-07C148.162 8.4145e-07 148.488 8.37566e-07 148.807 8.33761e-07C149.126 8.29956e-07 149.452 8.26072e-07 149.777 8.22188e-07C150.103 8.18303e-07 150.429 8.14419e-07 150.755 8.10535e-07C151.08 8.06651e-07 151.413 8.02687e-07 151.738 7.98803e-07C152.071 7.9484e-07 152.403 7.90876e-07 152.735 7.86913e-07C153.068 7.82949e-07 153.4 7.78986e-07 153.739 7.74943e-07C154.078 7.709e-07 154.411 7.66937e-07 154.75 7.62894e-07C155.089 7.58851e-07 155.428 7.54808e-07 155.773 7.50686e-07C155.773 0.330813 155.773 0.661627 155.773 0.992439C155.773 1.32325 155.773 1.65406 155.773 1.97812C155.773 2.30893 155.773 2.633 155.773 2.96381C155.773 3.28787 155.773 3.61868 155.773 3.94274C155.773 4.26681 155.773 4.59087 155.773 4.91493C155.773 5.23899 155.773 5.56305 155.773 5.88712C155.773 6.21118 155.773 6.53524 155.773 6.8593C155.773 7.18336 155.773 7.50742 155.773 7.82473C155.773 8.14879 155.773 8.46611 155.773 8.79017C155.773 9.11423 155.773 9.43153 155.773 9.7556C155.773 10.0797 155.773 10.397 155.773 10.7143C155.773 11.0316 155.773 11.3556 155.773 11.673C155.773 11.9903 155.773 12.3143 155.773 12.6316C155.773 12.949 155.773 13.273 155.773 13.5903C155.773 13.9076 155.773 14.2317 155.773 14.549C155.773 14.8663 155.773 15.1904 155.773 15.5077C155.773 15.8317 155.773 16.1491 155.773 16.4731C155.773 16.7972 155.773 17.1145 155.773 17.4386C155.773 17.7626 155.773 18.0799 155.773 18.404C155.773 18.728 155.773 19.0521 155.773 19.3762C155.773 19.7002 155.773 20.0243 155.773 20.3484C155.773 20.6724 155.773 20.9965 155.773 21.3205C155.773 21.6446 155.773 21.9754 155.773 22.2995C155.773 22.6235 155.773 22.9543 155.773 23.2852C155.773 23.616 155.773 23.94 155.773 24.2708C155.773 24.6017 155.773 24.9325 155.773 25.2633C155.773 25.5941 155.773 25.9249 155.773 26.2625C155.773 26.5933 155.773 26.9308 155.773 27.2684C155.773 27.606 155.773 27.9435 155.773 28.2811C155.773 28.6187 155.773 28.9562 155.773 29.2938C155.773 29.6314 155.773 29.9757 155.773 30.32C155.773 30.6643 155.773 31.0086 155.773 31.3529C156.465 31.3529 157.163 31.3529 157.854 31.3529C158.545 31.3529 159.237 31.3529 159.921 31.3529C160.606 31.3529 161.297 31.3529 161.982 31.3529C162.667 31.3529 163.351 31.3529 164.029 31.3529C164.708 31.3529 165.392 31.3529 166.07 31.3529C166.748 31.3529 167.426 31.3529 168.098 31.3529C168.776 31.3529 169.447 31.3529 170.119 31.3529C170.79 31.3529 171.461 31.3529 172.133 31.3529C172.804 31.3529 173.469 31.3529 174.134 31.3529C174.798 31.3529 175.463 31.3529 176.128 31.3529C176.793 31.3529 177.457 31.3529 178.115 31.3529C178.774 31.3529 179.438 31.3529 180.096 31.3529C180.754 31.3529 181.413 31.3529 182.071 31.3529C182.729 31.3529 183.38 31.3529 184.038 31.3529C184.69 31.3529 185.348 31.3529 185.999 31.3529C186.651 31.3529 187.302 31.3529 187.954 31.3529C188.605 31.3529 189.257 31.3529 189.901 31.3529C190.553 31.3529 191.198 31.3529 191.849 31.3529C192.494 31.3529 193.145 31.3529 193.79 31.3529C194.435 31.3529 195.08 31.3529 195.724 31.3529C196.369 31.3529 197.014 31.3529 197.659 31.3529C198.304 31.3529 198.942 31.3529 199.587 31.3529C200.231 31.3529 200.87 31.3529 201.508 31.3529C202.146 31.3529 202.791 31.3529 203.429 31.3529C204.067 31.3529 204.705 31.3529 205.35 31.3529C205.988 31.3529 206.626 31.3529 207.264 31.3529C207.903 31.3529 208.541 31.3529 209.179 31.3529C209.817 31.3529 210.455 31.3529 211.093 31.3529C211.731 31.3529 212.37 31.3529 213.001 31.3529C213.639 31.3529 214.277 31.3529 214.909 31.3529C215.547 31.3529 216.179 31.3529 216.817 31.3529C217.455 31.3529 218.086 31.3529 218.725 31.3529L218.711 31.3394L218.698 31.3259L218.685 31.3124L218.671 31.2989L218.658 31.2854L218.645 31.2719L218.632 31.2584L218.618 31.2449L218.605 31.2314L218.592 31.2179L218.578 31.2044L218.565 31.1909L218.552 31.1774L218.538 31.1639L218.525 31.1504L218.512 31.1369L218.499 31.1234L218.485 31.1099L218.472 31.0964L218.459 31.0829L218.445 31.0694L218.432 31.0559L218.419 31.0424L218.406 31.0289L218.392 31.0154L218.379 31.0019L218.366 30.9884L218.352 30.9749L218.339 30.9614L218.326 30.9479L218.312 30.9344L218.213 30.9816Z" fill="white"/>
<path d="M31.0566 125.82C30.7501 125.82 30.4368 125.82 30.1302 125.82C29.8237 125.82 29.5105 125.82 29.2039 125.82C28.8973 125.82 28.5841 125.82 28.2775 125.82C27.9709 125.82 27.6577 125.82 27.3511 125.82C27.0445 125.82 26.7312 125.82 26.4247 125.82C26.1114 125.82 25.8049 125.82 25.4916 125.82C25.1784 125.82 24.8718 125.82 24.5586 125.82C24.2453 125.82 23.9321 125.82 23.6255 125.82C23.3123 125.82 22.999 125.82 22.6858 125.82C22.3726 125.82 22.0593 125.82 21.7461 125.82C21.4328 125.82 21.1129 125.82 20.7997 125.82C20.4864 125.82 20.1665 125.82 19.8466 125.82C19.5267 125.82 19.2135 125.82 18.8936 125.82C18.5737 125.82 18.2538 125.82 17.9339 125.82C17.614 125.82 17.294 125.82 16.9675 125.82C16.6476 125.82 16.321 125.82 15.9945 125.82C15.6679 125.82 15.348 125.82 15.0214 125.82C14.6948 125.82 14.3683 125.82 14.0417 125.82C13.7151 125.82 13.3819 125.82 13.0553 125.82C12.7221 125.82 12.3955 125.82 12.0623 125.82C11.729 125.82 11.3958 125.82 11.0559 125.82C10.7227 125.82 10.3828 125.82 10.0429 125.82C9.70299 125.82 9.36308 125.82 9.02318 125.82C8.68328 125.82 8.33673 125.82 7.99683 125.82C7.65027 125.82 7.31037 125.82 6.95714 125.82C6.60391 125.82 6.26401 125.82 5.91078 125.82C5.55755 125.82 5.21097 125.82 4.85775 125.82C4.50452 125.82 4.1513 125.82 3.79141 125.82C3.43152 125.82 3.07826 125.82 2.71836 125.82C2.35847 125.82 1.99862 125.82 1.63206 125.82C1.2655 125.82 0.90559 125.82 0.532368 125.82C0.16581 125.82 -0.207436 125.82 -0.573994 125.82C-0.573994 125.15 -0.573994 124.479 -0.573994 123.809C-0.573994 123.138 -0.573994 122.468 -0.573994 121.804C-0.573994 121.134 -0.573994 120.47 -0.573994 119.799C-0.573994 119.136 -0.573994 118.465 -0.573994 117.801C-0.573994 117.138 -0.573994 116.474 -0.573994 115.803C-0.573994 115.133 -0.573994 114.476 -0.573994 113.812C-0.573994 113.148 -0.573994 112.484 -0.573994 111.82C-0.573994 111.157 -0.573994 110.499 -0.573994 109.836C-0.573994 109.172 -0.573994 108.515 -0.573994 107.851C-0.573994 107.194 -0.573994 106.53 -0.573994 105.873C-0.573994 105.216 -0.573994 104.552 -0.573994 103.895C-0.573994 103.237 -0.573994 102.58 -0.573994 101.923C-0.573994 101.266 -0.573994 100.609 -0.573994 99.9516C-0.573994 99.2944 -0.573994 98.6373 -0.573994 97.9801C-0.573994 97.3229 -0.573994 96.6658 -0.573994 96.0153C-0.573994 95.3647 -0.573994 94.7076 -0.573994 94.0504C-0.573994 93.3932 -0.573994 92.7427 -0.573994 92.0855C-0.573994 91.4284 -0.573994 90.7778 -0.573994 90.1273C-0.573994 89.4768 -0.573994 88.8196 -0.573994 88.1691C-0.573994 87.5186 -0.573994 86.8614 -0.573994 86.2109C-0.573994 85.5603 -0.573994 84.9032 -0.573994 84.2526C-0.573994 83.6021 -0.573994 82.9516 -0.573994 82.2944C-0.573994 81.6372 -0.573994 80.9934 -0.573994 80.3428C-0.573994 79.6923 -0.573994 79.0418 -0.573994 78.3912C-0.573994 77.7407 -0.573994 77.0902 -0.573994 76.4397C-0.573994 75.7891 -0.573994 75.1386 -0.573994 74.4881C-0.573994 73.8376 -0.573994 73.187 -0.573994 72.5365C-0.573994 71.886 -0.573994 71.2354 -0.573994 70.5849C-0.573994 69.9344 -0.573994 69.2839 -0.573994 68.6333C-0.573994 67.9828 -0.573994 67.3323 -0.573994 66.6817C-0.573995 66.0312 -0.573995 65.3807 -0.573995 64.7302C-0.573995 64.0796 -0.573995 63.4291 -0.573995 62.7786L-0.587296 62.7918L-0.600639 62.8051L-0.613981 62.8184L-0.627283 62.8317L-0.640625 62.8449L-0.653968 62.8582L-0.667269 62.8715L-0.680612 62.8848L-0.693954 62.898L-0.707256 62.9113L-0.720598 62.9246L-0.733941 62.9379L-0.747242 62.9512L-0.760585 62.9644L-0.773927 62.9777L-0.787229 62.991L-0.800571 63.0043L-0.813914 63.0175L-0.827215 63.0308L-0.840558 63.0441L-0.8539 63.0574L-0.867202 63.0706L-0.880544 63.0839L-0.893887 63.0972L-0.907229 63.1105L-0.920531 63.1237L-0.933873 63.137L-0.947216 63.1503L-0.960517 63.1636L-0.97386 63.1769L-0.987202 63.1901L-1.0005 63.2034C-0.680599 63.2034 -0.354021 63.2034 -0.0341156 63.2034C0.28579 63.2034 0.612327 63.2034 0.932232 63.2034C1.25214 63.2034 1.57872 63.2034 1.89862 63.2034C2.21853 63.2034 2.5451 63.2034 2.86501 63.2034C3.18491 63.2034 3.51149 63.2034 3.8314 63.2034C4.1513 63.2034 4.47788 63.2034 4.79778 63.2034C5.11769 63.2034 5.44423 63.2034 5.76413 63.2034C6.08404 63.2034 6.41062 63.2034 6.73052 63.2034C7.05043 63.2034 7.37701 63.2034 7.70358 63.2034C8.03015 63.2034 8.35003 63.2034 8.6766 63.2034C9.00317 63.2034 9.32309 63.2034 9.64966 63.2034C9.97623 63.2034 10.2961 63.2034 10.6227 63.2034C10.9493 63.2034 11.2758 63.2034 11.5957 63.2034C11.9223 63.2034 12.2489 63.2034 12.5755 63.2034C12.902 63.2034 13.2286 63.2034 13.5552 63.2034C13.8817 63.2034 14.2083 63.2034 14.5349 63.2034C14.8615 63.2034 15.188 63.2034 15.5212 63.2034C15.8478 63.2034 16.181 63.2034 16.5076 63.2034C16.8342 63.2034 17.1674 63.2034 17.494 63.2034C17.8272 63.2034 18.1538 63.2034 18.487 63.2034C18.8203 63.2034 19.1468 63.2034 19.4801 63.2034C19.8133 63.2034 20.1465 63.2034 20.4798 63.2034C20.813 63.2034 21.1462 63.2034 21.4795 63.2034C21.8127 63.2034 22.146 63.2034 22.4859 63.2034C22.8191 63.2034 23.159 63.2034 23.4922 63.2034C23.8255 63.2034 24.1653 63.2034 24.5052 63.2034C24.8451 63.2034 25.1784 63.2034 25.5183 63.2034C25.8582 63.2034 26.1981 63.2034 26.538 63.2034C26.8779 63.2034 27.2178 63.2034 27.5577 63.2034C27.8976 63.2034 28.2375 63.2034 28.584 63.2034C28.9306 63.2034 29.2705 63.2034 29.6104 63.2034C29.957 63.2034 30.2969 63.2034 30.6434 63.2034C30.6434 63.9004 30.6434 64.5974 30.6434 65.2944C30.6434 65.9914 30.6434 66.6817 30.6434 67.3721C30.6434 68.0625 30.6434 68.7528 30.6434 69.4432C30.6434 70.1335 30.6434 70.8172 30.6434 71.501C30.6434 72.1847 30.6434 72.8684 30.6434 73.5455C30.6434 74.2226 30.6434 74.9063 30.6434 75.5834C30.6434 76.2604 30.6434 76.9375 30.6434 77.608C30.6434 78.285 30.6434 78.9555 30.6434 79.6259C30.6434 80.2964 30.6434 80.9668 30.6434 81.6372C30.6434 82.3077 30.6434 82.9715 30.6434 83.6353C30.6434 84.2991 30.6434 84.9629 30.6434 85.6267C30.6434 86.2905 30.6434 86.9477 30.6434 87.6115C30.6434 88.2687 30.6434 88.9325 30.6434 89.5896C30.6434 90.2468 30.6434 90.904 30.6434 91.5611C30.6434 92.2183 30.6434 92.8688 30.6434 93.526C30.6434 94.1765 30.6434 94.8337 30.6434 95.4842C30.6434 96.1347 30.6434 96.7853 30.6434 97.4358C30.6434 98.0863 30.6434 98.7302 30.6434 99.3807C30.6434 100.031 30.6434 100.675 30.6434 101.319C30.6434 101.963 30.6434 102.607 30.6434 103.251C30.6434 103.895 30.6434 104.538 30.6434 105.182C30.6434 105.826 30.6434 106.47 30.6434 107.107C30.6434 107.751 30.6434 108.389 30.6434 109.032C30.6434 109.67 30.6434 110.314 30.6434 110.951C30.6434 111.588 30.6434 112.225 30.6434 112.869C30.6434 113.506 30.6434 114.144 30.6434 114.781C30.6434 115.418 30.6434 116.056 30.6434 116.693C30.6434 117.33 30.6434 117.967 30.6434 118.605C30.6434 119.242 30.6434 119.879 30.6434 120.51C30.6434 121.147 30.6434 121.777 30.6434 122.415C30.6434 123.052 30.6434 123.683 30.6434 124.32C30.6434 124.957 30.6434 125.588 30.6434 126.225L30.6568 126.212L30.6701 126.198L30.6834 126.185L30.6968 126.172L30.7101 126.159L30.7234 126.145L30.7367 126.132L30.7501 126.119L30.7634 126.105L30.7767 126.092L30.7901 126.079L30.8034 126.066L30.8167 126.052L30.8301 126.039L30.8434 126.026L30.8567 126.013L30.8701 125.999L30.8834 125.986L30.8967 125.973L30.91 125.959L30.9233 125.946L30.9367 125.933L30.95 125.92L30.9633 125.906L30.9767 125.893L30.99 125.88L31.0033 125.867L31.0167 125.853L31.03 125.84L31.0433 125.827L31.0566 125.813L31.0566 125.82Z" fill="#D5FF40"/>
<path d="M63.1135 129.361C63.4204 129.361 63.7273 129.361 64.0342 129.361C64.3411 129.361 64.6479 129.361 64.9548 129.361C65.2617 129.361 65.5686 129.361 65.8755 129.361C66.1824 129.361 66.4892 129.361 66.7961 129.361C67.103 129.361 67.4099 129.361 67.7168 129.361C68.0236 129.361 68.3305 129.361 68.644 129.361C68.9509 129.361 69.2645 129.361 69.5714 129.361C69.8782 129.361 70.1918 129.361 70.4987 129.361C70.8056 129.361 71.1191 129.361 71.426 129.361C71.7395 129.361 72.0464 129.361 72.36 129.361C72.6735 129.361 72.9804 129.361 73.294 129.361C73.6075 129.361 73.9211 129.361 74.228 129.361C74.5348 129.361 74.8551 129.361 75.1686 129.361C75.4822 129.361 75.7957 129.361 76.1093 129.361C76.4228 129.361 76.7364 129.361 77.0566 129.361C77.3768 129.361 77.6904 129.361 78.0039 129.361C78.3175 129.361 78.6377 129.361 78.9579 129.361C79.2781 129.361 79.5917 129.361 79.9119 129.361C80.2321 129.361 80.5524 129.361 80.8726 129.361C81.1928 129.361 81.513 129.361 81.8399 129.361C82.1602 129.361 82.487 129.361 82.8073 129.361C83.1342 129.361 83.4544 129.361 83.7813 129.361C84.1082 129.361 84.4351 129.361 84.762 129.361C85.0889 129.361 85.4158 129.361 85.7493 129.361C86.0762 129.361 86.4098 129.361 86.7367 129.361C87.0703 129.361 87.3971 129.361 87.7307 129.361C88.0643 129.361 88.3978 129.361 88.7314 129.361C89.065 129.361 89.4052 129.361 89.7388 129.361C90.0723 129.361 90.4126 129.361 90.7528 129.361C91.0931 129.361 91.4333 129.361 91.7735 129.361C92.1138 129.361 92.454 129.361 92.8009 129.361C93.1478 129.361 93.4881 129.361 93.835 129.361C93.835 129.661 93.835 129.96 93.835 130.259C93.835 130.558 93.835 130.858 93.835 131.157C93.835 131.456 93.835 131.755 93.835 132.055C93.835 132.354 93.835 132.653 93.835 132.946C93.835 133.245 93.835 133.538 93.835 133.838C93.835 134.137 93.835 134.43 93.835 134.729C93.835 135.028 93.835 135.321 93.835 135.614C93.835 135.907 93.835 136.206 93.835 136.499C93.835 136.792 93.835 137.091 93.835 137.384C93.835 137.677 93.835 137.976 93.835 138.269C93.835 138.562 93.835 138.862 93.835 139.154C93.835 139.447 93.835 139.747 93.835 140.039C93.835 140.332 93.835 140.632 93.835 140.925C93.835 141.217 93.835 141.517 93.835 141.81C93.835 142.103 93.835 142.402 93.835 142.701C93.835 143 93.835 143.293 93.835 143.593C93.835 143.892 93.835 144.185 93.835 144.484C93.835 144.783 93.835 145.083 93.835 145.375C93.835 145.668 93.835 145.974 93.835 146.273C93.835 146.572 93.835 146.872 93.835 147.171C93.835 147.47 93.835 147.77 93.835 148.075C93.835 148.374 93.835 148.68 93.835 148.979C93.835 149.279 93.835 149.584 93.835 149.89C93.835 150.196 93.835 150.495 93.835 150.8C93.835 151.106 93.835 151.412 93.835 151.717C93.835 152.023 93.835 152.329 93.835 152.641C93.835 152.946 93.835 153.258 93.835 153.57C93.835 153.882 93.835 154.188 93.835 154.5C93.835 154.812 93.835 155.124 93.835 155.436C93.835 155.748 93.835 156.066 93.835 156.378C93.835 156.697 93.835 157.009 93.835 157.327C93.835 157.645 93.835 157.964 93.835 158.282C93.5481 158.282 93.2546 158.282 92.961 158.282C92.6675 158.282 92.3806 158.282 92.0871 158.282C91.7935 158.282 91.5067 158.282 91.2131 158.282C90.9196 158.282 90.6261 158.282 90.3392 158.282C90.0457 158.282 89.7521 158.282 89.4586 158.282C89.165 158.282 88.8715 158.282 88.578 158.282C88.2844 158.282 87.9909 158.282 87.6907 158.282C87.3971 158.282 87.0969 158.282 86.8034 158.282C86.5099 158.282 86.2097 158.282 85.9094 158.282C85.6092 158.282 85.309 158.282 85.0155 158.282C84.722 158.282 84.4151 158.282 84.1149 158.282C83.8147 158.282 83.5144 158.282 83.2076 158.282C82.9073 158.282 82.6005 158.282 82.2936 158.282C81.9867 158.282 81.6865 158.282 81.3796 158.282C81.0727 158.282 80.7659 158.282 80.459 158.282C80.1521 158.282 79.8385 158.282 79.5317 158.282C79.2248 158.282 78.9112 158.282 78.5977 158.282C78.2841 158.282 77.9706 158.282 77.657 158.282C77.3435 158.282 77.0232 158.282 76.7097 158.282C76.3895 158.282 76.0759 158.282 75.7557 158.282C75.4355 158.282 75.1152 158.282 74.795 158.282C74.4748 158.282 74.1479 158.282 73.821 158.282C73.4941 158.282 73.1672 158.282 72.8403 158.282C72.5134 158.282 72.1865 158.282 71.853 158.282C71.5194 158.282 71.1925 158.282 70.8589 158.282C70.5254 158.282 70.1918 158.282 69.8516 158.282C69.518 158.282 69.1778 158.282 68.8375 158.282C68.4973 158.282 68.157 158.282 67.8101 158.282C67.4699 158.282 67.123 158.282 66.7761 158.282C66.4292 158.282 66.0823 158.282 65.7287 158.282C65.3751 158.282 65.0282 158.282 64.6746 158.282C64.3211 158.282 63.9675 158.282 63.6072 158.282C63.6072 157.977 63.6072 157.671 63.6072 157.359C63.6072 157.047 63.6072 156.748 63.6072 156.436C63.6072 156.13 63.6072 155.824 63.6072 155.512C63.6072 155.207 63.6072 154.901 63.6072 154.589C63.6072 154.283 63.6072 153.978 63.6072 153.666C63.6072 153.36 63.6072 153.055 63.6072 152.743C63.6072 152.437 63.6072 152.131 63.6072 151.819C63.6072 151.514 63.6072 151.208 63.6072 150.902C63.6072 150.597 63.6072 150.291 63.6072 149.985C63.6072 149.68 63.6072 149.374 63.6072 149.069C63.6072 148.763 63.6072 148.457 63.6072 148.152C63.6072 147.846 63.6072 147.54 63.6072 147.235C63.6072 146.929 63.6072 146.623 63.6072 146.318C63.6072 146.012 63.6072 145.707 63.6072 145.401C63.6072 145.095 63.6072 144.79 63.6072 144.484C63.6072 144.178 63.6072 143.873 63.6072 143.567C63.6072 143.261 63.6072 142.956 63.6072 142.65C63.6072 142.345 63.6072 142.039 63.6072 141.733C63.6072 141.428 63.6072 141.122 63.6072 140.816C63.6072 140.511 63.6072 140.205 63.6072 139.899C63.6072 139.594 63.6072 139.288 63.6072 138.983C63.6072 138.677 63.6072 138.371 63.6072 138.066C63.6072 137.76 63.6072 137.454 63.6072 137.149C63.6072 136.843 63.6072 136.537 63.6072 136.232C63.6072 135.926 63.6072 135.62 63.6072 135.315C63.6072 135.009 63.6072 134.704 63.6072 134.398C63.6072 134.092 63.6072 133.787 63.6072 133.481C63.6072 133.175 63.6072 132.87 63.6072 132.564C63.6072 132.258 63.6072 131.953 63.6072 131.647C63.6072 131.342 63.6072 131.036 63.6072 130.73C63.6072 130.425 63.6072 130.119 63.6072 129.813C63.6072 129.508 63.6072 129.202 63.6072 128.896C63.6072 128.896 63.6072 128.896 63.6005 128.903L63.5939 128.909L63.5872 128.916C63.5805 128.922 63.5805 128.922 63.5739 128.928C63.5672 128.935 63.5672 128.935 63.5605 128.941C63.5538 128.947 63.5539 128.947 63.5472 128.954C63.5405 128.96 63.5338 128.967 63.5272 128.973C63.5205 128.979 63.5138 128.986 63.5072 128.992C63.5005 128.998 63.4938 129.005 63.4871 129.011C63.4805 129.017 63.4738 129.024 63.4671 129.03C63.4605 129.037 63.4538 129.043 63.4471 129.049C63.4404 129.056 63.4338 129.062 63.4271 129.068C63.4204 129.075 63.4137 129.081 63.4071 129.088C63.4004 129.094 63.3937 129.1 63.387 129.107C63.3804 129.113 63.3737 129.119 63.3604 129.132C63.3537 129.138 63.347 129.145 63.3337 129.158C63.327 129.164 63.3203 129.17 63.3137 129.177C63.307 129.183 63.3003 129.189 63.2937 129.196C63.287 129.202 63.2803 129.208 63.2736 129.215C63.267 129.221 63.2603 129.228 63.2536 129.234C63.247 129.24 63.2403 129.247 63.2336 129.253C63.2269 129.259 63.2203 129.266 63.2136 129.272C63.2069 129.279 63.2003 129.285 63.1936 129.291C63.1869 129.298 63.1803 129.304 63.1736 129.31C63.1669 129.317 63.1602 129.323 63.1602 129.323C63.1536 129.329 63.1536 129.329 63.1469 129.336C63.1402 129.342 63.1402 129.342 63.1336 129.349C63.1269 129.355 63.1269 129.355 63.1269 129.355C63.1202 129.355 63.1202 129.355 63.1135 129.361Z" fill="#3F7D20"/>
<path d="M189.213 105.644C188.892 105.644 188.579 105.644 188.258 105.644C187.938 105.644 187.624 105.644 187.304 105.644C186.983 105.644 186.67 105.644 186.349 105.644C186.029 105.644 185.708 105.644 185.395 105.644C185.074 105.644 184.754 105.644 184.44 105.644C184.12 105.644 183.799 105.644 183.479 105.644C183.158 105.644 182.838 105.644 182.517 105.644C182.197 105.644 181.876 105.644 181.556 105.644C181.235 105.644 180.915 105.644 180.594 105.644C180.274 105.644 179.953 105.644 179.626 105.644C179.305 105.644 178.978 105.644 178.657 105.644C178.337 105.644 178.009 105.644 177.689 105.644C177.361 105.644 177.041 105.644 176.713 105.644C176.386 105.644 176.065 105.644 175.738 105.644C175.411 105.644 175.083 105.644 174.756 105.644C174.428 105.644 174.101 105.644 173.773 105.644C173.446 105.644 173.111 105.644 172.784 105.644C172.456 105.644 172.122 105.644 171.788 105.644C171.453 105.644 171.126 105.644 170.791 105.644C170.457 105.644 170.122 105.644 169.788 105.644C169.454 105.644 169.119 105.644 168.778 105.644C168.436 105.644 168.102 105.644 167.768 105.644C167.426 105.644 167.092 105.644 166.75 105.644C166.409 105.644 166.068 105.644 165.726 105.644C165.385 105.644 165.043 105.644 164.695 105.644C164.354 105.644 164.005 105.644 163.657 105.644C163.308 105.644 162.96 105.644 162.612 105.644C162.263 105.644 161.915 105.644 161.56 105.644C161.204 105.644 160.856 105.644 160.501 105.644C160.145 105.644 159.79 105.644 159.435 105.644C159.079 105.644 158.724 105.644 158.362 105.644C157.999 105.644 157.644 105.644 157.282 105.644C157.282 105.346 157.282 105.048 157.282 104.749C157.282 104.451 157.282 104.152 157.282 103.854C157.282 103.556 157.282 103.257 157.282 102.965C157.282 102.667 157.282 102.369 157.282 102.077C157.282 101.785 157.282 101.486 157.282 101.188C157.282 100.89 157.282 100.598 157.282 100.299C157.282 100.001 157.282 99.709 157.282 99.4106C157.282 99.1122 157.282 98.8138 157.282 98.5219C157.282 98.2235 157.282 97.9252 157.282 97.6268C157.282 97.3284 157.282 97.03 157.282 96.7316C157.282 96.4332 157.282 96.1348 157.282 95.8364C157.282 95.538 157.282 95.2396 157.282 94.9412C157.282 94.6428 157.282 94.3444 157.282 94.0396C157.282 93.7412 157.282 93.4363 157.282 93.1379C157.282 92.833 157.282 92.5346 157.282 92.2298C157.282 91.9249 157.282 91.6265 157.282 91.3216C157.282 91.0167 157.282 90.7119 157.282 90.407C157.282 90.1021 157.282 89.7972 157.282 89.4858C157.282 89.181 157.282 88.8696 157.282 88.5582C157.282 88.2469 157.282 87.942 157.282 87.6306C157.282 87.3193 157.282 87.0079 157.282 86.6965C157.282 86.3852 157.282 86.0673 157.282 85.7559C157.282 85.4381 157.282 85.1267 157.282 84.8089C157.282 84.491 157.282 84.1732 157.282 83.8553C157.282 83.5375 157.282 83.2131 157.282 82.8953C157.282 82.5709 157.282 82.2466 157.282 81.9222C157.282 81.5979 157.282 81.2736 157.282 80.9427C157.282 80.6119 157.282 80.2876 157.282 79.9567C157.282 79.6259 157.282 79.2951 157.282 78.9578C157.282 78.6269 157.282 78.2896 157.282 77.9523C157.282 77.615 157.282 77.2777 157.282 76.9339C157.282 76.5901 157.282 76.2528 157.282 75.909C157.609 75.909 157.937 75.909 158.264 75.909C158.592 75.909 158.919 75.909 159.254 75.909C159.588 75.909 159.915 75.909 160.243 75.909C160.57 75.909 160.905 75.909 161.239 75.909C161.574 75.909 161.901 75.909 162.236 75.909C162.57 75.909 162.904 75.909 163.239 75.909C163.573 75.909 163.908 75.909 164.242 75.909C164.577 75.909 164.911 75.909 165.245 75.909C165.58 75.909 165.921 75.909 166.256 75.909C166.59 75.909 166.931 75.909 167.266 75.909C167.6 75.909 167.942 75.909 168.283 75.909C168.624 75.909 168.959 75.909 169.3 75.909C169.642 75.909 169.983 75.909 170.318 75.909C170.659 75.909 171 75.909 171.342 75.909C171.683 75.909 172.024 75.909 172.366 75.909C172.707 75.909 173.049 75.909 173.39 75.909C173.731 75.909 174.073 75.909 174.421 75.909C174.763 75.909 175.104 75.909 175.452 75.909C175.794 75.909 176.142 75.909 176.483 75.909C176.825 75.909 177.173 75.909 177.515 75.909C177.856 75.909 178.204 75.909 178.553 75.909C178.901 75.909 179.243 75.909 179.591 75.909C179.939 75.909 180.281 75.909 180.629 75.909C180.977 75.909 181.319 75.909 181.667 75.909C182.015 75.909 182.357 75.909 182.705 75.909C183.054 75.909 183.402 75.909 183.743 75.909C184.092 75.909 184.44 75.909 184.781 75.909C185.13 75.909 185.478 75.909 185.827 75.909C186.175 75.909 186.523 75.909 186.872 75.909C187.22 75.909 187.568 75.909 187.917 75.909C188.265 75.909 188.613 75.909 188.962 75.909C189.31 75.909 189.658 75.909 190.007 75.909C190.007 75.909 190 75.909 190 75.9025L189.993 75.896C189.986 75.896 189.986 75.8895 189.979 75.883C189.972 75.8766 189.972 75.8766 189.965 75.8701C189.958 75.8636 189.951 75.8636 189.951 75.8571C189.951 75.8506 189.937 75.8441 189.93 75.8441C189.923 75.8376 189.916 75.8311 189.909 75.8247C189.902 75.8182 189.895 75.8117 189.888 75.8052C189.881 75.7987 189.874 75.7922 189.868 75.7857C189.861 75.7793 189.854 75.7728 189.84 75.7663C189.833 75.7598 189.826 75.7533 189.812 75.7468C189.805 75.7403 189.791 75.7338 189.784 75.7274C189.777 75.7209 189.763 75.7144 189.756 75.7079C189.749 75.7014 189.735 75.6949 189.728 75.6884C189.721 75.682 189.707 75.6755 189.7 75.669C189.693 75.6625 189.679 75.656 189.672 75.6495C189.665 75.643 189.652 75.6366 189.645 75.6301C189.638 75.6236 189.624 75.6171 189.617 75.6106C189.61 75.6041 189.603 75.5976 189.589 75.5911C189.582 75.5847 189.575 75.5782 189.568 75.5717C189.561 75.5652 189.554 75.5587 189.547 75.5522C189.54 75.5457 189.533 75.5392 189.526 75.5327C189.519 75.5263 189.512 75.5198 189.505 75.5198C189.498 75.5198 189.491 75.5133 189.491 75.5068C189.484 75.5003 189.484 75.5003 189.477 75.4938C189.47 75.4873 189.47 75.4873 189.463 75.4809C189.456 75.4809 189.456 75.4744 189.456 75.4744L189.449 75.4679C189.443 75.7857 189.436 76.1101 189.429 76.4279C189.422 76.7458 189.415 77.0701 189.408 77.388C189.401 77.7058 189.394 78.0302 189.387 78.348C189.38 78.6659 189.373 78.9902 189.366 79.3081C189.359 79.6259 189.352 79.9503 189.345 80.2681C189.338 80.586 189.331 80.9103 189.324 81.2281C189.317 81.546 189.31 81.8703 189.303 82.1882C189.296 82.5061 189.289 82.8304 189.282 83.1483C189.275 83.4661 189.268 83.7904 189.261 84.1083C189.254 84.4261 189.247 84.7505 189.24 85.0683C189.233 85.3862 189.227 85.7105 189.22 86.0284C189.213 86.3462 189.206 86.6706 189.199 86.9884C189.192 87.3063 189.185 87.6241 189.178 87.9485C189.171 88.2663 189.164 88.5907 189.157 88.9085C189.15 89.2264 189.143 89.5442 189.136 89.8686C189.129 90.1864 189.122 90.5043 189.115 90.8286C189.108 91.1465 189.101 91.4643 189.094 91.7887C189.087 92.1065 189.08 92.4244 189.073 92.7487C189.066 93.0665 189.059 93.3844 189.052 93.7087C189.045 94.0266 189.038 94.3444 189.031 94.6688C189.024 94.9866 189.017 95.3045 189.011 95.6288C189.004 95.9467 188.997 96.2645 188.99 96.5889C188.983 96.9067 188.976 97.2246 188.969 97.5489C188.962 97.8668 188.955 98.1846 188.948 98.509C188.941 98.8268 188.934 99.1447 188.927 99.469C188.92 99.7869 188.913 100.105 188.899 100.429C188.892 100.747 188.885 101.065 188.878 101.389C188.871 101.707 188.864 102.025 188.85 102.349C188.843 102.667 188.836 102.985 188.822 103.309C188.815 103.627 188.808 103.945 188.795 104.269C188.788 104.587 188.781 104.905 188.767 105.229C188.76 105.547 188.753 105.865 188.739 106.189L188.753 106.176L188.767 106.163L188.781 106.15L188.795 106.137L188.808 106.124L188.822 106.111L188.836 106.099L188.85 106.086L188.864 106.073L188.878 106.06L188.892 106.047L188.906 106.034L188.92 106.021L188.934 106.008L188.948 105.995L188.962 105.982L188.976 105.969L188.99 105.956L189.004 105.943L189.018 105.93L189.031 105.917L189.045 105.904L189.059 105.891L189.073 105.878L189.087 105.865L189.101 105.852L189.115 105.839L189.129 105.826L189.143 105.813L189.157 105.8L189.171 105.787L189.213 105.644Z" fill="#3F7D20"/>
<path d="M190.006 106.696C190.273 106.696 190.54 106.696 190.807 106.696C191.074 106.696 191.341 106.696 191.608 106.696C191.874 106.696 192.141 106.696 192.408 106.696C192.675 106.696 192.942 106.696 193.209 106.696C193.475 106.696 193.742 106.696 194.009 106.696C194.276 106.696 194.543 106.696 194.816 106.696C195.082 106.696 195.355 106.696 195.622 106.696C195.889 106.696 196.161 106.696 196.428 106.696C196.695 106.696 196.968 106.696 197.235 106.696C197.501 106.696 197.774 106.696 198.047 106.696C198.319 106.696 198.586 106.696 198.859 106.696C199.132 106.696 199.404 106.696 199.671 106.696C199.944 106.696 200.216 106.696 200.489 106.696C200.762 106.696 201.034 106.696 201.307 106.696C201.58 106.696 201.852 106.696 202.131 106.696C202.403 106.696 202.682 106.696 202.955 106.696C203.233 106.696 203.506 106.696 203.784 106.696C204.063 106.696 204.335 106.696 204.614 106.696C204.892 106.696 205.171 106.696 205.449 106.696C205.728 106.696 206.006 106.696 206.29 106.696C206.569 106.696 206.853 106.696 207.131 106.696C207.416 106.696 207.694 106.696 207.978 106.696C208.263 106.696 208.547 106.696 208.831 106.696C209.115 106.696 209.4 106.696 209.69 106.696C209.974 106.696 210.264 106.696 210.548 106.696C210.838 106.696 211.123 106.696 211.413 106.696C211.703 106.696 211.993 106.696 212.283 106.696C212.573 106.696 212.869 106.696 213.159 106.696C213.449 106.696 213.745 106.696 214.041 106.696C214.336 106.696 214.632 106.696 214.928 106.696C215.224 106.696 215.52 106.696 215.822 106.696C216.117 106.696 216.419 106.696 216.721 106.696C216.721 107.023 216.721 107.349 216.721 107.676C216.721 108.002 216.721 108.329 216.721 108.655C216.721 108.982 216.721 109.308 216.721 109.635C216.721 109.961 216.721 110.288 216.721 110.607C216.721 110.934 216.721 111.253 216.721 111.58C216.721 111.906 216.721 112.226 216.721 112.552C216.721 112.879 216.721 113.198 216.721 113.518C216.721 113.837 216.721 114.164 216.721 114.483C216.721 114.803 216.721 115.129 216.721 115.449C216.721 115.768 216.721 116.095 216.721 116.414C216.721 116.734 216.721 117.06 216.721 117.38C216.721 117.699 216.721 118.026 216.721 118.345C216.721 118.665 216.721 118.991 216.721 119.311C216.721 119.63 216.721 119.957 216.721 120.276C216.721 120.596 216.721 120.922 216.721 121.249C216.721 121.575 216.721 121.895 216.721 122.221C216.721 122.548 216.721 122.867 216.721 123.194C216.721 123.52 216.721 123.847 216.721 124.166C216.721 124.486 216.721 124.819 216.721 125.146C216.721 125.472 216.721 125.799 216.721 126.125C216.721 126.452 216.721 126.778 216.721 127.112C216.721 127.438 216.721 127.771 216.721 128.098C216.721 128.424 216.721 128.758 216.721 129.091C216.721 129.425 216.721 129.751 216.721 130.085C216.721 130.418 216.721 130.751 216.721 131.085C216.721 131.418 216.721 131.752 216.721 132.092C216.721 132.432 216.721 132.766 216.721 133.106C216.721 133.447 216.721 133.78 216.721 134.12C216.721 134.461 216.721 134.801 216.721 135.141C216.721 135.482 216.721 135.829 216.721 136.17C216.721 136.51 216.721 136.857 216.721 137.205C216.721 137.552 216.721 137.899 216.721 138.246C216.471 138.246 216.216 138.246 215.961 138.246C215.706 138.246 215.456 138.246 215.201 138.246C214.946 138.246 214.696 138.246 214.441 138.246C214.186 138.246 213.93 138.246 213.681 138.246C213.426 138.246 213.17 138.246 212.915 138.246C212.66 138.246 212.405 138.246 212.149 138.246C211.894 138.246 211.639 138.246 211.378 138.246C211.123 138.246 210.862 138.246 210.606 138.246C210.345 138.246 210.09 138.246 209.829 138.246C209.568 138.246 209.307 138.246 209.052 138.246C208.791 138.246 208.529 138.246 208.268 138.246C208.007 138.246 207.746 138.246 207.479 138.246C207.218 138.246 206.952 138.246 206.685 138.246C206.418 138.246 206.157 138.246 205.89 138.246C205.623 138.246 205.356 138.246 205.089 138.246C204.823 138.246 204.55 138.246 204.283 138.246C204.01 138.246 203.744 138.246 203.471 138.246C203.198 138.246 202.926 138.246 202.653 138.246C202.38 138.246 202.102 138.246 201.829 138.246C201.551 138.246 201.278 138.246 201 138.246C200.721 138.246 200.443 138.246 200.164 138.246C199.886 138.246 199.602 138.246 199.317 138.246C199.033 138.246 198.749 138.246 198.464 138.246C198.18 138.246 197.896 138.246 197.606 138.246C197.316 138.246 197.032 138.246 196.742 138.246C196.451 138.246 196.161 138.246 195.866 138.246C195.576 138.246 195.28 138.246 194.984 138.246C194.688 138.246 194.392 138.246 194.09 138.246C193.795 138.246 193.493 138.246 193.191 138.246C192.89 138.246 192.588 138.246 192.28 138.246C191.973 138.246 191.671 138.246 191.364 138.246C191.056 138.246 190.749 138.246 190.436 138.246C190.436 137.913 190.436 137.58 190.436 137.239C190.436 136.899 190.436 136.572 190.436 136.232C190.436 135.899 190.436 135.565 190.436 135.225C190.436 134.891 190.436 134.558 190.436 134.218C190.436 133.884 190.436 133.551 190.436 133.21C190.436 132.877 190.436 132.544 190.436 132.203C190.436 131.87 190.436 131.536 190.436 131.196C190.436 130.863 190.436 130.529 190.436 130.196C190.436 129.862 190.436 129.529 190.436 129.195C190.436 128.862 190.436 128.529 190.436 128.195C190.436 127.862 190.436 127.528 190.436 127.195C190.436 126.861 190.436 126.528 190.436 126.195C190.436 125.861 190.436 125.528 190.436 125.194C190.436 124.861 190.436 124.528 190.436 124.194C190.436 123.861 190.436 123.527 190.436 123.194C190.436 122.86 190.436 122.527 190.436 122.194C190.436 121.86 190.436 121.527 190.436 121.193C190.436 120.86 190.436 120.526 190.436 120.193C190.436 119.86 190.436 119.526 190.436 119.193C190.436 118.859 190.436 118.526 190.436 118.193C190.436 117.859 190.436 117.526 190.436 117.192C190.436 116.859 190.436 116.525 190.436 116.192C190.436 115.859 190.436 115.525 190.436 115.192C190.436 114.858 190.436 114.525 190.436 114.191C190.436 113.858 190.436 113.525 190.436 113.191C190.436 112.858 190.436 112.524 190.436 112.191C190.436 111.857 190.436 111.524 190.436 111.191C190.436 110.857 190.436 110.524 190.436 110.19C190.436 109.857 190.436 109.524 190.436 109.19C190.436 108.857 190.436 108.523 190.436 108.19C190.436 107.856 190.436 107.523 190.436 107.19C190.436 106.856 190.436 106.523 190.436 106.189C190.436 106.189 190.436 106.189 190.43 106.196L190.424 106.203L190.418 106.21C190.412 106.217 190.412 106.217 190.407 106.224C190.401 106.231 190.401 106.231 190.395 106.238C190.389 106.245 190.389 106.245 190.383 106.252C190.378 106.259 190.372 106.266 190.366 106.273C190.36 106.28 190.354 106.287 190.349 106.294C190.343 106.3 190.337 106.307 190.331 106.314C190.325 106.321 190.32 106.328 190.314 106.335C190.308 106.342 190.302 106.349 190.296 106.356C190.291 106.363 190.285 106.37 190.279 106.377C190.273 106.384 190.267 106.391 190.262 106.398C190.256 106.405 190.25 106.412 190.244 106.419C190.238 106.425 190.233 106.432 190.221 106.446C190.215 106.453 190.209 106.46 190.198 106.474C190.192 106.481 190.186 106.488 190.18 106.495C190.175 106.502 190.169 106.509 190.163 106.516C190.157 106.523 190.151 106.53 190.146 106.537C190.14 106.544 190.134 106.551 190.128 106.557C190.122 106.564 190.117 106.571 190.111 106.578C190.105 106.585 190.099 106.592 190.093 106.599C190.088 106.606 190.082 106.613 190.076 106.62C190.07 106.627 190.064 106.634 190.059 106.641C190.053 106.648 190.047 106.655 190.047 106.655C190.041 106.662 190.041 106.662 190.035 106.669C190.03 106.676 190.03 106.676 190.024 106.683C190.018 106.689 190.018 106.689 190.018 106.689C190.018 106.689 190.012 106.689 190.006 106.696Z" fill="#3F7D20"/>
<path d="M63.9422 160.286C63.9422 160.553 63.9422 160.819 63.9422 161.086C63.9422 161.353 63.9422 161.62 63.9422 161.887C63.9422 162.154 63.9422 162.421 63.9422 162.687C63.9422 162.954 63.9422 163.221 63.9422 163.488C63.9422 163.755 63.9422 164.022 63.9422 164.289C63.9422 164.555 63.9422 164.822 63.9422 165.095C63.9422 165.362 63.9422 165.634 63.9422 165.901C63.9422 166.168 63.9422 166.441 63.9422 166.708C63.9422 166.974 63.9422 167.247 63.9422 167.514C63.9422 167.781 63.9422 168.053 63.9422 168.326C63.9422 168.599 63.9422 168.866 63.9422 169.138C63.9422 169.411 63.9422 169.684 63.9422 169.95C63.9422 170.223 63.9422 170.496 63.9422 170.768C63.9422 171.041 63.9422 171.314 63.9422 171.586C63.9422 171.859 63.9422 172.132 63.9422 172.41C63.9422 172.689 63.9422 172.961 63.9422 173.234C63.9422 173.507 63.9422 173.785 63.9422 174.063C63.9422 174.342 63.9422 174.615 63.9422 174.893C63.9422 175.172 63.9422 175.45 63.9422 175.728C63.9422 176.007 63.9422 176.285 63.9422 176.57C63.9422 176.848 63.9422 177.132 63.9422 177.411C63.9422 177.695 63.9422 177.973 63.9422 178.258C63.9422 178.542 63.9422 178.826 63.9422 179.11C63.9422 179.395 63.9422 179.679 63.9422 179.969C63.9422 180.259 63.9422 180.543 63.9422 180.828C63.9422 181.118 63.9422 181.402 63.9422 181.692C63.9422 181.982 63.9422 182.272 63.9422 182.562C63.9422 182.852 63.9422 183.148 63.9422 183.438C63.9422 183.728 63.9422 184.024 63.9422 184.32C63.9422 184.616 63.9422 184.912 63.9422 185.207C63.9422 185.503 63.9422 185.799 63.9422 186.101C63.9422 186.397 63.9422 186.698 63.9422 187C63.6157 187 63.2892 187 62.9627 187C62.6362 187 62.3098 187 61.9833 187C61.6568 187 61.3304 187 61.0039 187C60.6774 187 60.3509 187 60.0314 187C59.7049 187 59.3854 187 59.0589 187C58.7324 187 58.4129 187 58.0864 187C57.76 187 57.4404 187 57.1209 187C56.8014 187 56.4749 187 56.1553 187C55.8358 187 55.5093 187 55.1898 187C54.8703 187 54.5438 187 54.2243 187C53.9048 187 53.5783 187 53.2587 187C52.9392 187 52.6127 187 52.2932 187C51.9737 187 51.6472 187 51.3276 187C51.0081 187 50.6817 187 50.3621 187C50.0426 187 49.7161 187 49.3896 187C49.0632 187 48.7436 187 48.4171 187C48.0907 187 47.7712 187 47.4447 187C47.1182 187 46.7917 187 46.4722 187C46.1457 187 45.8193 187 45.4928 187C45.1663 187 44.8398 187 44.5133 187C44.1869 187 43.8604 187 43.527 187C43.2005 187 42.8671 187 42.5406 187C42.2141 187 41.8807 187 41.5473 187C41.2139 187 40.8874 187 40.554 187C40.2206 187 39.8871 187 39.5537 187C39.2203 187 38.8869 187 38.5465 187C38.2131 187 37.8727 187 37.5323 187C37.1919 187 36.8585 187 36.5182 187C36.1778 187 35.8374 187 35.497 187C35.1567 187 34.8094 187 34.469 187C34.1217 187 33.7813 187 33.434 187C33.0867 187 32.7394 187 32.3921 187C32.3921 186.751 32.3921 186.495 32.3921 186.24C32.3921 185.985 32.3921 185.735 32.3921 185.48C32.3921 185.225 32.3921 184.975 32.3921 184.72C32.3921 184.465 32.3921 184.21 32.3921 183.96C32.3921 183.711 32.3921 183.45 32.3921 183.195C32.3921 182.939 32.3921 182.684 32.3921 182.429C32.3921 182.173 32.3921 181.918 32.3921 181.657C32.3921 181.402 32.3921 181.141 32.3921 180.886C32.3921 180.625 32.3921 180.369 32.3921 180.108C32.3921 179.847 32.3921 179.586 32.3921 179.331C32.3921 179.07 32.3921 178.809 32.3921 178.548C32.3921 178.287 32.3921 178.026 32.3921 177.759C32.3921 177.492 32.3921 177.231 32.3921 176.964C32.3921 176.697 32.3921 176.436 32.3921 176.169C32.3921 175.902 32.3921 175.636 32.3921 175.369C32.3921 175.102 32.3921 174.829 32.3921 174.562C32.3921 174.29 32.3921 174.023 32.3921 173.75C32.3921 173.478 32.3921 173.205 32.3921 172.932C32.3921 172.66 32.3921 172.381 32.3921 172.108C32.3921 171.83 32.3921 171.557 32.3921 171.279C32.3921 171 32.3921 170.722 32.3921 170.444C32.3921 170.165 32.3921 169.881 32.3921 169.597C32.3921 169.312 32.3921 169.028 32.3921 168.744C32.3921 168.46 32.3921 168.175 32.3921 167.885C32.3921 167.595 32.3921 167.311 32.3921 167.021C32.3921 166.731 32.3921 166.441 32.3921 166.145C32.3921 165.855 32.3921 165.559 32.3921 165.263C32.3921 164.967 32.3921 164.671 32.3921 164.37C32.3921 164.068 32.3921 163.772 32.3921 163.471C32.3921 163.169 32.3921 162.867 32.3921 162.56C32.3921 162.258 32.3921 161.951 32.3921 161.643C32.3921 161.336 32.3921 161.028 32.3921 160.715C32.7255 160.715 33.0589 160.715 33.3993 160.715C33.7327 160.715 34.0661 160.715 34.4065 160.715C34.7399 160.715 35.0733 160.715 35.4137 160.715C35.7471 160.715 36.0806 160.715 36.4209 160.715C36.7543 160.715 37.0878 160.715 37.4281 160.715C37.7616 160.715 38.095 160.715 38.4353 160.715C38.7687 160.715 39.1022 160.715 39.4425 160.715C39.776 160.715 40.1094 160.715 40.4428 160.715C40.7762 160.715 41.1097 160.715 41.4431 160.715C41.7765 160.715 42.1099 160.715 42.4433 160.715C42.7768 160.715 43.1102 160.715 43.4436 160.715C43.777 160.715 44.1105 160.715 44.4439 160.715C44.7773 160.715 45.1107 160.715 45.4442 160.715C45.7776 160.715 46.111 160.715 46.4444 160.715C46.7778 160.715 47.1113 160.715 47.4447 160.715C47.7781 160.715 48.1115 160.715 48.445 160.715C48.7784 160.715 49.1118 160.715 49.4452 160.715C49.7787 160.715 50.1121 160.715 50.4455 160.715C50.7789 160.715 51.1123 160.715 51.4458 160.715C51.7792 160.715 52.1126 160.715 52.446 160.715C52.7795 160.715 53.1129 160.715 53.4463 160.715C53.7797 160.715 54.1132 160.715 54.4466 160.715C54.78 160.715 55.1134 160.715 55.4468 160.715C55.7803 160.715 56.1136 160.715 56.4471 160.715C56.7805 160.715 57.1139 160.715 57.4473 160.715C57.7808 160.715 58.1142 160.715 58.4476 160.715C58.781 160.715 59.1145 160.715 59.4479 160.715C59.7813 160.715 60.1147 160.715 60.4481 160.715C60.7816 160.715 61.115 160.715 61.4484 160.715C61.7818 160.715 62.1153 160.715 62.4487 160.715C62.7821 160.715 63.1155 160.715 63.4489 160.715C63.7824 160.715 64.1158 160.715 64.4492 160.715C64.4492 160.715 64.4492 160.715 64.4423 160.709L64.4353 160.703L64.4284 160.698C64.4215 160.692 64.4214 160.692 64.4145 160.686C64.4075 160.68 64.4075 160.68 64.4006 160.674C64.3936 160.669 64.3937 160.669 64.3867 160.663C64.3798 160.657 64.3728 160.651 64.3659 160.645C64.3589 160.64 64.352 160.634 64.345 160.628C64.3381 160.622 64.3311 160.616 64.3242 160.611C64.3172 160.605 64.3103 160.599 64.3034 160.593C64.2964 160.587 64.2895 160.582 64.2825 160.576C64.2756 160.57 64.2686 160.564 64.2617 160.558C64.2547 160.553 64.2478 160.547 64.2408 160.541C64.2339 160.535 64.2269 160.529 64.22 160.524C64.213 160.518 64.2061 160.512 64.1992 160.5C64.1922 160.495 64.1853 160.489 64.1714 160.477C64.1644 160.471 64.1575 160.466 64.1505 160.46C64.1436 160.454 64.1367 160.448 64.1297 160.442C64.1228 160.437 64.1158 160.431 64.1089 160.425C64.1019 160.419 64.0949 160.413 64.088 160.408C64.0811 160.402 64.0741 160.396 64.0672 160.39C64.0602 160.384 64.0533 160.379 64.0463 160.373C64.0394 160.367 64.0325 160.361 64.0255 160.355C64.0186 160.35 64.0116 160.344 64.0046 160.338C63.9977 160.332 63.9908 160.326 63.9908 160.326C63.9838 160.321 63.9838 160.321 63.9769 160.315C63.9699 160.309 63.9699 160.309 63.963 160.303C63.956 160.297 63.9561 160.297 63.9561 160.297C63.9561 160.292 63.9491 160.292 63.9422 160.286C63.9491 160.286 63.9491 160.286 63.9422 160.286Z" fill="#D5FF40"/>
</svg>
